SplineFontDB: 3.2
FontName: CSLSans-Medium
FullName: CSL Sans Medium
FamilyName: CSL Sans Medium
Weight: Medium
Copyright: Copyright (c) 2019 IBM Corp. with Reserved Font Name "Plex"\n\nCopyright (c) 2019 The HMI Sans Project Authors (https://github.com/somegoodpixels/hmi-sans)\nCopyright (c) 2021 The CSL Sans Project Authors (https://github.com/cssobral2013/CSL-Sans)\nThis Font Software is licensed under the SIL Open Font License, Version 1.1.\nThis license is copied below, and is also available with a FAQ at: http://scripts.sil.org/OFL.
Version: 2.001;January 31, 2022;FontCreator 14.0.0.2808 64-bit
ItalicAngle: 0
UnderlinePosition: -189
UnderlineWidth: 77
Ascent: 800
Descent: 200
InvalidEm: 0
sfntRevision: 0x00020041
LayerCount: 2
Layer: 0 1 "Back" 1
Layer: 1 1 "Fore" 0
XUID: [1021 651 537639564 3913]
StyleMap: 0x0000
FSType: 0
OS2Version: 4
OS2_WeightWidthSlopeOnly: 0
OS2_UseTypoMetrics: 0
CreationTime: 1550580401
ModificationTime: 1643660365
PfmFamily: 81
TTFWeight: 500
TTFWidth: 5
LineGap: 0
VLineGap: 0
Panose: 0 0 6 0 0 0 0 0 0 0
OS2TypoAscent: 1000
OS2TypoAOffset: 0
OS2TypoDescent: -220
OS2TypoDOffset: 0
OS2TypoLinegap: 0
OS2WinAscent: 1000
OS2WinAOffset: 0
OS2WinDescent: 220
OS2WinDOffset: 0
HheadAscent: 1000
HheadAOffset: 0
HheadDescent: -220
HheadDOffset: 0
OS2SubXSize: 650
OS2SubYSize: 600
OS2SubXOff: 0
OS2SubYOff: 75
OS2SupXSize: 650
OS2SupYSize: 600
OS2SupXOff: 0
OS2SupYOff: 350
OS2StrikeYSize: 77
OS2StrikeYPos: 312
OS2CapHeight: 698
OS2XHeight: 520
OS2Vendor: 'UKWN'
OS2CodePages: 2000019f.00000000
OS2UnicodeRanges: 20000287.10000013.00000000.00000000
Lookup: 258 0 0 "'kern' Kerning Horizontal lookup 0" { "'kern' Kerning Horizontal lookup 0 per glyph data 0"  "'kern' Kerning Horizontal lookup 0 kerning class 1"  "'kern' Kerning Horizontal lookup 0 kerning class 2"  "'kern' Kerning Horizontal lookup 0 kerning class 3"  } ['kern' ('DFLT' <'dflt' > 'cyrl' <'dflt' > 'grek' <'dflt' > 'latn' <'dflt' > ) ]
DEI: 91125

StartChar: .notdef
Encoding: 65536 -1 0
Width: 472
Flags: W
LayerCount: 2
Fore
SplineSet
440 0 m 1,0,-1
 440 780 l 1,1,-1
 32 780 l 1,2,-1
 32 0 l 1,3,-1
 440 0 l 1,0,-1
363 77 m 1,4,-1
 109 77 l 1,5,-1
 109 703 l 1,6,-1
 363 703 l 1,7,-1
 363 77 l 1,4,-1
EndSplineSet
EndChar

StartChar: exclam
Encoding: 33 33 2
Width: 298
GlyphClass: 1
Flags: W
LayerCount: 2
Fore
SplineSet
174 200 m 1,0,-1
 207 499 l 1,1,-1
 207 698 l 1,2,-1
 89 698 l 1,3,-1
 89 499 l 1,4,-1
 124 200 l 1,5,-1
 174 200 l 1,0,-1
149 -12 m 256,6,7
 187 -12 187 -12 204.5 6.5 c 128,-1,8
 222 25 222 25 222 54 c 2,9,-1
 222 71 l 2,10,11
 222 100 222 100 204.5 118.5 c 128,-1,12
 187 137 187 137 149 137 c 256,13,14
 111 137 111 137 93.5 118.5 c 128,-1,15
 76 100 76 100 76 71 c 2,16,-1
 76 54 l 2,17,18
 76 25 76 25 93.5 6.5 c 128,-1,19
 111 -12 111 -12 149 -12 c 256,6,7
EndSplineSet
EndChar

StartChar: quotedbl
Encoding: 34 34 3
Width: 451
GlyphClass: 7
Flags: W
LayerCount: 2
Fore
SplineSet
175 440 m 1,0,-1
 175 740 l 1,1,-1
 78 740 l 1,2,-1
 78 440 l 1,3,-1
 175 440 l 1,0,-1
373 440 m 1,4,-1
 373 740 l 1,5,-1
 276 740 l 1,6,-1
 276 440 l 1,7,-1
 373 440 l 1,4,-1
EndSplineSet
EndChar

StartChar: numbersign
Encoding: 35 35 4
Width: 678
GlyphClass: 5
Flags: W
LayerCount: 2
Fore
SplineSet
434 0 m 1,0,-1
 467 191 l 1,1,-1
 596 191 l 1,2,-1
 596 264 l 1,3,-1
 480 264 l 1,4,-1
 509 434 l 1,5,-1
 638 434 l 1,6,-1
 638 507 l 1,7,-1
 522 507 l 1,8,-1
 555 698 l 1,9,-1
 478 698 l 1,10,-1
 445 507 l 1,11,-1
 287 507 l 1,12,-1
 320 698 l 1,13,-1
 244 698 l 1,14,-1
 211 507 l 1,15,-1
 82 507 l 1,16,-1
 82 434 l 1,17,-1
 198 434 l 1,18,-1
 169 264 l 1,19,-1
 40 264 l 1,20,-1
 40 191 l 1,21,-1
 156 191 l 1,22,-1
 123 0 l 1,23,-1
 200 0 l 1,24,-1
 233 191 l 1,25,-1
 391 191 l 1,26,-1
 358 0 l 1,27,-1
 434 0 l 1,0,-1
403 264 m 1,28,-1
 245 264 l 1,29,-1
 275 434 l 1,30,-1
 433 434 l 1,31,-1
 403 264 l 1,28,-1
EndSplineSet
EndChar

StartChar: dollar
Encoding: 36 36 5
Width: 599
Flags: W
LayerCount: 2
Fore
SplineSet
346 -82 m 1,0,-1
 346 6 l 1,1,2
 443 19 443 19 495.5 72.5 c 128,-1,3
 548 126 548 126 548 207 c 256,4,5
 548 288 548 288 499.5 330.5 c 128,-1,6
 451 373 451 373 340 399 c 1,7,-1
 340 604 l 1,8,9
 424 589 424 589 466 529 c 1,10,-1
 540 590 l 1,11,12
 472 681 472 681 346 693 c 1,13,-1
 346 780 l 1,14,-1
 261 780 l 1,15,-1
 261 693 l 1,16,17
 169 683 169 683 116.5 636 c 128,-1,18
 64 589 64 589 64 509 c 0,19,20
 64 433 64 433 112.5 386.5 c 128,-1,21
 161 340 161 340 268 317 c 1,22,-1
 268 93 l 1,23,24
 175 106 175 106 116 183 c 1,25,-1
 43 117 l 1,26,27
 126 16 126 16 261 4 c 1,28,-1
 261 -82 l 1,29,-1
 346 -82 l 1,0,-1
340 94 m 1,30,-1
 340 302 l 1,31,32
 398 287 398 287 420.5 262.5 c 128,-1,33
 443 238 443 238 443 200 c 0,34,35
 443 116 443 116 340 94 c 1,30,-1
268 415 m 1,36,37
 217 428 217 428 192.5 450 c 128,-1,38
 168 472 168 472 168 514 c 0,39,40
 168 591 168 591 268 605 c 1,41,-1
 268 415 l 1,36,37
EndSplineSet
EndChar

StartChar: percent
Encoding: 37 37 6
Width: 947
Flags: W
LayerCount: 2
Fore
SplineSet
282 0 m 1,0,-1
 766 698 l 1,1,-1
 665 698 l 1,2,-1
 181 0 l 1,3,-1
 282 0 l 1,0,-1
226 314 m 1,4,5
 388 314 388 314 393 512 c 1,6,7
 393 706 393 706 226 710 c 0,8,9
 64 710 64 710 59 512 c 1,10,11
 59 319 59 319 226 314 c 1,4,5
226 381 m 0,12,13
 156 381 156 381 155 484 c 2,14,-1
 155 540 l 2,15,16
 155 643 155 643 225 643 c 0,17,18
 297 643 297 643 297 540 c 2,19,-1
 297 484 l 2,20,21
 297 381 297 381 226 381 c 0,12,13
721 -12 m 1,22,23
 883 -12 883 -12 888 186 c 1,24,25
 888 380 888 380 721 384 c 0,26,27
 559 384 559 384 554 186 c 1,28,29
 554 -7 554 -7 721 -12 c 1,22,23
721 55 m 0,30,31
 651 55 651 55 650 158 c 2,32,-1
 650 214 l 2,33,34
 650 317 650 317 720 317 c 0,35,36
 792 317 792 317 792 214 c 2,37,-1
 792 158 l 2,38,39
 792 55 792 55 721 55 c 0,30,31
EndSplineSet
EndChar

StartChar: ampersand
Encoding: 38 38 7
Width: 707
GlyphClass: 3
Flags: W
LayerCount: 2
Fore
SplineSet
287 -12 m 0,0,1
 339 -12 339 -12 378 1.5 c 128,-1,2
 417 15 417 15 444.5 34 c 128,-1,3
 472 53 472 53 489 71 c 1,4,-1
 554 0 l 1,5,-1
 690 0 l 1,6,-1
 553 148 l 1,7,8
 584 207 584 207 599 283 c 1,9,-1
 667 283 l 1,10,-1
 667 375 l 1,11,-1
 518 375 l 1,12,13
 514 291 514 291 486 218 c 1,14,-1
 350 365 l 1,15,16
 392 389 392 389 426 416 c 128,-1,17
 460 443 460 443 481 477 c 128,-1,18
 502 511 502 511 502 556 c 0,19,20
 502 630 502 630 447.5 670 c 128,-1,21
 393 710 393 710 317 710 c 0,22,23
 230 710 230 710 178 662 c 128,-1,24
 126 614 126 614 126 542 c 0,25,26
 126 460 126 460 205 378 c 1,27,28
 143 346 143 346 103 299 c 128,-1,29
 63 252 63 252 63 182 c 0,30,31
 63 97 63 97 122.5 42.5 c 128,-1,32
 182 -12 182 -12 287 -12 c 0,0,1
295 425 m 1,33,34
 257 466 257 466 244 490 c 128,-1,35
 231 514 231 514 231 545 c 0,36,37
 231 580 231 580 256 601.5 c 128,-1,38
 281 623 281 623 317 623 c 256,39,40
 353 623 353 623 375 604 c 128,-1,41
 397 585 397 585 397 550 c 2,42,-1
 397 542 l 2,43,44
 397 505 397 505 367.5 476.5 c 128,-1,45
 338 448 338 448 295 425 c 1,33,34
300 81 m 0,46,47
 175 81 175 81 175 199 c 0,48,49
 175 244 175 244 198 270.5 c 128,-1,50
 221 297 221 297 260 317 c 1,51,-1
 430 134 l 1,52,53
 379 81 379 81 300 81 c 0,46,47
EndSplineSet
EndChar

StartChar: quotesingle
Encoding: 39 39 8
Width: 253
Flags: W
LayerCount: 2
Fore
SplineSet
175 440 m 1,0,-1
 175 740 l 1,1,-1
 78 740 l 1,2,-1
 78 440 l 1,3,-1
 175 440 l 1,0,-1
EndSplineSet
EndChar

StartChar: parenleft
Encoding: 40 40 9
Width: 336
Flags: W
LayerCount: 2
Fore
SplineSet
344 -138 m 1,0,1
 264 -65 264 -65 215 45 c 128,-1,2
 166 155 166 155 166 271 c 2,3,-1
 166 351 l 2,4,5
 166 461 166 461 212 570 c 128,-1,6
 258 679 258 679 344 760 c 1,7,-1
 241 760 l 1,8,9
 161 691 161 691 112 571.5 c 128,-1,10
 63 452 63 452 63 311 c 256,11,12
 63 170 63 170 112 50.5 c 128,-1,13
 161 -69 161 -69 241 -138 c 1,14,-1
 344 -138 l 1,0,1
EndSplineSet
EndChar

StartChar: parenright
Encoding: 41 41 10
Width: 336
GlyphClass: 3
Flags: W
LayerCount: 2
Fore
SplineSet
95 -138 m 1,0,1
 169 -73 169 -73 221 45 c 128,-1,2
 273 163 273 163 273 311 c 256,3,4
 273 459 273 459 221 577 c 128,-1,5
 169 695 169 695 95 760 c 1,6,-1
 -8 760 l 1,7,8
 78 679 78 679 124 570 c 128,-1,9
 170 461 170 461 170 351 c 2,10,-1
 170 271 l 2,11,12
 170 155 170 155 121 45 c 128,-1,13
 72 -65 72 -65 -8 -138 c 1,14,-1
 95 -138 l 1,0,1
EndSplineSet
EndChar

StartChar: asterisk
Encoding: 42 42 11
Width: 514
Flags: W
LayerCount: 2
Fore
SplineSet
350 324 m 1,0,-1
 426 377 l 1,1,-1
 320 509 l 1,2,-1
 480 555 l 1,3,-1
 450 642 l 1,4,-1
 297 582 l 1,5,-1
 304 747 l 1,6,-1
 209 747 l 1,7,-1
 216 582 l 1,8,-1
 63 642 l 1,9,-1
 34 555 l 1,10,-1
 193 509 l 1,11,-1
 87 377 l 1,12,-1
 163 324 l 1,13,-1
 256 464 l 1,14,-1
 350 324 l 1,0,-1
EndSplineSet
EndChar

StartChar: plus
Encoding: 43 43 12
Width: 600
Flags: W
LayerCount: 2
Fore
SplineSet
349 63 m 1,0,-1
 349 261 l 1,1,-1
 533 261 l 1,2,-1
 533 350 l 1,3,-1
 349 350 l 1,4,-1
 349 548 l 1,5,-1
 251 548 l 1,6,-1
 251 350 l 1,7,-1
 67 350 l 1,8,-1
 67 261 l 1,9,-1
 251 261 l 1,10,-1
 251 63 l 1,11,-1
 349 63 l 1,0,-1
EndSplineSet
EndChar

StartChar: comma
Encoding: 44 44 13
Width: 289
GlyphClass: 3
Flags: W
LayerCount: 2
Fore
SplineSet
120 -138 m 1,0,1
 166 -100 166 -100 192 -47 c 128,-1,2
 218 6 218 6 218 55 c 2,3,-1
 218 71 l 2,4,5
 218 101 218 101 200 120 c 128,-1,6
 182 139 182 139 145 139 c 256,7,8
 108 139 108 139 90 120 c 128,-1,9
 72 101 72 101 72 71 c 2,10,-1
 72 55 l 2,11,12
 72 31 72 31 85 14 c 128,-1,13
 98 -3 98 -3 124 -9 c 1,14,15
 103 -78 103 -78 39 -138 c 1,16,-1
 120 -138 l 1,0,1
EndSplineSet
EndChar

StartChar: hyphen
Encoding: 45 45 14
Width: 401
Flags: W
LayerCount: 2
Fore
SplineSet
339 249 m 1,0,-1
 339 360 l 1,1,-1
 62 360 l 1,2,-1
 62 249 l 1,3,-1
 339 249 l 1,0,-1
EndSplineSet
EndChar

StartChar: period
Encoding: 46 46 15
Width: 290
Flags: W
LayerCount: 2
Fore
SplineSet
145 -12 m 256,0,1
 182 -12 182 -12 200 7.5 c 128,-1,2
 218 27 218 27 218 56 c 2,3,-1
 218 71 l 2,4,5
 218 100 218 100 200 119.5 c 128,-1,6
 182 139 182 139 145 139 c 256,7,8
 108 139 108 139 90 119.5 c 128,-1,9
 72 100 72 100 72 71 c 2,10,-1
 72 56 l 2,11,12
 72 27 72 27 90 7.5 c 128,-1,13
 108 -12 108 -12 145 -12 c 256,0,1
EndSplineSet
EndChar

StartChar: slash
Encoding: 47 47 16
Width: 417
GlyphClass: 3
Flags: W
LayerCount: 2
Fore
SplineSet
101 -151 m 1,0,-1
 378 740 l 1,1,-1
 284 740 l 1,2,-1
 7 -151 l 1,3,-1
 101 -151 l 1,0,-1
EndSplineSet
EndChar

StartChar: zero
Encoding: 48 48 17
Width: 600
GlyphClass: 5
Flags: W
LayerCount: 2
Fore
SplineSet
300 -12 m 0,0,1
 430 -12 430 -12 491.5 83 c 128,-1,2
 553 178 553 178 553 349 c 256,3,4
 553 520 553 520 491.5 615 c 128,-1,5
 430 710 430 710 300 710 c 0,6,7
 209 710 209 710 153.5 664.5 c 128,-1,8
 98 619 98 619 72.5 538 c 128,-1,9
 47 457 47 457 47 349 c 0,10,11
 47 -11 47 -11 300 -12 c 0,0,1
300 84 m 0,12,13
 167 84 167 84 167 288 c 2,14,-1
 167 410 l 2,15,16
 167 469 167 469 179 515 c 0,17,18
 206 614 206 614 300 614 c 0,19,20
 433 614 433 614 433 410 c 2,21,-1
 433 288 l 2,22,23
 433 229 433 229 421 183 c 0,24,25
 394 84 394 84 300 84 c 0,12,13
EndSplineSet
EndChar

StartChar: one
Encoding: 49 49 18
Width: 600
Flags: W
LayerCount: 2
Fore
SplineSet
402 0 m 1,0,-1
 291 0 l 1,1,-1
 291 596 l 1,2,-1
 141 509 l 1,3,-1
 141 617 l 1,4,-1
 283 698 l 1,5,-1
 402 698 l 1,6,-1
 402 0 l 1,0,-1
EndSplineSet
EndChar

StartChar: two
Encoding: 50 50 19
Width: 600
Flags: W
LayerCount: 2
Fore
SplineSet
541 0 m 1,0,-1
 541 96 l 1,1,-1
 189 96 l 1,2,-1
 353 237 l 2,3,4
 399 277 399 277 436.5 316 c 128,-1,5
 474 355 474 355 497 400 c 128,-1,6
 520 445 520 445 520 503 c 256,7,8
 520 561 520 561 495 608 c 128,-1,9
 470 655 470 655 420 682.5 c 128,-1,10
 370 710 370 710 296 710 c 0,11,12
 226 710 226 710 178.5 686 c 128,-1,13
 131 662 131 662 101.5 623.5 c 128,-1,14
 72 585 72 585 57 540 c 1,15,-1
 156 502 l 1,16,17
 182 612 182 612 287 612 c 0,18,19
 339 612 339 612 369.5 583 c 128,-1,20
 400 554 400 554 400 503 c 0,21,22
 400 448 400 448 376.5 405.5 c 128,-1,23
 353 363 353 363 290 307 c 2,24,-1
 67 108 l 1,25,-1
 67 0 l 1,26,-1
 541 0 l 1,0,-1
EndSplineSet
EndChar

StartChar: three
Encoding: 51 51 20
Width: 600
Flags: W
LayerCount: 2
Fore
SplineSet
271 -12 m 0,0,1
 387 -12 387 -12 453.5 45.5 c 128,-1,2
 520 103 520 103 520 192 c 0,3,4
 520 269 520 269 477.5 311 c 128,-1,5
 435 353 435 353 374 365 c 1,6,-1
 374 370 l 1,7,8
 429 382 429 382 468.5 421.5 c 128,-1,9
 508 461 508 461 508 530 c 0,10,11
 508 615 508 615 444.5 662.5 c 128,-1,12
 381 710 381 710 281 710 c 0,13,14
 195 710 195 710 142.5 677 c 128,-1,15
 90 644 90 644 59 595 c 1,16,-1
 134 530 l 1,17,18
 184 615 184 615 278 615 c 0,19,20
 329 615 329 615 359 589.5 c 128,-1,21
 389 564 389 564 389 516 c 2,22,-1
 389 509 l 2,23,24
 389 466 389 466 358 438.5 c 128,-1,25
 327 411 327 411 262 411 c 2,26,-1
 191 411 l 1,27,-1
 191 315 l 1,28,-1
 265 315 l 2,29,30
 331 315 331 315 367 287 c 128,-1,31
 403 259 403 259 403 205 c 2,32,-1
 403 198 l 2,33,34
 403 144 403 144 369 113.5 c 128,-1,35
 335 83 335 83 271 83 c 0,36,37
 212 83 212 83 176 109.5 c 128,-1,38
 140 136 140 136 115 178 c 1,39,-1
 32 113 l 1,40,41
 52 81 52 81 83.5 53 c 128,-1,42
 115 25 115 25 161 6.5 c 128,-1,43
 207 -12 207 -12 271 -12 c 0,0,1
EndSplineSet
EndChar

StartChar: four
Encoding: 52 52 21
Width: 600
GlyphClass: 2
Flags: W
LayerCount: 2
Fore
SplineSet
466 0 m 1,0,-1
 466 136 l 1,1,-1
 561 136 l 1,2,-1
 561 225 l 1,3,-1
 466 225 l 1,4,-1
 466 698 l 1,5,-1
 318 698 l 1,6,-1
 35 233 l 1,7,-1
 35 136 l 1,8,-1
 359 136 l 1,9,-1
 359 0 l 1,10,-1
 466 0 l 1,0,-1
359 225 m 1,11,-1
 131 225 l 1,12,-1
 352 595 l 1,13,-1
 359 595 l 1,14,-1
 359 225 l 1,11,-1
EndSplineSet
EndChar

StartChar: five
Encoding: 53 53 22
Width: 600
Flags: W
LayerCount: 2
Fore
SplineSet
295 -12 m 0,0,1
 378 -12 378 -12 433 20 c 128,-1,2
 488 52 488 52 516 106 c 128,-1,3
 544 160 544 160 544 226 c 0,4,5
 544 297 544 297 515 345.5 c 128,-1,6
 486 394 486 394 438 419 c 128,-1,7
 390 444 390 444 333 444 c 256,8,9
 276 444 276 444 243.5 420.5 c 128,-1,10
 211 397 211 397 187 353 c 1,11,-1
 180 353 l 1,12,-1
 198 600 l 1,13,-1
 508 600 l 1,14,-1
 508 698 l 1,15,-1
 112 698 l 1,16,-1
 86 309 l 1,17,-1
 179 296 l 1,18,19
 197 318 197 318 224.5 334.5 c 128,-1,20
 252 351 252 351 297 351 c 0,21,22
 426 351 426 351 426 211 c 0,23,24
 426 151 426 151 392.5 117 c 128,-1,25
 359 83 359 83 297 83 c 0,26,27
 240 83 240 83 205.5 109 c 128,-1,28
 171 135 171 135 146 178 c 1,29,-1
 64 113 l 1,30,31
 84 82 84 82 114 53.5 c 128,-1,32
 144 25 144 25 188 6.5 c 128,-1,33
 232 -12 232 -12 295 -12 c 0,0,1
EndSplineSet
EndChar

StartChar: six
Encoding: 54 54 23
Width: 600
GlyphClass: 2
Flags: W
LayerCount: 2
Fore
SplineSet
302 -12 m 0,0,1
 407 -12 407 -12 477 51 c 128,-1,2
 547 114 547 114 547 225 c 0,3,4
 547 323 547 323 489.5 382 c 128,-1,5
 432 441 432 441 342 441 c 0,6,7
 278 441 278 441 240 412 c 128,-1,8
 202 383 202 383 180 339 c 1,9,-1
 173 341 l 1,10,11
 198 451 198 451 268 533 c 128,-1,12
 338 615 338 615 456 698 c 1,13,-1
 306 698 l 1,14,15
 249 660 249 660 192 596.5 c 128,-1,16
 135 533 135 533 95.5 448 c 128,-1,17
 56 363 56 363 56 260 c 0,18,19
 56 136 56 136 121.5 62 c 128,-1,20
 187 -12 187 -12 302 -12 c 0,0,1
302 80 m 0,21,22
 241 80 241 80 207 112.5 c 128,-1,23
 173 145 173 145 173 208 c 2,24,-1
 173 222 l 2,25,26
 173 348 173 348 302 350 c 0,27,28
 363 350 363 350 397 317.5 c 128,-1,29
 431 285 431 285 431 222 c 2,30,-1
 431 208 l 2,31,32
 431 82 431 82 302 80 c 0,21,22
EndSplineSet
EndChar

StartChar: seven
Encoding: 55 55 24
Width: 600
Flags: W
LayerCount: 2
Fore
SplineSet
290 0 m 1,0,-1
 171 0 l 1,1,-1
 424 605 l 1,2,-1
 63 605 l 1,3,-1
 63 698 l 1,4,-1
 536 698 l 1,5,-1
 536 600 l 1,6,-1
 290 0 l 1,0,-1
EndSplineSet
EndChar

StartChar: eight
Encoding: 56 56 25
Width: 600
Flags: W
LayerCount: 2
Fore
SplineSet
300 -12 m 0,0,1
 384 -12 384 -12 439.5 15.5 c 128,-1,2
 495 43 495 43 522.5 89 c 128,-1,3
 550 135 550 135 550 190 c 0,4,5
 550 260 550 260 512 302.5 c 128,-1,6
 474 345 474 345 410 362 c 1,7,-1
 410 370 l 1,8,9
 465 389 465 389 497 430 c 128,-1,10
 529 471 529 471 529 531 c 0,11,12
 529 611 529 611 469.5 660.5 c 128,-1,13
 410 710 410 710 300 710 c 256,14,15
 190 710 190 710 130.5 660.5 c 128,-1,16
 71 611 71 611 71 531 c 0,17,18
 71 471 71 471 103 430 c 128,-1,19
 135 389 135 389 190 370 c 1,20,-1
 190 362 l 1,21,22
 126 345 126 345 88 302.5 c 128,-1,23
 50 260 50 260 50 190 c 0,24,25
 50 101 50 101 117 44.5 c 128,-1,26
 184 -12 184 -12 300 -12 c 0,0,1
300 79 m 0,27,28
 174 79 174 79 168 189 c 1,29,-1
 168 209 l 2,30,31
 168 261 168 261 202.5 290 c 128,-1,32
 237 319 237 319 300 319 c 0,33,34
 426 319 426 319 432 209 c 1,35,-1
 432 189 l 2,36,37
 432 137 432 137 397.5 108 c 128,-1,38
 363 79 363 79 300 79 c 0,27,28
300 406 m 0,39,40
 185 406 185 406 181 504 c 1,41,-1
 181 521 l 2,42,43
 181 617 181 617 300 619 c 0,44,45
 416 619 416 619 419 521 c 2,46,-1
 419 504 l 2,47,48
 419 408 419 408 300 406 c 0,39,40
EndSplineSet
EndChar

StartChar: nine
Encoding: 57 57 26
Width: 600
GlyphClass: 1
Flags: W
LayerCount: 2
Fore
SplineSet
294 0 m 1,0,1
 353 38 353 38 410 102.5 c 128,-1,2
 467 167 467 167 505.5 252.5 c 128,-1,3
 544 338 544 338 544 438 c 0,4,5
 544 558 544 558 481.5 634 c 128,-1,6
 419 710 419 710 298 710 c 0,7,8
 188 710 188 710 120.5 644.5 c 128,-1,9
 53 579 53 579 53 473 c 0,10,11
 53 376 53 376 111.5 316.5 c 128,-1,12
 170 257 170 257 258 257 c 0,13,14
 325 257 325 257 362 287 c 128,-1,15
 399 317 399 317 420 359 c 1,16,-1
 427 357 l 1,17,18
 402 247 402 247 332 165 c 128,-1,19
 262 83 262 83 144 0 c 1,20,-1
 294 0 l 1,0,1
298 348 m 0,21,22
 237 348 237 348 203 380.5 c 128,-1,23
 169 413 169 413 169 476 c 2,24,-1
 169 490 l 2,25,26
 169 616 169 616 298 618 c 0,27,28
 359 618 359 618 393 585.5 c 128,-1,29
 427 553 427 553 427 490 c 2,30,-1
 427 476 l 2,31,32
 427 350 427 350 298 348 c 0,21,22
EndSplineSet
EndChar

StartChar: colon
Encoding: 58 58 27
Width: 310
Flags: W
LayerCount: 2
Fore
SplineSet
155 -12 m 256,0,1
 192 -12 192 -12 210 7.5 c 128,-1,2
 228 27 228 27 228 56 c 2,3,-1
 228 71 l 2,4,5
 228 100 228 100 210 119.5 c 128,-1,6
 192 139 192 139 155 139 c 256,7,8
 118 139 118 139 100 119.5 c 128,-1,9
 82 100 82 100 82 71 c 2,10,-1
 82 56 l 2,11,12
 82 27 82 27 100 7.5 c 128,-1,13
 118 -12 118 -12 155 -12 c 256,0,1
155 376 m 256,14,15
 192 376 192 376 210 395.5 c 128,-1,16
 228 415 228 415 228 444 c 2,17,-1
 228 459 l 2,18,19
 228 488 228 488 210 507.5 c 128,-1,20
 192 527 192 527 155 527 c 256,21,22
 118 527 118 527 100 507.5 c 128,-1,23
 82 488 82 488 82 459 c 2,24,-1
 82 444 l 2,25,26
 82 415 82 415 100 395.5 c 128,-1,27
 118 376 118 376 155 376 c 256,14,15
EndSplineSet
EndChar

StartChar: semicolon
Encoding: 59 59 28
Width: 309
GlyphClass: 2
Flags: W
LayerCount: 2
Fore
SplineSet
129 -138 m 1,0,1
 175 -100 175 -100 201 -47 c 128,-1,2
 227 6 227 6 227 55 c 2,3,-1
 227 71 l 2,4,5
 227 101 227 101 209 120 c 128,-1,6
 191 139 191 139 154 139 c 256,7,8
 117 139 117 139 99 120 c 128,-1,9
 81 101 81 101 81 71 c 2,10,-1
 81 55 l 2,11,12
 81 31 81 31 94 14 c 128,-1,13
 107 -3 107 -3 133 -9 c 1,14,15
 112 -78 112 -78 48 -138 c 1,16,-1
 129 -138 l 1,0,1
155 376 m 256,17,18
 192 376 192 376 210 395.5 c 128,-1,19
 228 415 228 415 228 444 c 2,20,-1
 228 459 l 2,21,22
 228 488 228 488 210 507.5 c 128,-1,23
 192 527 192 527 155 527 c 256,24,25
 118 527 118 527 100 507.5 c 128,-1,26
 82 488 82 488 82 459 c 2,27,-1
 82 444 l 2,28,29
 82 415 82 415 100 395.5 c 128,-1,30
 118 376 118 376 155 376 c 256,17,18
EndSplineSet
EndChar

StartChar: less
Encoding: 60 60 29
Width: 600
Flags: W
LayerCount: 2
Fore
SplineSet
504 -8 m 1,0,-1
 504 104 l 1,1,-1
 205 284 l 1,2,-1
 205 291 l 1,3,-1
 504 470 l 1,4,-1
 504 582 l 1,5,-1
 96 328 l 1,6,-1
 96 246 l 1,7,-1
 504 -8 l 1,0,-1
EndSplineSet
EndChar

StartChar: equal
Encoding: 61 61 30
Width: 600
GlyphClass: 2
Flags: W
LayerCount: 2
Fore
SplineSet
533 368 m 1,0,-1
 533 457 l 1,1,-1
 67 457 l 1,2,-1
 67 368 l 1,3,-1
 533 368 l 1,0,-1
533 154 m 1,4,-1
 533 243 l 1,5,-1
 67 243 l 1,6,-1
 67 154 l 1,7,-1
 533 154 l 1,4,-1
EndSplineSet
EndChar

StartChar: greater
Encoding: 62 62 31
Width: 600
GlyphClass: 5
Flags: W
LayerCount: 2
Fore
SplineSet
96 -8 m 1,0,-1
 504 246 l 1,1,-1
 504 328 l 1,2,-1
 96 582 l 1,3,-1
 96 470 l 1,4,-1
 395 291 l 1,5,-1
 395 284 l 1,6,-1
 96 104 l 1,7,-1
 96 -8 l 1,0,-1
EndSplineSet
EndChar

StartChar: question
Encoding: 63 63 32
Width: 487
GlyphClass: 3
Flags: W
LayerCount: 2
Fore
SplineSet
274 219 m 1,0,-1
 274 311 l 1,1,2
 318 319 318 319 359 343 c 128,-1,3
 400 367 400 367 427 409.5 c 128,-1,4
 454 452 454 452 454 514 c 0,5,6
 454 603 454 603 396 656.5 c 128,-1,7
 338 710 338 710 239 710 c 0,8,9
 173 710 173 710 128 686 c 128,-1,10
 83 662 83 662 56.5 625.5 c 128,-1,11
 30 589 30 589 19 549 c 1,12,-1
 114 511 l 1,13,14
 125 557 125 557 155 585.5 c 128,-1,15
 185 614 185 614 235 614 c 0,16,17
 282 614 282 614 310 588.5 c 128,-1,18
 338 563 338 563 338 517 c 2,19,-1
 338 503 l 2,20,21
 338 385 338 385 170 378 c 1,22,-1
 170 219 l 1,23,-1
 274 219 l 1,0,-1
223 -12 m 256,24,25
 261 -12 261 -12 278.5 6.5 c 128,-1,26
 296 25 296 25 296 54 c 2,27,-1
 296 71 l 2,28,29
 296 100 296 100 278.5 118.5 c 128,-1,30
 261 137 261 137 223 137 c 256,31,32
 185 137 185 137 167.5 118.5 c 128,-1,33
 150 100 150 100 150 71 c 2,34,-1
 150 54 l 2,35,36
 150 25 150 25 167.5 6.5 c 128,-1,37
 185 -12 185 -12 223 -12 c 256,24,25
EndSplineSet
EndChar

StartChar: at
Encoding: 64 64 33
Width: 896
Flags: W
LayerCount: 2
Fore
SplineSet
676 -121 m 1,0,-1
 676 -48 l 1,1,-1
 454 -48 l 2,2,3
 313 -48 313 -48 227 40 c 128,-1,4
 141 128 141 128 141 266 c 2,5,-1
 141 316 l 2,6,7
 141 457 141 457 230.5 546.5 c 128,-1,8
 320 636 320 636 458 636 c 0,9,10
 540 636 540 636 608 603 c 128,-1,11
 676 570 676 570 716.5 506.5 c 128,-1,12
 757 443 757 443 757 353 c 2,13,-1
 757 314 l 2,14,15
 757 233 757 233 734.5 189.5 c 128,-1,16
 712 146 712 146 670 146 c 0,17,18
 645 146 645 146 632.5 159 c 128,-1,19
 620 172 620 172 620 205 c 2,20,-1
 620 495 l 1,21,-1
 533 495 l 1,22,-1
 533 427 l 1,23,-1
 528 427 l 1,24,25
 503 504 503 504 419 504 c 0,26,27
 374 504 374 504 336.5 480.5 c 128,-1,28
 299 457 299 457 276.5 409 c 128,-1,29
 254 361 254 361 254 289 c 0,30,31
 254 185 254 185 301.5 129.5 c 128,-1,32
 349 74 349 74 419 74 c 0,33,34
 507 74 507 74 539 163 c 1,35,-1
 544 163 l 1,36,37
 548 123 548 123 576 98.5 c 128,-1,38
 604 74 604 74 655 74 c 0,39,40
 717 74 717 74 757 107.5 c 128,-1,41
 797 141 797 141 816 198.5 c 128,-1,42
 835 256 835 256 835 328 c 0,43,44
 835 454 835 454 784.5 538.5 c 128,-1,45
 734 623 734 623 649 665.5 c 128,-1,46
 564 708 564 708 459 708 c 0,47,48
 336 708 336 708 247.5 653.5 c 128,-1,49
 159 599 159 599 111 504 c 128,-1,50
 63 409 63 409 63 289 c 0,51,52
 63 102 63 102 170 -9.5 c 128,-1,53
 277 -121 277 -121 453 -121 c 2,54,-1
 676 -121 l 1,0,-1
445 151 m 0,55,56
 399 151 399 151 375 178.5 c 128,-1,57
 351 206 351 206 351 251 c 2,58,-1
 351 328 l 2,59,60
 351 373 351 373 375 400.5 c 128,-1,61
 399 428 399 428 445 428 c 0,62,63
 487 428 487 428 510 406.5 c 128,-1,64
 533 385 533 385 533 353 c 2,65,-1
 533 233 l 2,66,67
 533 197 533 197 510 174 c 128,-1,68
 487 151 487 151 445 151 c 0,55,56
EndSplineSet
EndChar

StartChar: A
Encoding: 65 65 34
Width: 662
GlyphClass: 5
Flags: W
LayerCount: 2
Fore
SplineSet
640 0 m 1,0,-1
 402 698 l 1,1,-1
 260 698 l 1,2,-1
 22 0 l 1,3,-1
 137 0 l 1,4,-1
 198 189 l 1,5,-1
 459 189 l 1,6,-1
 522 0 l 1,7,-1
 640 0 l 1,0,-1
431 286 m 1,8,-1
 225 286 l 1,9,-1
 326 594 l 1,10,-1
 331 594 l 1,11,-1
 431 286 l 1,8,-1
EndSplineSet
EndChar

StartChar: B
Encoding: 66 66 35
Width: 659
GlyphClass: 7
Flags: W
LayerCount: 2
Fore
SplineSet
426 0 m 2,0,1
 507 0 507 0 556.5 60 c 128,-1,2
 606 120 606 120 606 201 c 0,3,4
 606 260 606 260 581 295.5 c 128,-1,5
 556 331 556 331 522.5 347 c 128,-1,6
 489 363 489 363 460 364 c 1,7,-1
 460 370 l 1,8,9
 487 372 487 372 515 386.5 c 128,-1,10
 543 401 543 401 562 432.5 c 128,-1,11
 581 464 581 464 581 518 c 0,12,13
 581 600 581 600 531.5 649 c 128,-1,14
 482 698 482 698 395 698 c 2,15,-1
 86 698 l 1,16,-1
 86 0 l 1,17,-1
 426 0 l 2,0,1
393 97 m 1,18,-1
 199 97 l 1,19,-1
 199 309 l 1,20,-1
 393 309 l 2,21,22
 437 309 437 309 462 286 c 128,-1,23
 487 263 487 263 487 220 c 2,24,-1
 487 186 l 2,25,26
 487 101 487 101 393 97 c 1,18,-1
374 403 m 1,27,-1
 199 403 l 1,28,-1
 199 601 l 1,29,-1
 374 601 l 2,30,31
 458 601 458 601 462 518 c 1,32,-1
 462 486 l 2,33,34
 462 407 462 407 374 403 c 1,27,-1
EndSplineSet
EndChar

StartChar: C
Encoding: 67 67 36
Width: 634
Flags: W
LayerCount: 2
Fore
SplineSet
348 -12 m 0,0,1
 439 -12 439 -12 502 31 c 128,-1,2
 565 74 565 74 600 150 c 1,3,-1
 509 205 l 1,4,5
 490 153 490 153 450.5 121 c 128,-1,6
 411 89 411 89 348 89 c 0,7,8
 267 89 267 89 221 144 c 128,-1,9
 175 199 175 199 175 296 c 2,10,-1
 175 402 l 2,11,12
 175 499 175 499 221 554 c 128,-1,13
 267 609 267 609 348 609 c 0,14,15
 464 609 464 609 502 500 c 1,16,-1
 597 552 l 1,17,18
 526 710 526 710 348 710 c 0,19,20
 216 710 216 710 135.5 620 c 128,-1,21
 55 530 55 530 55 349 c 0,22,23
 55 173 55 173 133 80.5 c 128,-1,24
 211 -12 211 -12 348 -12 c 0,0,1
EndSplineSet
EndChar

StartChar: D
Encoding: 68 68 37
Width: 683
Flags: W
LayerCount: 2
Fore
SplineSet
333 0 m 2,0,1
 421 0 421 0 487.5 38.5 c 128,-1,2
 554 77 554 77 591 154.5 c 128,-1,3
 628 232 628 232 628 349 c 0,4,5
 628 470 628 470 590 547.5 c 128,-1,6
 552 625 552 625 485 661.5 c 128,-1,7
 418 698 418 698 333 698 c 2,8,-1
 86 698 l 1,9,-1
 86 0 l 1,10,-1
 333 0 l 2,0,1
333 100 m 2,11,-1
 199 100 l 1,12,-1
 199 598 l 1,13,-1
 333 598 l 2,14,15
 411 598 411 598 459 549 c 128,-1,16
 507 500 507 500 507 405 c 2,17,-1
 507 293 l 2,18,19
 507 198 507 198 459 149 c 128,-1,20
 411 100 411 100 333 100 c 2,11,-1
EndSplineSet
EndChar

StartChar: E
Encoding: 69 69 38
Width: 593
Flags: W
LayerCount: 2
Fore
SplineSet
533 0 m 1,0,-1
 533 100 l 1,1,-1
 199 100 l 1,2,-1
 199 304 l 1,3,-1
 502 304 l 1,4,-1
 502 404 l 1,5,-1
 199 404 l 1,6,-1
 199 598 l 1,7,-1
 533 598 l 1,8,-1
 533 698 l 1,9,-1
 86 698 l 1,10,-1
 86 0 l 1,11,-1
 533 0 l 1,0,-1
EndSplineSet
EndChar

StartChar: F
Encoding: 70 70 39
Width: 570
GlyphClass: 2
Flags: W
LayerCount: 2
Fore
SplineSet
199 0 m 1,0,-1
 199 304 l 1,1,-1
 486 304 l 1,2,-1
 486 404 l 1,3,-1
 199 404 l 1,4,-1
 199 598 l 1,5,-1
 522 598 l 1,6,-1
 522 698 l 1,7,-1
 86 698 l 1,8,-1
 86 0 l 1,9,-1
 199 0 l 1,0,-1
EndSplineSet
EndChar

StartChar: G
Encoding: 71 71 40
Width: 705
Flags: W
LayerCount: 2
Fore
SplineSet
343 -12 m 0,0,1
 423 -12 423 -12 471 21 c 128,-1,2
 519 54 519 54 531 106 c 1,3,-1
 535 106 l 1,4,-1
 535 0 l 1,5,-1
 634 0 l 1,6,-1
 634 372 l 1,7,-1
 381 372 l 1,8,-1
 381 275 l 1,9,-1
 525 275 l 1,10,-1
 525 221 l 2,11,12
 525 158 525 158 476.5 123.5 c 128,-1,13
 428 89 428 89 360 89 c 0,14,15
 277 89 277 89 226.5 142 c 128,-1,16
 176 195 176 195 176 292 c 2,17,-1
 176 406 l 2,18,19
 176 503 176 503 226.5 556 c 128,-1,20
 277 609 277 609 360 609 c 0,21,22
 424 609 424 609 466 579 c 128,-1,23
 508 549 508 549 528 499 c 1,24,-1
 620 553 l 1,25,26
 584 628 584 628 519 669 c 128,-1,27
 454 710 454 710 360 710 c 0,28,29
 218 710 218 710 136.5 614 c 128,-1,30
 55 518 55 518 55 349 c 0,31,32
 55 233 55 233 92 152.5 c 128,-1,33
 129 72 129 72 194 30 c 128,-1,34
 259 -12 259 -12 343 -12 c 0,0,1
EndSplineSet
EndChar

StartChar: H
Encoding: 72 72 41
Width: 714
GlyphClass: 5
Flags: W
LayerCount: 2
Fore
SplineSet
628 0 m 1,0,-1
 628 698 l 1,1,-1
 515 698 l 1,2,-1
 515 404 l 1,3,-1
 199 404 l 1,4,-1
 199 698 l 1,5,-1
 86 698 l 1,6,-1
 86 0 l 1,7,-1
 199 0 l 1,8,-1
 199 304 l 1,9,-1
 515 304 l 1,10,-1
 515 0 l 1,11,-1
 628 0 l 1,0,-1
EndSplineSet
EndChar

StartChar: I
Encoding: 73 73 42
Width: 285
Flags: W
LayerCount: 2
Fore
SplineSet
199 0 m 1,0,-1
 199 698 l 1,1,-1
 86 698 l 1,2,-1
 86 0 l 1,3,-1
 199 0 l 1,0,-1
EndSplineSet
EndChar

StartChar: J
Encoding: 74 74 43
Width: 531
Flags: W
LayerCount: 2
Fore
SplineSet
237 -12 m 0,0,1
 146 -12 146 -12 93.5 36 c 128,-1,2
 41 84 41 84 27 163 c 1,3,-1
 131 186 l 1,4,5
 150 89 150 89 237 89 c 0,6,7
 282 89 282 89 309 117 c 128,-1,8
 336 145 336 145 336 202 c 2,9,-1
 336 698 l 1,10,-1
 449 698 l 1,11,-1
 449 190 l 2,12,13
 449 101 449 101 392.5 44.5 c 128,-1,14
 336 -12 336 -12 237 -12 c 0,0,1
EndSplineSet
EndChar

StartChar: K
Encoding: 75 75 44
Width: 660
GlyphClass: 1
Flags: W
LayerCount: 2
Fore
SplineSet
643 0 m 1,0,-1
 374 404 l 1,1,-1
 623 698 l 1,2,-1
 491 698 l 1,3,-1
 372 555 l 2,4,5
 333 509 333 509 300 467 c 2,6,-1
 203 344 l 1,7,-1
 199 344 l 1,8,-1
 199 698 l 1,9,-1
 86 698 l 1,10,-1
 86 0 l 1,11,-1
 199 0 l 1,12,-1
 199 216 l 1,13,-1
 295 326 l 1,14,-1
 507 0 l 1,15,-1
 643 0 l 1,0,-1
EndSplineSet
EndChar

StartChar: L
Encoding: 76 76 45
Width: 513
GlyphClass: 7
Flags: W
LayerCount: 2
Fore
SplineSet
483 0 m 1,0,-1
 483 100 l 1,1,-1
 199 100 l 1,2,-1
 199 698 l 1,3,-1
 86 698 l 1,4,-1
 86 0 l 1,5,-1
 483 0 l 1,0,-1
EndSplineSet
EndChar

StartChar: M
Encoding: 77 77 46
Width: 814
GlyphClass: 1
Flags: W
LayerCount: 2
Fore
SplineSet
728 0 m 1,0,-1
 728 698 l 1,1,-1
 600 698 l 1,2,-1
 413 343 l 1,3,-1
 407 343 l 1,4,-1
 220 698 l 1,5,-1
 86 698 l 1,6,-1
 86 0 l 1,7,-1
 194 0 l 1,8,-1
 194 534 l 1,9,-1
 199 534 l 1,10,-1
 254 421 l 1,11,-1
 407 142 l 1,12,-1
 560 421 l 1,13,-1
 615 534 l 1,14,-1
 620 534 l 1,15,-1
 620 0 l 1,16,-1
 728 0 l 1,0,-1
EndSplineSet
EndChar

StartChar: N
Encoding: 78 78 47
Width: 714
GlyphClass: 1
Flags: W
LayerCount: 2
Fore
SplineSet
628 0 m 1,0,-1
 628 698 l 1,1,-1
 520 698 l 1,2,-1
 520 164 l 1,3,-1
 517 164 l 1,4,-1
 440 312 l 1,5,-1
 212 698 l 1,6,-1
 86 698 l 1,7,-1
 86 0 l 1,8,-1
 194 0 l 1,9,-1
 194 534 l 1,10,-1
 197 534 l 1,11,-1
 274 386 l 1,12,-1
 502 0 l 1,13,-1
 628 0 l 1,0,-1
EndSplineSet
EndChar

StartChar: O
Encoding: 79 79 48
Width: 712
GlyphClass: 1
Flags: W
LayerCount: 2
Fore
SplineSet
356 -12 m 0,0,1
 496 -12 496 -12 576.5 82.5 c 128,-1,2
 657 177 657 177 657 349 c 0,3,4
 657 471 657 471 618 551 c 128,-1,5
 579 631 579 631 511 670.5 c 128,-1,6
 443 710 443 710 356 710 c 0,7,8
 214 710 214 710 134.5 614 c 128,-1,9
 55 518 55 518 55 349 c 256,10,11
 55 180 55 180 135 84 c 128,-1,12
 215 -12 215 -12 356 -12 c 0,0,1
356 89 m 0,13,14
 275 89 275 89 225.5 144 c 128,-1,15
 176 199 176 199 176 294 c 2,16,-1
 176 404 l 2,17,18
 176 496 176 496 223.5 552.5 c 128,-1,19
 271 609 271 609 356 609 c 0,20,21
 437 609 437 609 486.5 555.5 c 128,-1,22
 536 502 536 502 536 404 c 2,23,-1
 536 294 l 2,24,25
 536 194 536 194 484.5 141.5 c 128,-1,26
 433 89 433 89 356 89 c 0,13,14
EndSplineSet
EndChar

StartChar: P
Encoding: 80 80 49
Width: 627
GlyphClass: 3
Flags: W
LayerCount: 2
Fore
SplineSet
199 0 m 1,0,-1
 199 278 l 1,1,-1
 386 278 l 2,2,3
 483 278 483 278 536 335 c 128,-1,4
 589 392 589 392 589 488 c 256,5,6
 589 584 589 584 536 641 c 128,-1,7
 483 698 483 698 386 698 c 2,8,-1
 86 698 l 1,9,-1
 86 0 l 1,10,-1
 199 0 l 1,0,-1
379 377 m 2,11,-1
 199 377 l 1,12,-1
 199 599 l 1,13,-1
 379 599 l 2,14,15
 422 599 422 599 446 576.5 c 128,-1,16
 470 554 470 554 470 512 c 2,17,-1
 470 464 l 2,18,19
 470 380 470 380 379 377 c 2,11,-1
EndSplineSet
EndChar

StartChar: Q
Encoding: 81 81 50
Width: 712
GlyphClass: 5
Flags: W
LayerCount: 2
Fore
SplineSet
356 89 m 0,0,1
 275 89 275 89 225.5 144 c 128,-1,2
 176 199 176 199 176 294 c 2,3,-1
 176 404 l 2,4,5
 176 496 176 496 223.5 552.5 c 128,-1,6
 271 609 271 609 356 609 c 0,7,8
 437 609 437 609 486.5 555.5 c 128,-1,9
 536 502 536 502 536 404 c 2,10,-1
 536 294 l 2,11,12
 536 194 536 194 484.5 141.5 c 128,-1,13
 433 89 433 89 356 89 c 0,0,1
577 83 m 0,15,16
 657 177 657 177 657 349 c 0,17,18
 657 471 657 471 618 551 c 128,-1,19
 579 631 579 631 511 670.5 c 128,-1,20
 443 710 443 710 356 710 c 0,21,22
 214 710 214 710 134.5 614 c 128,-1,23
 55 518 55 518 55 349 c 256,24,25
 55 180 55 180 135 84 c 128,-1,26
 215 -12 215 -12 356 -12 c 0,27,28
 414 -12 414 -12 463 4 c 1,29,-1
 632 -94 l 1,30,-1
 679 -13 l 1,31,-1
 554 59 l 1,32,14
 566 70 566 70 577 83 c 0,15,16
EndSplineSet
EndChar

StartChar: R
Encoding: 82 82 51
Width: 655
GlyphClass: 7
Flags: W
LayerCount: 2
Fore
SplineSet
604 0 m 1,0,-1
 453 294 l 1,1,2
 589 338 589 338 589 488 c 0,3,4
 589 585 589 585 535 641.5 c 128,-1,5
 481 698 481 698 387 698 c 2,6,-1
 86 698 l 1,7,-1
 86 0 l 1,8,-1
 199 0 l 1,9,-1
 199 282 l 1,10,-1
 338 282 l 1,11,-1
 478 0 l 1,12,-1
 604 0 l 1,0,-1
379 377 m 2,13,-1
 199 377 l 1,14,-1
 199 599 l 1,15,-1
 379 599 l 2,16,17
 422 599 422 599 446 576.5 c 128,-1,18
 470 554 470 554 470 512 c 2,19,-1
 470 464 l 2,20,21
 470 380 470 380 379 377 c 2,13,-1
EndSplineSet
EndChar

StartChar: S
Encoding: 83 83 52
Width: 598
GlyphClass: 1
Flags: W
LayerCount: 2
Fore
SplineSet
295 -12 m 0,0,1
 415 -12 415 -12 481.5 48 c 128,-1,2
 548 108 548 108 548 205 c 0,3,4
 548 289 548 289 499.5 337 c 128,-1,5
 451 385 451 385 346 405 c 2,6,-1
 284 418 l 2,7,8
 227 428 227 428 200 450 c 128,-1,9
 173 472 173 472 173 516 c 0,10,11
 173 608 173 608 299 610 c 0,12,13
 405 610 405 610 462 533 c 1,14,-1
 541 603 l 1,15,16
 457 710 457 710 305 710 c 0,17,18
 187 710 187 710 124 653.5 c 128,-1,19
 61 597 61 597 61 510 c 0,20,21
 61 426 61 426 112 377.5 c 128,-1,22
 163 329 163 329 265 311 c 2,23,-1
 327 300 l 2,24,25
 387 288 387 288 411.5 264 c 128,-1,26
 436 240 436 240 436 199 c 0,27,28
 436 148 436 148 402 118 c 128,-1,29
 368 88 368 88 301 88 c 0,30,31
 192 88 192 88 118 179 c 1,32,-1
 40 106 l 1,33,34
 134 -12 134 -12 295 -12 c 0,0,1
EndSplineSet
EndChar

StartChar: T
Encoding: 84 84 53
Width: 577
Flags: W
LayerCount: 2
Fore
SplineSet
345 0 m 1,0,-1
 345 598 l 1,1,-1
 553 598 l 1,2,-1
 553 698 l 1,3,-1
 24 698 l 1,4,-1
 24 598 l 1,5,-1
 232 598 l 1,6,-1
 232 0 l 1,7,-1
 345 0 l 1,0,-1
EndSplineSet
EndChar

StartChar: U
Encoding: 85 85 54
Width: 686
Flags: W
LayerCount: 2
Fore
SplineSet
343 -12 m 256,0,1
 486 -12 486 -12 545 60.5 c 128,-1,2
 604 133 604 133 604 286 c 2,3,-1
 604 698 l 1,4,-1
 493 698 l 1,5,-1
 493 268 l 2,6,7
 493 179 493 179 459 134 c 128,-1,8
 425 89 425 89 343 89 c 256,9,10
 261 89 261 89 227 134 c 128,-1,11
 193 179 193 179 193 268 c 2,12,-1
 193 698 l 1,13,-1
 82 698 l 1,14,-1
 82 286 l 2,15,16
 82 133 82 133 141 60.5 c 128,-1,17
 200 -12 200 -12 343 -12 c 256,0,1
EndSplineSet
EndChar

StartChar: V
Encoding: 86 86 55
Width: 628
Flags: W
LayerCount: 2
Fore
SplineSet
378 0 m 1,0,-1
 610 698 l 1,1,-1
 496 698 l 1,2,-1
 385 353 l 1,3,-1
 317 110 l 1,4,-1
 313 110 l 1,5,-1
 246 353 l 1,6,-1
 135 698 l 1,7,-1
 18 698 l 1,8,-1
 247 0 l 1,9,-1
 378 0 l 1,0,-1
EndSplineSet
EndChar

StartChar: W
Encoding: 87 87 56
Width: 926
Flags: W
LayerCount: 2
Fore
SplineSet
730 0 m 1,0,-1
 902 698 l 1,1,-1
 791 698 l 1,2,-1
 667 131 l 1,3,-1
 664 131 l 1,4,-1
 579 487 l 1,5,-1
 527 698 l 1,6,-1
 401 698 l 1,7,-1
 316 352 l 1,8,-1
 262 130 l 1,9,-1
 259 130 l 1,10,-1
 139 698 l 1,11,-1
 24 698 l 1,12,-1
 189 0 l 1,13,-1
 316 0 l 1,14,-1
 460 573 l 1,15,-1
 462 573 l 1,16,-1
 603 0 l 1,17,-1
 730 0 l 1,0,-1
EndSplineSet
EndChar

StartChar: X
Encoding: 88 88 57
Width: 639
Flags: W
LayerCount: 2
Fore
SplineSet
618 0 m 1,0,-1
 389 358 l 1,1,-1
 609 698 l 1,2,-1
 484 698 l 1,3,-1
 323 438 l 1,4,-1
 321 438 l 1,5,-1
 162 698 l 1,6,-1
 29 698 l 1,7,-1
 247 357 l 1,8,-1
 21 0 l 1,9,-1
 146 0 l 1,10,-1
 313 278 l 1,11,-1
 316 278 l 1,12,-1
 485 0 l 1,13,-1
 618 0 l 1,0,-1
EndSplineSet
EndChar

StartChar: Y
Encoding: 89 89 58
Width: 617
Flags: W
LayerCount: 2
Fore
SplineSet
364 0 m 1,0,-1
 364 277 l 1,1,-1
 606 698 l 1,2,-1
 482 698 l 1,3,-1
 313 387 l 1,4,-1
 310 387 l 1,5,-1
 140 698 l 1,6,-1
 11 698 l 1,7,-1
 251 275 l 1,8,-1
 251 0 l 1,9,-1
 364 0 l 1,0,-1
EndSplineSet
EndChar

StartChar: Z
Encoding: 90 90 59
Width: 591
Flags: W
LayerCount: 2
Fore
SplineSet
554 0 m 1,0,-1
 554 100 l 1,1,-1
 164 100 l 1,2,-1
 543 597 l 1,3,-1
 543 698 l 1,4,-1
 57 698 l 1,5,-1
 57 598 l 1,6,-1
 416 598 l 1,7,-1
 37 101 l 1,8,-1
 37 0 l 1,9,-1
 554 0 l 1,0,-1
EndSplineSet
EndChar

StartChar: bracketleft
Encoding: 91 91 60
Width: 325
Flags: W
LayerCount: 2
Fore
SplineSet
269 -138 m 1,0,-1
 269 -57 l 1,1,-1
 184 -57 l 1,2,-1
 184 679 l 1,3,-1
 269 679 l 1,4,-1
 269 760 l 1,5,-1
 86 760 l 1,6,-1
 86 -138 l 1,7,-1
 269 -138 l 1,0,-1
EndSplineSet
EndChar

StartChar: backslash
Encoding: 92 92 61
Width: 417
Flags: W
LayerCount: 2
Fore
SplineSet
410 -151 m 1,0,-1
 133 740 l 1,1,-1
 39 740 l 1,2,-1
 316 -151 l 1,3,-1
 410 -151 l 1,0,-1
EndSplineSet
EndChar

StartChar: bracketright
Encoding: 93 93 62
Width: 325
Flags: W
LayerCount: 2
Fore
SplineSet
239 -138 m 1,0,-1
 239 760 l 1,1,-1
 56 760 l 1,2,-1
 56 679 l 1,3,-1
 141 679 l 1,4,-1
 141 -57 l 1,5,-1
 56 -57 l 1,6,-1
 56 -138 l 1,7,-1
 239 -138 l 1,0,-1
EndSplineSet
EndChar

StartChar: asciicircum
Encoding: 94 94 63
Width: 600
Flags: W
LayerCount: 2
Fore
SplineSet
467 288 m 1,0,-1
 553 331 l 1,1,-1
 350 698 l 1,2,-1
 250 698 l 1,3,-1
 47 331 l 1,4,-1
 129 288 l 1,5,-1
 295 587 l 1,6,-1
 300 587 l 1,7,-1
 467 288 l 1,0,-1
EndSplineSet
EndChar

StartChar: underscore
Encoding: 95 95 64
Width: 561
Flags: W
LayerCount: 2
Fore
SplineSet
531 -176 m 1,0,-1
 531 -82 l 1,1,-1
 30 -82 l 1,2,-1
 30 -176 l 1,3,-1
 531 -176 l 1,0,-1
EndSplineSet
EndChar

StartChar: grave
Encoding: 96 96 65
Width: 600
Flags: W
LayerCount: 2
Fore
SplineSet
289 582 m 1,0,-1
 357 615 l 1,1,-1
 266 795 l 1,2,-1
 171 749 l 1,3,-1
 289 582 l 1,0,-1
EndSplineSet
EndChar

StartChar: a
Encoding: 97 97 66
Width: 538
Flags: W
LayerCount: 2
Fore
SplineSet
208 -12 m 0,0,1
 127 -12 127 -12 83.5 30 c 128,-1,2
 40 72 40 72 40 143 c 0,3,4
 40 299 40 299 262 299 c 2,5,-1
 356 299 l 1,6,-1
 356 343 l 2,7,8
 356 443 356 443 249 443 c 0,9,10
 203 443 203 443 174 423 c 128,-1,11
 145 403 145 403 125 372 c 1,12,-1
 60 431 l 1,13,14
 118 532 118 532 256 532 c 0,15,16
 357 532 357 532 411 485 c 128,-1,17
 465 438 465 438 465 350 c 2,18,-1
 465 0 l 1,19,-1
 365 0 l 1,20,-1
 365 87 l 1,21,-1
 360 87 l 1,22,23
 345 38 345 38 305 13 c 128,-1,24
 265 -12 265 -12 208 -12 c 0,0,1
239 71 m 0,25,26
 290 71 290 71 323 93.5 c 128,-1,27
 356 116 356 116 356 154 c 2,28,-1
 356 229 l 1,29,-1
 264 229 l 2,30,31
 152 229 152 229 151 159 c 2,32,-1
 151 141 l 2,33,34
 151 71 151 71 239 71 c 0,25,26
EndSplineSet
EndChar

StartChar: b
Encoding: 98 98 67
Width: 592
Flags: W
LayerCount: 2
Fore
SplineSet
338 -12 m 0,0,1
 437 -12 437 -12 491 59.5 c 128,-1,2
 545 131 545 131 545 260 c 256,3,4
 545 389 545 389 491 460.5 c 128,-1,5
 437 532 437 532 338 532 c 0,6,7
 286 532 286 532 248 506.5 c 128,-1,8
 210 481 210 481 192 434 c 1,9,-1
 187 434 l 1,10,-1
 187 740 l 1,11,-1
 78 740 l 1,12,-1
 78 0 l 1,13,-1
 187 0 l 1,14,-1
 187 86 l 1,15,-1
 192 86 l 1,16,17
 235 -12 235 -12 338 -12 c 0,0,1
305 82 m 0,18,19
 255 82 255 82 221 106.5 c 128,-1,20
 187 131 187 131 187 171 c 2,21,-1
 187 349 l 2,22,23
 187 389 187 389 221 413.5 c 128,-1,24
 255 438 255 438 305 438 c 0,25,26
 362 438 362 438 396 401.5 c 128,-1,27
 430 365 430 365 430 305 c 2,28,-1
 430 215 l 2,29,30
 430 155 430 155 396 118.5 c 128,-1,31
 362 82 362 82 305 82 c 0,18,19
EndSplineSet
EndChar

StartChar: c
Encoding: 99 99 68
Width: 510
Flags: W
LayerCount: 2
Fore
SplineSet
279 -12 m 0,0,1
 429 -12 429 -12 484 120 c 1,2,-1
 401 164 l 1,3,4
 384 125 384 125 355.5 101.5 c 128,-1,5
 327 78 327 78 279 78 c 0,6,7
 219 78 219 78 188.5 115.5 c 128,-1,8
 158 153 158 153 158 213 c 2,9,-1
 158 306 l 2,10,11
 158 366 158 366 188.5 403.5 c 128,-1,12
 219 441 219 441 279 441 c 0,13,14
 366 441 366 441 390 362 c 1,15,-1
 480 404 l 1,16,17
 457 463 457 463 407 497.5 c 128,-1,18
 357 532 357 532 279 532 c 256,19,20
 201 532 201 532 148.5 497 c 128,-1,21
 96 462 96 462 69.5 401 c 128,-1,22
 43 340 43 340 43 260 c 0,23,24
 43 129 43 129 107.5 58.5 c 128,-1,25
 172 -12 172 -12 279 -12 c 0,0,1
EndSplineSet
EndChar

StartChar: d
Encoding: 100 100 69
Width: 592
Flags: W
LayerCount: 2
Fore
SplineSet
254 -12 m 0,0,1
 358 -12 358 -12 400 86 c 1,2,-1
 405 86 l 1,3,-1
 405 0 l 1,4,-1
 514 0 l 1,5,-1
 514 740 l 1,6,-1
 405 740 l 1,7,-1
 405 434 l 1,8,-1
 400 434 l 1,9,10
 382 481 382 481 344 506.5 c 128,-1,11
 306 532 306 532 254 532 c 0,12,13
 155 532 155 532 101 460.5 c 128,-1,14
 47 389 47 389 47 260 c 256,15,16
 47 131 47 131 101 59.5 c 128,-1,17
 155 -12 155 -12 254 -12 c 0,0,1
287 82 m 0,18,19
 230 82 230 82 196 118.5 c 128,-1,20
 162 155 162 155 162 215 c 2,21,-1
 162 305 l 2,22,23
 162 365 162 365 196 401.5 c 128,-1,24
 230 438 230 438 287 438 c 0,25,26
 337 438 337 438 371 413.5 c 128,-1,27
 405 389 405 389 405 349 c 2,28,-1
 405 171 l 2,29,30
 405 131 405 131 371 106.5 c 128,-1,31
 337 82 337 82 287 82 c 0,18,19
EndSplineSet
EndChar

StartChar: e
Encoding: 101 101 70
Width: 556
Flags: W
LayerCount: 2
Fore
SplineSet
282 -12 m 0,0,1
 355 -12 355 -12 409.5 16 c 128,-1,2
 464 44 464 44 494 93 c 1,3,-1
 430 156 l 1,4,5
 381 78 381 78 293 78 c 0,6,7
 227 78 227 78 191.5 116.5 c 128,-1,8
 156 155 156 155 156 215 c 2,9,-1
 156 232 l 1,10,-1
 513 232 l 1,11,-1
 513 273 l 2,12,13
 513 341 513 341 488.5 400 c 128,-1,14
 464 459 464 459 413 495.5 c 128,-1,15
 362 532 362 532 282 532 c 0,16,17
 166 532 166 532 104.5 455.5 c 128,-1,18
 43 379 43 379 43 260 c 0,19,20
 43 133 43 133 108 60.5 c 128,-1,21
 173 -12 173 -12 282 -12 c 0,0,1
398 304 m 1,22,-1
 156 304 l 1,23,24
 156 371 156 371 191.5 409 c 128,-1,25
 227 447 227 447 282 447 c 0,26,27
 336 447 336 447 367 410.5 c 128,-1,28
 398 374 398 374 398 314 c 2,29,-1
 398 304 l 1,22,-1
EndSplineSet
EndChar

StartChar: f
Encoding: 102 102 71
Width: 340
Flags: W
LayerCount: 2
Fore
SplineSet
214 0 m 1,0,-1
 214 431 l 1,1,-1
 323 431 l 1,2,-1
 323 520 l 1,3,-1
 214 520 l 1,4,-1
 214 651 l 1,5,-1
 323 651 l 1,6,-1
 323 740 l 1,7,-1
 237 740 l 2,8,9
 171 740 171 740 138 704.5 c 128,-1,10
 105 669 105 669 105 606 c 2,11,-1
 105 520 l 1,12,-1
 26 520 l 1,13,-1
 26 431 l 1,14,-1
 105 431 l 1,15,-1
 105 0 l 1,16,-1
 214 0 l 1,0,-1
EndSplineSet
EndChar

StartChar: g
Encoding: 103 103 72
Width: 543
Flags: W
LayerCount: 2
Fore
SplineSet
270 -212 m 0,0,1
 145 -212 145 -212 89.5 -179.5 c 128,-1,2
 34 -147 34 -147 34 -87 c 0,3,4
 34 -5 34 -5 123 13 c 1,5,-1
 123 24 l 1,6,7
 64 43 64 43 64 104 c 0,8,9
 64 174 64 174 157 196 c 1,10,-1
 157 200 l 1,11,12
 61 245 61 245 61 354 c 0,13,14
 61 430 61 430 112.5 481 c 128,-1,15
 164 532 164 532 268 532 c 0,16,17
 316 532 316 532 355 520 c 1,18,-1
 522 520 l 1,19,-1
 522 441 l 1,20,-1
 449 441 l 1,21,22
 477 405 477 405 477 354 c 0,23,24
 477 279 477 279 425.5 228.5 c 128,-1,25
 374 178 374 178 269 178 c 0,26,27
 233 178 233 178 201 186 c 1,28,29
 151 170 151 170 151 134 c 0,30,31
 151 95 151 95 224 95 c 2,32,-1
 352 95 l 2,33,34
 534 95 534 95 534 -49 c 0,35,36
 534 -134 534 -134 468.5 -173 c 128,-1,37
 403 -212 403 -212 270 -212 c 0,0,1
269 257 m 0,38,39
 370 257 370 257 370 345 c 0,40,41
 370 377 370 377 365.5 397 c 128,-1,42
 361 417 361 417 344 432 c 0,43,44
 317 453 317 453 269 453 c 0,45,46
 168 453 168 453 168 365 c 0,47,48
 168 333 168 333 172.5 313 c 128,-1,49
 177 293 177 293 195 279 c 0,50,51
 221 257 221 257 269 257 c 0,38,39
305 -133 m 2,52,53
 432 -133 432 -133 432 -61 c 0,54,55
 432 -33 432 -33 410.5 -17.5 c 128,-1,56
 389 -2 389 -2 337 -2 c 2,57,-1
 161 -2 l 1,58,59
 125 -23 125 -23 125 -62 c 0,60,61
 125 -133 125 -133 237 -133 c 2,62,-1
 305 -133 l 2,52,53
EndSplineSet
EndChar

StartChar: h
Encoding: 104 104 73
Width: 580
Flags: W
LayerCount: 2
Fore
SplineSet
507 0 m 1,0,-1
 507 330 l 2,1,2
 507 427 507 427 462.5 479.5 c 128,-1,3
 418 532 418 532 338 532 c 0,4,5
 230 532 230 532 192 434 c 1,6,-1
 187 434 l 1,7,-1
 187 740 l 1,8,-1
 78 740 l 1,9,-1
 78 0 l 1,10,-1
 187 0 l 1,11,-1
 187 349 l 2,12,13
 187 394 187 394 222 416 c 128,-1,14
 257 438 257 438 300 438 c 0,15,16
 398 438 398 438 398 317 c 2,17,-1
 398 0 l 1,18,-1
 507 0 l 1,0,-1
EndSplineSet
EndChar

StartChar: i
Encoding: 105 105 74
Width: 265
Flags: W
LayerCount: 2
Fore
SplineSet
133 613 m 256,0,1
 167 613 167 613 182 629 c 128,-1,2
 197 645 197 645 197 670 c 2,3,-1
 197 687 l 2,4,5
 197 712 197 712 182 728 c 128,-1,6
 167 744 167 744 133 744 c 256,7,8
 99 744 99 744 83.5 728 c 128,-1,9
 68 712 68 712 68 687 c 2,10,-1
 68 670 l 2,11,12
 68 645 68 645 83.5 629 c 128,-1,13
 99 613 99 613 133 613 c 256,0,1
187 0 m 1,14,-1
 187 520 l 1,15,-1
 78 520 l 1,16,-1
 78 0 l 1,17,-1
 187 0 l 1,14,-1
EndSplineSet
EndChar

StartChar: j
Encoding: 106 106 75
Width: 265
Flags: W
LayerCount: 2
Fore
SplineSet
60 -200 m 2,0,1
 126 -200 126 -200 156.5 -165 c 128,-1,2
 187 -130 187 -130 187 -70 c 2,3,-1
 187 520 l 1,4,-1
 78 520 l 1,5,-1
 78 -111 l 1,6,-1
 -3 -111 l 1,7,-1
 -3 -200 l 1,8,-1
 60 -200 l 2,0,1
133 613 m 256,9,10
 167 613 167 613 182 629 c 128,-1,11
 197 645 197 645 197 670 c 2,12,-1
 197 687 l 2,13,14
 197 712 197 712 182 728 c 128,-1,15
 167 744 167 744 133 744 c 256,16,17
 99 744 99 744 83.5 728 c 128,-1,18
 68 712 68 712 68 687 c 2,19,-1
 68 670 l 2,20,21
 68 645 68 645 83.5 629 c 128,-1,22
 99 613 99 613 133 613 c 256,9,10
EndSplineSet
EndChar

StartChar: k
Encoding: 107 107 76
Width: 547
Flags: W
LayerCount: 2
Fore
SplineSet
538 0 m 1,0,-1
 334 319 l 1,1,-1
 516 520 l 1,2,-1
 389 520 l 1,3,-1
 264 379 l 1,4,-1
 192 286 l 1,5,-1
 187 286 l 1,6,-1
 187 740 l 1,7,-1
 78 740 l 1,8,-1
 78 0 l 1,9,-1
 187 0 l 1,10,-1
 187 170 l 1,11,-1
 259 248 l 1,12,-1
 408 0 l 1,13,-1
 538 0 l 1,0,-1
EndSplineSet
EndChar

StartChar: l
Encoding: 108 108 77
Width: 285
Flags: W
LayerCount: 2
Fore
SplineSet
259 0 m 1,0,-1
 259 89 l 1,1,-1
 187 89 l 1,2,-1
 187 740 l 1,3,-1
 78 740 l 1,4,-1
 78 108 l 2,5,6
 78 57 78 57 105.5 28.5 c 128,-1,7
 133 0 133 0 189 0 c 2,8,-1
 259 0 l 1,0,-1
EndSplineSet
EndChar

StartChar: m
Encoding: 109 109 78
Width: 882
Flags: W
LayerCount: 2
Fore
SplineSet
809 0 m 1,0,-1
 809 330 l 2,1,2
 809 427 809 427 766 479.5 c 128,-1,3
 723 532 723 532 645 532 c 0,4,5
 582 532 582 532 542 501.5 c 128,-1,6
 502 471 502 471 488 426 c 1,7,-1
 485 426 l 1,8,9
 466 480 466 480 425 506 c 128,-1,10
 384 532 384 532 331 532 c 0,11,12
 270 532 270 532 239 504 c 128,-1,13
 208 476 208 476 192 434 c 1,14,-1
 187 434 l 1,15,-1
 187 520 l 1,16,-1
 78 520 l 1,17,-1
 78 0 l 1,18,-1
 187 0 l 1,19,-1
 187 349 l 2,20,21
 187 393 187 393 219.5 415.5 c 128,-1,22
 252 438 252 438 294 438 c 0,23,24
 389 438 389 438 389 317 c 2,25,-1
 389 0 l 1,26,-1
 498 0 l 1,27,-1
 498 349 l 2,28,29
 498 394 498 394 530.5 416 c 128,-1,30
 563 438 563 438 604 438 c 0,31,32
 654 438 654 438 677 407.5 c 128,-1,33
 700 377 700 377 700 317 c 2,34,-1
 700 0 l 1,35,-1
 809 0 l 1,0,-1
EndSplineSet
EndChar

StartChar: n
Encoding: 110 110 79
Width: 580
Flags: W
LayerCount: 2
Fore
SplineSet
507 0 m 1,0,-1
 507 330 l 2,1,2
 507 427 507 427 462.5 479.5 c 128,-1,3
 418 532 418 532 338 532 c 0,4,5
 230 532 230 532 192 434 c 1,6,-1
 187 434 l 1,7,-1
 187 520 l 1,8,-1
 78 520 l 1,9,-1
 78 0 l 1,10,-1
 187 0 l 1,11,-1
 187 348 l 2,12,13
 187 395 187 395 222.5 416.5 c 128,-1,14
 258 438 258 438 300 438 c 0,15,16
 398 438 398 438 398 316 c 2,17,-1
 398 0 l 1,18,-1
 507 0 l 1,0,-1
EndSplineSet
EndChar

StartChar: o
Encoding: 111 111 80
Width: 564
Flags: W
LayerCount: 2
Fore
SplineSet
282 -12 m 256,0,1
 394 -12 394 -12 457.5 64 c 128,-1,2
 521 140 521 140 521 260 c 0,3,4
 521 388 521 388 454.5 460 c 128,-1,5
 388 532 388 532 282 532 c 256,6,7
 176 532 176 532 109.5 460 c 128,-1,8
 43 388 43 388 43 260 c 0,9,10
 43 140 43 140 106.5 64 c 128,-1,11
 170 -12 170 -12 282 -12 c 256,0,1
282 78 m 256,12,13
 226 78 226 78 192 112.5 c 128,-1,14
 158 147 158 147 158 216 c 2,15,-1
 158 304 l 2,16,17
 158 373 158 373 192 407.5 c 128,-1,18
 226 442 226 442 282 442 c 256,19,20
 338 442 338 442 372 407.5 c 128,-1,21
 406 373 406 373 406 304 c 2,22,-1
 406 216 l 2,23,24
 406 147 406 147 372 112.5 c 128,-1,25
 338 78 338 78 282 78 c 256,12,13
EndSplineSet
EndChar

StartChar: p
Encoding: 112 112 81
Width: 592
Flags: W
LayerCount: 2
Fore
SplineSet
187 -200 m 1,0,-1
 187 86 l 1,1,-1
 192 86 l 1,2,3
 235 -12 235 -12 338 -12 c 0,4,5
 437 -12 437 -12 491 59.5 c 128,-1,6
 545 131 545 131 545 260 c 256,7,8
 545 389 545 389 491 460.5 c 128,-1,9
 437 532 437 532 338 532 c 0,10,11
 286 532 286 532 248 506.5 c 128,-1,12
 210 481 210 481 192 434 c 1,13,-1
 187 434 l 1,14,-1
 187 520 l 1,15,-1
 78 520 l 1,16,-1
 78 -200 l 1,17,-1
 187 -200 l 1,0,-1
305 82 m 0,18,19
 255 82 255 82 221 106.5 c 128,-1,20
 187 131 187 131 187 171 c 2,21,-1
 187 349 l 2,22,23
 187 389 187 389 221 413.5 c 128,-1,24
 255 438 255 438 305 438 c 0,25,26
 362 438 362 438 396 401.5 c 128,-1,27
 430 365 430 365 430 305 c 2,28,-1
 430 215 l 2,29,30
 430 155 430 155 396 118.5 c 128,-1,31
 362 82 362 82 305 82 c 0,18,19
EndSplineSet
EndChar

StartChar: q
Encoding: 113 113 82
Width: 592
Flags: W
LayerCount: 2
Fore
SplineSet
514 -200 m 1,0,-1
 514 520 l 1,1,-1
 405 520 l 1,2,-1
 405 434 l 1,3,-1
 400 434 l 1,4,5
 382 481 382 481 344 506.5 c 128,-1,6
 306 532 306 532 254 532 c 0,7,8
 155 532 155 532 101 460.5 c 128,-1,9
 47 389 47 389 47 260 c 256,10,11
 47 131 47 131 101 59.5 c 128,-1,12
 155 -12 155 -12 254 -12 c 0,13,14
 358 -12 358 -12 400 86 c 1,15,-1
 405 86 l 1,16,-1
 405 -200 l 1,17,-1
 514 -200 l 1,0,-1
287 82 m 0,18,19
 230 82 230 82 196 118.5 c 128,-1,20
 162 155 162 155 162 215 c 2,21,-1
 162 305 l 2,22,23
 162 365 162 365 196 401.5 c 128,-1,24
 230 438 230 438 287 438 c 0,25,26
 337 438 337 438 371 413.5 c 128,-1,27
 405 389 405 389 405 349 c 2,28,-1
 405 171 l 2,29,30
 405 131 405 131 371 106.5 c 128,-1,31
 337 82 337 82 287 82 c 0,18,19
EndSplineSet
EndChar

StartChar: r
Encoding: 114 114 83
Width: 383
Flags: W
LayerCount: 2
Fore
SplineSet
187 0 m 1,0,-1
 187 332 l 2,1,2
 187 415 187 415 321 415 c 2,3,-1
 364 415 l 1,4,-1
 364 520 l 1,5,-1
 335 520 l 2,6,7
 273 520 273 520 238 490.5 c 128,-1,8
 203 461 203 461 192 420 c 1,9,-1
 187 420 l 1,10,-1
 187 520 l 1,11,-1
 78 520 l 1,12,-1
 78 0 l 1,13,-1
 187 0 l 1,0,-1
EndSplineSet
EndChar

StartChar: s
Encoding: 115 115 84
Width: 494
Flags: W
LayerCount: 2
Fore
SplineSet
243 -12 m 0,0,1
 336 -12 336 -12 392.5 33.5 c 128,-1,2
 449 79 449 79 449 155 c 0,3,4
 449 218 449 218 409.5 255.5 c 128,-1,5
 370 293 370 293 284 306 c 2,6,-1
 236 312 l 2,7,8
 194 318 194 318 175 333.5 c 128,-1,9
 156 349 156 349 156 379 c 0,10,11
 156 408 156 408 177.5 426 c 128,-1,12
 199 444 199 444 244 444 c 0,13,14
 286 444 286 444 318.5 427 c 128,-1,15
 351 410 351 410 371 385 c 1,16,-1
 438 449 l 1,17,18
 404 488 404 488 359 510 c 128,-1,19
 314 532 314 532 244 532 c 0,20,21
 156 532 156 532 103.5 489 c 128,-1,22
 51 446 51 446 51 372 c 0,23,24
 51 236 51 236 222 217 c 2,25,-1
 270 211 l 2,26,27
 344 201 344 201 344 146 c 0,28,29
 344 113 344 113 320.5 94.5 c 128,-1,30
 297 76 297 76 249 76 c 0,31,32
 202 76 202 76 166.5 95.5 c 128,-1,33
 131 115 131 115 102 150 c 1,34,-1
 32 86 l 1,35,36
 68 40 68 40 118.5 14 c 128,-1,37
 169 -12 169 -12 243 -12 c 0,0,1
EndSplineSet
EndChar

StartChar: t
Encoding: 116 116 85
Width: 365
Flags: W
LayerCount: 2
Fore
SplineSet
317 0 m 1,0,-1
 317 89 l 1,1,-1
 216 89 l 1,2,-1
 216 431 l 1,3,-1
 325 431 l 1,4,-1
 325 520 l 1,5,-1
 216 520 l 1,6,-1
 216 662 l 1,7,-1
 118 662 l 1,8,-1
 118 571 l 2,9,10
 118 520 118 520 75 520 c 2,11,-1
 26 520 l 1,12,-1
 26 431 l 1,13,-1
 107 431 l 1,14,-1
 107 113 l 2,15,16
 107 59 107 59 136 29.5 c 128,-1,17
 165 0 165 0 222 0 c 2,18,-1
 317 0 l 1,0,-1
EndSplineSet
EndChar

StartChar: u
Encoding: 117 117 86
Width: 580
Flags: W
LayerCount: 2
Fore
SplineSet
243 -12 m 0,0,1
 357 -12 357 -12 389 86 c 1,2,-1
 393 86 l 1,3,-1
 393 0 l 1,4,-1
 502 0 l 1,5,-1
 502 520 l 1,6,-1
 393 520 l 1,7,-1
 393 172 l 2,8,9
 393 126 393 126 358.5 104 c 128,-1,10
 324 82 324 82 282 82 c 0,11,12
 182 82 182 82 182 203 c 2,13,-1
 182 520 l 1,14,-1
 73 520 l 1,15,-1
 73 189 l 2,16,17
 73 92 73 92 117.5 40 c 128,-1,18
 162 -12 162 -12 243 -12 c 0,0,1
EndSplineSet
EndChar

StartChar: v
Encoding: 118 118 87
Width: 512
Flags: W
LayerCount: 2
Fore
SplineSet
319 0 m 1,0,-1
 498 520 l 1,1,-1
 394 520 l 1,2,-1
 346 380 l 2,3,4
 322 311 322 311 308 265 c 2,5,-1
 260 101 l 1,6,-1
 254 101 l 1,7,-1
 206 265 l 2,8,9
 192 311 192 311 169 380 c 2,10,-1
 122 520 l 1,11,-1
 14 520 l 1,12,-1
 191 0 l 1,13,-1
 319 0 l 1,0,-1
EndSplineSet
EndChar

StartChar: w
Encoding: 119 119 88
Width: 799
Flags: W
LayerCount: 2
Fore
SplineSet
633 0 m 1,0,-1
 773 520 l 1,1,-1
 672 520 l 1,2,-1
 640 392 l 2,3,4
 619 307 619 307 597 211 c 2,5,-1
 572 105 l 1,6,-1
 569 105 l 1,7,-1
 538 216 l 2,8,9
 511 314 511 314 490 383 c 2,10,-1
 450 520 l 1,11,-1
 352 520 l 1,12,-1
 312 383 l 1,13,-1
 265 216 l 1,14,-1
 235 105 l 1,15,-1
 232 105 l 1,16,-1
 132 520 l 1,17,-1
 26 520 l 1,18,-1
 168 0 l 1,19,-1
 288 0 l 1,20,21
 354 226 354 226 360.5 249 c 128,-1,22
 367 272 367 272 398 383 c 1,23,-1
 400 383 l 1,24,-1
 510 0 l 1,25,-1
 633 0 l 1,0,-1
EndSplineSet
EndChar

StartChar: x
Encoding: 120 120 89
Width: 530
Flags: W
LayerCount: 2
Fore
SplineSet
510 0 m 1,0,-1
 329 264 l 1,1,-1
 507 520 l 1,2,-1
 391 520 l 1,3,-1
 271 339 l 1,4,-1
 268 339 l 1,5,-1
 151 520 l 1,6,-1
 25 520 l 1,7,-1
 203 263 l 1,8,-1
 20 0 l 1,9,-1
 136 0 l 1,10,-1
 261 189 l 1,11,-1
 264 189 l 1,12,-1
 384 0 l 1,13,-1
 510 0 l 1,0,-1
EndSplineSet
EndChar

StartChar: y
Encoding: 121 121 90
Width: 514
Flags: W
LayerCount: 2
Fore
SplineSet
146 -200 m 2,0,1
 203 -200 203 -200 234 -178.5 c 128,-1,2
 265 -157 265 -157 283 -103 c 2,3,-1
 502 520 l 1,4,-1
 397 520 l 1,5,-1
 293 214 l 1,6,-1
 260 101 l 1,7,-1
 255 101 l 1,8,-1
 225 214 l 1,9,-1
 121 520 l 1,10,-1
 12 520 l 1,11,-1
 201 -23 l 1,12,-1
 171 -111 l 1,13,-1
 83 -111 l 1,14,-1
 83 -200 l 1,15,-1
 146 -200 l 2,0,1
EndSplineSet
EndChar

StartChar: z
Encoding: 122 122 91
Width: 487
Flags: W
LayerCount: 2
Fore
SplineSet
451 0 m 1,0,-1
 451 89 l 1,1,-1
 161 89 l 1,2,-1
 444 436 l 1,3,-1
 444 520 l 1,4,-1
 45 520 l 1,5,-1
 45 431 l 1,6,-1
 315 431 l 1,7,-1
 36 88 l 1,8,-1
 36 0 l 1,9,-1
 451 0 l 1,0,-1
EndSplineSet
EndChar

StartChar: braceleft
Encoding: 123 123 92
Width: 354
Flags: W
LayerCount: 2
Fore
SplineSet
298 -138 m 1,0,-1
 298 -57 l 1,1,-1
 215 -57 l 1,2,-1
 215 178 l 2,3,4
 215 227 215 227 187 262.5 c 128,-1,5
 159 298 159 298 116 306 c 1,6,-1
 116 316 l 1,7,8
 159 325 159 325 187 361 c 128,-1,9
 215 397 215 397 215 444 c 2,10,-1
 215 679 l 1,11,-1
 298 679 l 1,12,-1
 298 760 l 1,13,-1
 204 760 l 2,14,15
 164 760 164 760 140.5 735.5 c 128,-1,16
 117 711 117 711 117 670 c 2,17,-1
 117 446 l 2,18,19
 117 403 117 403 89.5 380.5 c 128,-1,20
 62 358 62 358 20 358 c 1,21,-1
 20 265 l 1,22,23
 62 265 62 265 89.5 242.5 c 128,-1,24
 117 220 117 220 117 176 c 2,25,-1
 117 -48 l 2,26,27
 117 -89 117 -89 140.5 -113.5 c 128,-1,28
 164 -138 164 -138 204 -138 c 2,29,-1
 298 -138 l 1,0,-1
EndSplineSet
EndChar

StartChar: bar
Encoding: 124 124 93
Width: 353
Flags: W
LayerCount: 2
Fore
SplineSet
223 -138 m 1,0,-1
 223 760 l 1,1,-1
 130 760 l 1,2,-1
 130 -138 l 1,3,-1
 223 -138 l 1,0,-1
EndSplineSet
EndChar

StartChar: braceright
Encoding: 125 125 94
Width: 356
Flags: W
LayerCount: 2
Fore
SplineSet
150 -138 m 2,0,1
 190 -138 190 -138 214.5 -113.5 c 128,-1,2
 239 -89 239 -89 239 -48 c 2,3,-1
 239 176 l 2,4,5
 239 220 239 220 266.5 242.5 c 128,-1,6
 294 265 294 265 336 265 c 1,7,-1
 336 358 l 1,8,9
 294 358 294 358 266.5 380.5 c 128,-1,10
 239 403 239 403 239 446 c 2,11,-1
 239 670 l 2,12,13
 239 711 239 711 214.5 735.5 c 128,-1,14
 190 760 190 760 150 760 c 2,15,-1
 56 760 l 1,16,-1
 56 679 l 1,17,-1
 141 679 l 1,18,-1
 141 444 l 2,19,20
 141 398 141 398 168.5 361.5 c 128,-1,21
 196 325 196 325 240 316 c 1,22,-1
 240 306 l 1,23,24
 196 297 196 297 168.5 260.5 c 128,-1,25
 141 224 141 224 141 178 c 2,26,-1
 141 -57 l 1,27,-1
 56 -57 l 1,28,-1
 56 -138 l 1,29,-1
 150 -138 l 2,0,1
EndSplineSet
EndChar

StartChar: asciitilde
Encoding: 126 126 95
Width: 600
Flags: W
LayerCount: 2
Fore
SplineSet
418 226 m 0,0,1
 502 226 502 226 542 284 c 1,2,-1
 503 345 l 1,3,4
 481 329 481 329 463 322 c 128,-1,5
 445 315 445 315 422 315 c 0,6,7
 391 315 391 315 364 324.5 c 128,-1,8
 337 334 337 334 310 349 c 0,9,10
 277 366 277 366 248 375.5 c 128,-1,11
 219 385 219 385 182 385 c 0,12,13
 98 385 98 385 58 327 c 1,14,-1
 97 266 l 1,15,16
 120 282 120 282 137.5 289 c 128,-1,17
 155 296 155 296 178 296 c 0,18,19
 209 296 209 296 236 286.5 c 128,-1,20
 263 277 263 277 290 262 c 0,21,22
 323 245 323 245 352 235.5 c 128,-1,23
 381 226 381 226 418 226 c 0,0,1
EndSplineSet
EndChar

StartChar: exclamdown
Encoding: 161 161 97
Width: 298
Flags: W
LayerCount: 2
Fore
SplineSet
209 -178 m 1,0,-1
 209 21 l 1,1,-1
 174 320 l 1,2,-1
 124 320 l 1,3,-1
 91 21 l 1,4,-1
 91 -178 l 1,5,-1
 209 -178 l 1,0,-1
149 383 m 256,6,7
 187 383 187 383 204.5 401.5 c 128,-1,8
 222 420 222 420 222 449 c 2,9,-1
 222 466 l 2,10,11
 222 495 222 495 204.5 513.5 c 128,-1,12
 187 532 187 532 149 532 c 256,13,14
 111 532 111 532 93.5 513.5 c 128,-1,15
 76 495 76 495 76 466 c 2,16,-1
 76 449 l 2,17,18
 76 420 76 420 93.5 401.5 c 128,-1,19
 111 383 111 383 149 383 c 256,6,7
EndSplineSet
EndChar

StartChar: cent
Encoding: 162 162 98
Width: 529
Flags: W
LayerCount: 2
Fore
SplineSet
322 -114 m 1,0,-1
 322 -10 l 1,1,2
 448 9 448 9 492 111 c 1,3,-1
 414 159 l 1,4,5
 384 93 384 93 317 79 c 1,6,-1
 317 437 l 1,7,8
 379 422 379 422 403 361 c 1,9,-1
 485 406 l 1,10,11
 445 506 445 506 322 526 c 1,12,-1
 322 630 l 1,13,-1
 235 630 l 1,14,-1
 235 524 l 1,15,16
 144 509 144 509 94 439.5 c 128,-1,17
 44 370 44 370 44 258 c 0,18,19
 44 147 44 147 94 77.5 c 128,-1,20
 144 8 144 8 235 -8 c 1,21,-1
 235 -114 l 1,22,-1
 322 -114 l 1,0,-1
240 81 m 1,23,24
 196 94 196 94 174.5 129.5 c 128,-1,25
 153 165 153 165 153 215 c 2,26,-1
 153 301 l 2,27,28
 153 352 153 352 175 387.5 c 128,-1,29
 197 423 197 423 240 435 c 1,30,-1
 240 81 l 1,23,24
EndSplineSet
EndChar

StartChar: sterling
Encoding: 163 163 99
Width: 589
Flags: W
LayerCount: 2
Fore
SplineSet
537 0 m 1,0,-1
 537 98 l 1,1,-1
 186 98 l 1,2,-1
 186 104 l 1,3,4
 216 122 216 122 239 160 c 128,-1,5
 262 198 262 198 262 253 c 0,6,7
 262 271 262 271 259 288 c 1,8,-1
 437 288 l 1,9,-1
 437 379 l 1,10,-1
 229 379 l 1,11,12
 220 407 220 407 213.5 432.5 c 128,-1,13
 207 458 207 458 207 487 c 0,14,15
 207 612 207 612 331 612 c 0,16,17
 378 612 378 612 411.5 592 c 128,-1,18
 445 572 445 572 471 534 c 1,19,-1
 554 593 l 1,20,21
 481 710 481 710 331 710 c 0,22,23
 252 710 252 710 199 682 c 128,-1,24
 146 654 146 654 119 607 c 128,-1,25
 92 560 92 560 92 502 c 0,26,27
 92 470 92 470 99 443 c 0,28,29
 107 411 107 411 117 379 c 1,30,-1
 49 379 l 1,31,-1
 49 288 l 1,32,-1
 148 288 l 1,33,34
 152 269 152 269 152 246 c 0,35,36
 152 204 152 204 134 169 c 128,-1,37
 116 134 116 134 75 115 c 1,38,-1
 75 0 l 1,39,-1
 537 0 l 1,0,-1
EndSplineSet
EndChar

StartChar: yen
Encoding: 165 165 100
Width: 622
Flags: W
LayerCount: 2
Fore
SplineSet
368 0 m 1,0,-1
 368 140 l 1,1,-1
 540 140 l 1,2,-1
 540 217 l 1,3,-1
 368 217 l 1,4,-1
 368 301 l 1,5,-1
 540 301 l 1,6,-1
 540 378 l 1,7,-1
 416 378 l 1,8,-1
 595 698 l 1,9,-1
 473 698 l 1,10,-1
 319 400 l 1,11,-1
 315 400 l 1,12,-1
 156 698 l 1,13,-1
 28 698 l 1,14,-1
 208 378 l 1,15,-1
 83 378 l 1,16,-1
 83 301 l 1,17,-1
 255 301 l 1,18,-1
 255 217 l 1,19,-1
 83 217 l 1,20,-1
 83 140 l 1,21,-1
 255 140 l 1,22,-1
 255 0 l 1,23,-1
 368 0 l 1,0,-1
EndSplineSet
EndChar

StartChar: brokenbar
Encoding: 166 166 101
Width: 353
Flags: W
LayerCount: 2
Fore
SplineSet
223 404 m 1,0,-1
 223 760 l 1,1,-1
 130 760 l 1,2,-1
 130 404 l 1,3,-1
 223 404 l 1,0,-1
223 -138 m 1,4,-1
 223 218 l 1,5,-1
 130 218 l 1,6,-1
 130 -138 l 1,7,-1
 223 -138 l 1,4,-1
EndSplineSet
EndChar

StartChar: section
Encoding: 167 167 102
Width: 577
Flags: W
LayerCount: 2
Fore
SplineSet
273 -158 m 0,0,1
 367 -158 367 -158 423.5 -113 c 128,-1,2
 480 -68 480 -68 480 8 c 0,3,4
 480 94 480 94 404 143 c 1,5,-1
 404 153 l 1,6,7
 458 175 458 175 485.5 211.5 c 128,-1,8
 513 248 513 248 513 294 c 0,9,10
 513 401 513 401 360 446 c 2,11,-1
 291 465 l 2,12,13
 243 479 243 479 218.5 498 c 128,-1,14
 194 517 194 517 194 550 c 0,15,16
 194 587 194 587 223 606.5 c 128,-1,17
 252 626 252 626 300 626 c 0,18,19
 372 626 372 626 426 578 c 1,20,-1
 484 647 l 1,21,22
 413 710 413 710 302 710 c 0,23,24
 208 710 208 710 152.5 666 c 128,-1,25
 97 622 97 622 97 547 c 0,26,27
 97 464 97 464 172 413 c 1,28,-1
 172 402 l 1,29,30
 64 353 64 353 64 261 c 0,31,32
 64 154 64 154 216 110 c 2,33,-1
 285 90 l 2,34,35
 332 76 332 76 356.5 57 c 128,-1,36
 381 38 381 38 381 4 c 0,37,38
 381 -68 381 -68 275 -73 c 0,39,40
 199 -73 199 -73 150 -25 c 1,41,-1
 93 -95 l 1,42,43
 166 -158 166 -158 273 -158 c 0,0,1
362 164 m 1,44,45
 354 167 354 167 349.5 169 c 128,-1,46
 345 171 345 171 262 193 c 0,47,48
 161 222 161 222 161 292 c 0,49,50
 161 348 161 348 214 391 c 1,51,52
 227 386 227 386 314 362 c 0,53,54
 368 347 368 347 391.5 322.5 c 128,-1,55
 415 298 415 298 415 263 c 0,56,57
 415 207 415 207 362 164 c 1,44,45
EndSplineSet
EndChar

StartChar: dieresis
Encoding: 168 168 103
Width: 600
Flags: W
LayerCount: 2
Fore
SplineSet
200 610 m 256,0,1
 262 610 262 610 262 663 c 2,2,-1
 262 681 l 2,3,4
 262 734 262 734 200 734 c 256,5,6
 138 734 138 734 138 681 c 2,7,-1
 138 663 l 2,8,9
 138 610 138 610 200 610 c 256,0,1
400 610 m 256,10,11
 462 610 462 610 462 663 c 2,12,-1
 462 681 l 2,13,14
 462 734 462 734 400 734 c 256,15,16
 338 734 338 734 338 681 c 2,17,-1
 338 663 l 2,18,19
 338 610 338 610 400 610 c 256,10,11
EndSplineSet
EndChar

StartChar: copyright
Encoding: 169 169 104
Width: 782
Flags: W
LayerCount: 2
Fore
SplineSet
391 -11 m 0,0,1
 483 -11 483 -11 560.5 31 c 128,-1,2
 638 73 638 73 684.5 153.5 c 128,-1,3
 731 234 731 234 731 349 c 0,4,5
 731 461 731 461 686.5 541.5 c 128,-1,6
 642 622 642 622 565 665.5 c 128,-1,7
 488 709 488 709 391 709 c 0,8,9
 296 709 296 709 219 666.5 c 128,-1,10
 142 624 142 624 96.5 543 c 128,-1,11
 51 462 51 462 51 349 c 0,12,13
 51 239 51 239 95.5 158.5 c 128,-1,14
 140 78 140 78 217 33.5 c 128,-1,15
 294 -11 294 -11 391 -11 c 0,0,1
391 50 m 0,16,17
 277 50 277 50 199.5 125.5 c 128,-1,18
 122 201 122 201 122 317 c 2,19,-1
 122 381 l 2,20,21
 122 496 122 496 198 572 c 128,-1,22
 274 648 274 648 391 648 c 0,23,24
 474 648 474 648 534 611.5 c 128,-1,25
 594 575 594 575 627 514 c 128,-1,26
 660 453 660 453 660 381 c 2,27,-1
 660 317 l 2,28,29
 660 201 660 201 583.5 125.5 c 128,-1,30
 507 50 507 50 391 50 c 0,16,17
399 146 m 0,31,32
 516 146 516 146 559 245 c 1,33,-1
 485 284 l 1,34,35
 471 257 471 257 451 241 c 128,-1,36
 431 225 431 225 399 225 c 0,37,38
 360 225 360 225 339 249.5 c 128,-1,39
 318 274 318 274 318 313 c 2,40,-1
 318 384 l 2,41,42
 318 423 318 423 339 447.5 c 128,-1,43
 360 472 360 472 399 472 c 0,44,45
 430 472 430 472 448 457 c 128,-1,46
 466 442 466 442 477 415 c 1,47,-1
 552 454 l 1,48,49
 512 552 512 552 399 552 c 0,50,51
 312 552 312 552 264 497 c 128,-1,52
 216 442 216 442 216 349 c 256,53,54
 216 256 216 256 264 201 c 128,-1,55
 312 146 312 146 399 146 c 0,31,32
EndSplineSet
EndChar

StartChar: ordfeminine
Encoding: 170 170 105
Width: 400
Flags: W
LayerCount: 2
Fore
SplineSet
154 342 m 0,0,1
 102 342 102 342 72.5 369.5 c 128,-1,2
 43 397 43 397 43 445 c 0,3,4
 43 552 43 552 193 552 c 2,5,-1
 261 552 l 1,6,-1
 261 575 l 2,7,8
 261 648 261 648 193 648 c 0,9,10
 130 648 130 648 102 599 c 1,11,-1
 54 640 l 1,12,13
 70 669 70 669 105.5 689.5 c 128,-1,14
 141 710 141 710 198 710 c 0,15,16
 264 710 264 710 302.5 676.5 c 128,-1,17
 341 643 341 643 341 579 c 2,18,-1
 341 350 l 1,19,-1
 267 350 l 1,20,-1
 267 408 l 1,21,-1
 263 408 l 1,22,23
 252 378 252 378 225 360 c 128,-1,24
 198 342 198 342 154 342 c 0,0,1
179 400 m 0,25,26
 212 400 212 400 236.5 415.5 c 128,-1,27
 261 431 261 431 261 460 c 2,28,-1
 261 501 l 1,29,-1
 196 501 l 2,30,31
 123 501 123 501 122 456 c 2,32,-1
 122 444 l 2,33,34
 122 400 122 400 179 400 c 0,25,26
EndSplineSet
EndChar

StartChar: guillemotleft
Encoding: 171 171 106
Width: 532
Flags: W
LayerCount: 2
Fore
SplineSet
226 67 m 1,0,-1
 258 137 l 1,1,-1
 129 279 l 1,2,-1
 258 421 l 1,3,-1
 226 491 l 1,4,-1
 37 328 l 1,5,-1
 37 230 l 1,6,-1
 226 67 l 1,0,-1
449 67 m 1,7,-1
 481 137 l 1,8,-1
 352 279 l 1,9,-1
 481 421 l 1,10,-1
 449 491 l 1,11,-1
 260 328 l 1,12,-1
 260 230 l 1,13,-1
 449 67 l 1,7,-1
EndSplineSet
EndChar

StartChar: logicalnot
Encoding: 172 172 107
Width: 616
Flags: W
LayerCount: 2
Fore
SplineSet
549 78 m 1,0,-1
 549 350 l 1,1,-1
 61 350 l 1,2,-1
 61 261 l 1,3,-1
 458 261 l 1,4,-1
 458 78 l 1,5,-1
 549 78 l 1,0,-1
EndSplineSet
EndChar

StartChar: u00AD
Encoding: 173 173 108
Width: 401
Flags: W
LayerCount: 2
Fore
SplineSet
339 249 m 1,0,-1
 339 360 l 1,1,-1
 62 360 l 1,2,-1
 62 249 l 1,3,-1
 339 249 l 1,0,-1
EndSplineSet
EndChar

StartChar: registered
Encoding: 174 174 109
Width: 472
Flags: W
LayerCount: 2
Fore
SplineSet
236 298 m 256,0,1
 323 298 323 298 379.5 358.5 c 128,-1,2
 436 419 436 419 436 504 c 256,3,4
 436 589 436 589 379.5 649.5 c 128,-1,5
 323 710 323 710 236 710 c 256,6,7
 149 710 149 710 92.5 649.5 c 128,-1,8
 36 589 36 589 36 504 c 256,9,10
 36 419 36 419 92.5 358.5 c 128,-1,11
 149 298 149 298 236 298 c 256,0,1
236 341 m 0,12,13
 171 341 171 341 127 385 c 128,-1,14
 83 429 83 429 83 491 c 2,15,-1
 83 517 l 2,16,17
 83 577 83 577 125 622 c 128,-1,18
 167 667 167 667 236 667 c 256,19,20
 305 667 305 667 347 623 c 128,-1,21
 389 579 389 579 389 517 c 2,22,-1
 389 491 l 2,23,24
 389 427 389 427 345.5 384 c 128,-1,25
 302 341 302 341 236 341 c 0,12,13
330 398 m 1,26,-1
 283 478 l 1,27,28
 321 492 321 492 321 541 c 0,29,30
 321 570 321 570 303 588.5 c 128,-1,31
 285 607 285 607 250 607 c 2,32,-1
 155 607 l 1,33,-1
 155 398 l 1,34,-1
 206 398 l 1,35,-1
 206 470 l 1,36,-1
 235 470 l 1,37,-1
 274 398 l 1,38,-1
 330 398 l 1,26,-1
244 508 m 2,39,-1
 206 508 l 1,40,-1
 206 567 l 1,41,-1
 244 567 l 2,42,43
 269 567 269 567 269 547 c 2,44,-1
 269 530 l 2,45,46
 269 508 269 508 244 508 c 2,39,-1
EndSplineSet
EndChar

StartChar: macron
Encoding: 175 175 110
Width: 600
Flags: W
LayerCount: 2
Fore
SplineSet
446 631 m 1,0,-1
 446 714 l 1,1,-1
 154 714 l 1,2,-1
 154 631 l 1,3,-1
 446 631 l 1,0,-1
EndSplineSet
EndChar

StartChar: degree
Encoding: 176 176 111
Width: 470
Flags: W
LayerCount: 2
Fore
SplineSet
235 352 m 0,0,1
 309 352 309 352 360 402.5 c 128,-1,2
 411 453 411 453 411 531 c 256,3,4
 411 609 411 609 360 659.5 c 128,-1,5
 309 710 309 710 235 710 c 0,6,7
 158 710 158 710 108.5 657.5 c 128,-1,8
 59 605 59 605 59 531 c 256,9,10
 59 457 59 457 108.5 404.5 c 128,-1,11
 158 352 158 352 235 352 c 0,0,1
235 430 m 256,12,13
 192 430 192 430 167.5 459 c 128,-1,14
 143 488 143 488 143 531 c 256,15,16
 143 574 143 574 167.5 603 c 128,-1,17
 192 632 192 632 235 632 c 256,18,19
 278 632 278 632 302.5 603 c 128,-1,20
 327 574 327 574 327 531 c 256,21,22
 327 488 327 488 302.5 459 c 128,-1,23
 278 430 278 430 235 430 c 256,12,13
EndSplineSet
EndChar

StartChar: plusminus
Encoding: 177 177 112
Width: 600
Flags: W
LayerCount: 2
Fore
SplineSet
349 167 m 1,0,-1
 349 351 l 1,1,-1
 533 351 l 1,2,-1
 533 440 l 1,3,-1
 349 440 l 1,4,-1
 349 625 l 1,5,-1
 251 625 l 1,6,-1
 251 440 l 1,7,-1
 67 440 l 1,8,-1
 67 351 l 1,9,-1
 251 351 l 1,10,-1
 251 167 l 1,11,-1
 349 167 l 1,0,-1
533 0 m 1,12,-1
 533 89 l 1,13,-1
 67 89 l 1,14,-1
 67 0 l 1,15,-1
 533 0 l 1,12,-1
EndSplineSet
EndChar

StartChar: u00B2
Encoding: 178 178 113
Width: 346
Flags: W
LayerCount: 2
Fore
SplineSet
315 329 m 1,0,-1
 315 393 l 1,1,-1
 122 393 l 1,2,3
 163 422 163 422 205 451 c 128,-1,4
 247 480 247 480 276.5 512.5 c 128,-1,5
 306 545 306 545 306 593 c 0,6,7
 306 642 306 642 271 673 c 128,-1,8
 236 704 236 704 172 704 c 0,9,10
 60 704 60 704 28 611 c 1,11,-1
 97 585 l 1,12,13
 105 609 105 609 120 623.5 c 128,-1,14
 135 638 135 638 165 638 c 0,15,16
 221 638 221 638 221 586 c 0,17,18
 221 561 221 561 205.5 541 c 128,-1,19
 190 521 190 521 157 495 c 2,20,-1
 36 399 l 1,21,-1
 36 329 l 1,22,-1
 315 329 l 1,0,-1
EndSplineSet
EndChar

StartChar: u00B3
Encoding: 179 179 114
Width: 345
Flags: W
LayerCount: 2
Fore
SplineSet
159 323 m 0,0,1
 227 323 227 323 267.5 352.5 c 128,-1,2
 308 382 308 382 308 432 c 0,3,4
 308 470 308 470 284.5 492 c 128,-1,5
 261 514 261 514 225 520 c 1,6,-1
 225 523 l 1,7,8
 258 528 258 528 280 549.5 c 128,-1,9
 302 571 302 571 302 606 c 0,10,11
 302 651 302 651 264.5 677.5 c 128,-1,12
 227 704 227 704 164 704 c 0,13,14
 73 704 73 704 28 642 c 1,15,-1
 79 597 l 1,16,17
 109 642 109 642 161 642 c 0,18,19
 191 642 191 642 204.5 628 c 128,-1,20
 218 614 218 614 218 592 c 0,21,22
 218 575 218 575 202 563 c 128,-1,23
 186 551 186 551 153 551 c 2,24,-1
 115 551 l 1,25,-1
 115 487 l 1,26,-1
 154 487 l 2,27,28
 192 487 192 487 208.5 475 c 128,-1,29
 225 463 225 463 225 437 c 0,30,31
 225 389 225 389 159 385 c 0,32,33
 127 385 127 385 107.5 399 c 128,-1,34
 88 413 88 413 74 437 c 1,35,-1
 15 393 l 1,36,37
 33 364 33 364 66.5 343.5 c 128,-1,38
 100 323 100 323 159 323 c 0,0,1
EndSplineSet
EndChar

StartChar: acute
Encoding: 180 180 115
Width: 600
Flags: W
LayerCount: 2
Fore
SplineSet
311 582 m 1,0,-1
 429 749 l 1,1,-1
 334 795 l 1,2,-1
 243 615 l 1,3,-1
 311 582 l 1,0,-1
EndSplineSet
EndChar

StartChar: mu
Encoding: 181 181 116
Width: 585
Flags: W
LayerCount: 2
Fore
SplineSet
187 -200 m 1,0,-1
 187 -71 l 1,1,-1
 171 36 l 1,2,-1
 175 36 l 1,3,4
 199 -12 199 -12 263 -12 c 0,5,6
 319 -12 319 -12 350 18 c 128,-1,7
 381 48 381 48 394 86 c 1,8,-1
 398 86 l 1,9,-1
 398 0 l 1,10,-1
 507 0 l 1,11,-1
 507 520 l 1,12,-1
 398 520 l 1,13,-1
 398 170 l 2,14,15
 398 125 398 125 362.5 103.5 c 128,-1,16
 327 82 327 82 286 82 c 0,17,18
 187 82 187 82 187 204 c 2,19,-1
 187 520 l 1,20,-1
 78 520 l 1,21,-1
 78 -200 l 1,22,-1
 187 -200 l 1,0,-1
EndSplineSet
EndChar

StartChar: paragraph
Encoding: 182 182 117
Width: 663
Flags: W
LayerCount: 2
Fore
SplineSet
527 -149 m 1,0,-1
 527 614 l 1,1,-1
 593 614 l 1,2,-1
 593 698 l 1,3,-1
 244 698 l 2,4,5
 161 698 161 698 102 637 c 128,-1,6
 43 576 43 576 43 490 c 0,7,8
 43 405 43 405 102 343.5 c 128,-1,9
 161 282 161 282 244 282 c 1,10,-1
 244 -149 l 1,11,-1
 333 -149 l 1,12,-1
 333 614 l 1,13,-1
 438 614 l 1,14,-1
 438 -149 l 1,15,-1
 527 -149 l 1,0,-1
EndSplineSet
EndChar

StartChar: periodcentered
Encoding: 183 183 118
Width: 356
Flags: W
LayerCount: 2
Fore
SplineSet
178 224 m 256,0,1
 220 224 220 224 239 243.5 c 128,-1,2
 258 263 258 263 258 292 c 2,3,-1
 258 316 l 2,4,5
 258 345 258 345 239 364.5 c 128,-1,6
 220 384 220 384 178 384 c 256,7,8
 136 384 136 384 117 364.5 c 128,-1,9
 98 345 98 345 98 316 c 2,10,-1
 98 292 l 2,11,12
 98 263 98 263 117 243.5 c 128,-1,13
 136 224 136 224 178 224 c 256,0,1
EndSplineSet
EndChar

StartChar: cedilla
Encoding: 184 184 119
Width: 600
Flags: W
LayerCount: 2
Fore
SplineSet
313 -209 m 0,0,1
 360 -209 360 -209 396.5 -188.5 c 128,-1,2
 433 -168 433 -168 433 -123 c 0,3,4
 433 -88 433 -88 412.5 -71.5 c 128,-1,5
 392 -55 392 -55 363 -55 c 0,6,7
 341 -55 341 -55 320 -62 c 1,8,-1
 316 -58 l 1,9,-1
 333 24 l 1,10,-1
 276 24 l 1,11,-1
 256 -76 l 1,12,13
 290 -80 290 -80 309 -83.5 c 128,-1,14
 328 -87 328 -87 338 -95 c 0,15,16
 352 -107 352 -107 352 -119 c 0,17,18
 352 -134 352 -134 339.5 -141 c 128,-1,19
 327 -148 327 -148 308 -148 c 0,20,21
 266 -148 266 -148 245 -119 c 1,22,-1
 203 -167 l 1,23,24
 234 -209 234 -209 313 -209 c 0,0,1
EndSplineSet
EndChar

StartChar: u00B9
Encoding: 185 185 120
Width: 323
Flags: W
LayerCount: 2
Fore
SplineSet
234 329 m 1,0,-1
 155 329 l 1,1,-1
 155 628 l 1,2,-1
 75 588 l 1,3,-1
 75 660 l 1,4,-1
 150 698 l 1,5,-1
 234 698 l 1,6,-1
 234 329 l 1,0,-1
EndSplineSet
EndChar

StartChar: ordmasculine
Encoding: 186 186 121
Width: 414
Flags: W
LayerCount: 2
Fore
SplineSet
207 342 m 256,0,1
 285 342 285 342 329 391 c 128,-1,2
 373 440 373 440 373 526 c 256,3,4
 373 612 373 612 329 661 c 128,-1,5
 285 710 285 710 207 710 c 256,6,7
 129 710 129 710 85 661 c 128,-1,8
 41 612 41 612 41 526 c 256,9,10
 41 440 41 440 85 391 c 128,-1,11
 129 342 129 342 207 342 c 256,0,1
207 405 m 0,12,13
 128 405 128 405 126 496 c 2,14,-1
 126 556 l 2,15,16
 126 598 126 598 146.5 622.5 c 128,-1,17
 167 647 167 647 207 647 c 0,18,19
 287 647 287 647 288 556 c 2,20,-1
 288 496 l 2,21,22
 288 454 288 454 267.5 429.5 c 128,-1,23
 247 405 247 405 207 405 c 0,12,13
EndSplineSet
EndChar

StartChar: guillemotright
Encoding: 187 187 122
Width: 532
Flags: W
LayerCount: 2
Fore
SplineSet
83 67 m 1,0,-1
 272 230 l 1,1,-1
 272 328 l 1,2,-1
 83 491 l 1,3,-1
 51 421 l 1,4,-1
 180 279 l 1,5,-1
 51 137 l 1,6,-1
 83 67 l 1,0,-1
306 67 m 1,7,-1
 495 230 l 1,8,-1
 495 328 l 1,9,-1
 306 491 l 1,10,-1
 274 421 l 1,11,-1
 403 279 l 1,12,-1
 274 137 l 1,13,-1
 306 67 l 1,7,-1
EndSplineSet
EndChar

StartChar: onequarter
Encoding: 188 188 123
Width: 797
Flags: W
LayerCount: 2
Fore
SplineSet
725 0 m 1,0,-1
 649 0 l 1,1,-1
 649 71 l 1,2,-1
 470 71 l 1,3,-1
 470 137 l 1,4,-1
 627 369 l 1,5,-1
 725 369 l 1,6,-1
 725 131 l 1,7,-1
 777 131 l 1,8,-1
 777 71 l 1,9,-1
 725 71 l 1,10,-1
 725 0 l 1,0,-1
649 131 m 1,11,-1
 649 289 l 1,12,-1
 644 289 l 1,13,-1
 535 131 l 1,14,-1
 649 131 l 1,11,-1
186 0 m 1,15,-1
 97 0 l 1,16,-1
 602 698 l 1,17,-1
 690 698 l 1,18,-1
 186 0 l 1,15,-1
234 329 m 1,19,-1
 155 329 l 1,20,-1
 155 628 l 1,21,-1
 75 588 l 1,22,-1
 75 660 l 1,23,-1
 150 698 l 1,24,-1
 234 698 l 1,25,-1
 234 329 l 1,19,-1
EndSplineSet
EndChar

StartChar: onehalf
Encoding: 189 189 124
Width: 800
Flags: W
LayerCount: 2
Fore
SplineSet
769 0 m 1,0,-1
 490 0 l 1,1,-1
 490 70 l 1,2,-1
 611 166 l 2,3,4
 648 194 648 194 661.5 214.5 c 128,-1,5
 675 235 675 235 675 261 c 0,6,7
 675 285 675 285 659.5 297 c 128,-1,8
 644 309 644 309 619 309 c 0,9,10
 567 309 567 309 551 256 c 1,11,-1
 482 282 l 1,12,13
 495 321 495 321 530 348 c 128,-1,14
 565 375 565 375 626 375 c 0,15,16
 690 375 690 375 725 344 c 128,-1,17
 760 313 760 313 760 264 c 0,18,19
 760 218 760 218 730.5 184 c 128,-1,20
 701 150 701 150 659 121.5 c 128,-1,21
 617 93 617 93 576 64 c 1,22,-1
 769 64 l 1,23,-1
 769 0 l 1,0,-1
171 0 m 1,24,-1
 82 0 l 1,25,-1
 587 698 l 1,26,-1
 675 698 l 1,27,-1
 171 0 l 1,24,-1
234 329 m 1,28,-1
 155 329 l 1,29,-1
 155 628 l 1,30,-1
 75 588 l 1,31,-1
 75 660 l 1,32,-1
 150 698 l 1,33,-1
 234 698 l 1,34,-1
 234 329 l 1,28,-1
EndSplineSet
EndChar

StartChar: threequarters
Encoding: 190 190 125
Width: 829
Flags: W
LayerCount: 2
Fore
SplineSet
159 323 m 0,0,1
 227 323 227 323 267.5 352.5 c 128,-1,2
 308 382 308 382 308 432 c 0,3,4
 308 470 308 470 284.5 492 c 128,-1,5
 261 514 261 514 225 520 c 1,6,-1
 225 523 l 1,7,8
 258 528 258 528 280 549.5 c 128,-1,9
 302 571 302 571 302 606 c 0,10,11
 302 651 302 651 264.5 677.5 c 128,-1,12
 227 704 227 704 164 704 c 0,13,14
 73 704 73 704 28 642 c 1,15,-1
 79 597 l 1,16,17
 109 642 109 642 161 642 c 0,18,19
 191 642 191 642 204.5 628 c 128,-1,20
 218 614 218 614 218 592 c 0,21,22
 218 575 218 575 202 563 c 128,-1,23
 186 551 186 551 153 551 c 2,24,-1
 115 551 l 1,25,-1
 115 487 l 1,26,-1
 154 487 l 2,27,28
 192 487 192 487 208.5 475 c 128,-1,29
 225 463 225 463 225 437 c 0,30,31
 225 389 225 389 159 385 c 0,32,33
 127 385 127 385 107.5 399 c 128,-1,34
 88 413 88 413 74 437 c 1,35,-1
 15 393 l 1,36,37
 33 364 33 364 66.5 343.5 c 128,-1,38
 100 323 100 323 159 323 c 0,0,1
218 0 m 1,39,-1
 722 698 l 1,40,-1
 634 698 l 1,41,-1
 129 0 l 1,42,-1
 218 0 l 1,39,-1
757 0 m 1,43,-1
 757 71 l 1,44,-1
 809 71 l 1,45,-1
 809 131 l 1,46,-1
 757 131 l 1,47,-1
 757 369 l 1,48,-1
 659 369 l 1,49,-1
 502 137 l 1,50,-1
 502 71 l 1,51,-1
 681 71 l 1,52,-1
 681 0 l 1,53,-1
 757 0 l 1,43,-1
681 131 m 1,54,-1
 567 131 l 1,55,-1
 676 289 l 1,56,-1
 681 289 l 1,57,-1
 681 131 l 1,54,-1
EndSplineSet
EndChar

StartChar: questiondown
Encoding: 191 191 126
Width: 479
Flags: W
LayerCount: 2
Fore
SplineSet
248 -190 m 0,0,1
 311 -190 311 -190 356 -167 c 128,-1,2
 401 -144 401 -144 428.5 -107.5 c 128,-1,3
 456 -71 456 -71 468 -29 c 1,4,-1
 373 9 l 1,5,6
 362 -37 362 -37 332 -65.5 c 128,-1,7
 302 -94 302 -94 252 -94 c 0,8,9
 205 -94 205 -94 177 -68.5 c 128,-1,10
 149 -43 149 -43 149 3 c 2,11,-1
 149 17 l 2,12,13
 149 135 149 135 317 142 c 1,14,-1
 317 301 l 1,15,-1
 213 301 l 1,16,-1
 213 209 l 1,17,18
 166 201 166 201 125.5 175.5 c 128,-1,19
 85 150 85 150 59 107.5 c 128,-1,20
 33 65 33 65 33 6 c 0,21,22
 33 -79 33 -79 89.5 -134.5 c 128,-1,23
 146 -190 146 -190 248 -190 c 0,0,1
264 383 m 256,24,25
 302 383 302 383 319.5 401.5 c 128,-1,26
 337 420 337 420 337 449 c 2,27,-1
 337 466 l 2,28,29
 337 495 337 495 319.5 513.5 c 128,-1,30
 302 532 302 532 264 532 c 256,31,32
 226 532 226 532 208.5 513.5 c 128,-1,33
 191 495 191 495 191 466 c 2,34,-1
 191 449 l 2,35,36
 191 420 191 420 208.5 401.5 c 128,-1,37
 226 383 226 383 264 383 c 256,24,25
EndSplineSet
EndChar

StartChar: Agrave
Encoding: 192 192 127
Width: 662
Flags: W
LayerCount: 2
Fore
SplineSet
640 0 m 1,0,-1
 402 698 l 1,1,-1
 260 698 l 1,2,-1
 22 0 l 1,3,-1
 137 0 l 1,4,-1
 198 189 l 1,5,-1
 459 189 l 1,6,-1
 522 0 l 1,7,-1
 640 0 l 1,0,-1
431 286 m 1,8,-1
 225 286 l 1,9,-1
 326 594 l 1,10,-1
 331 594 l 1,11,-1
 431 286 l 1,8,-1
319 749 m 1,12,-1
 387 781 l 1,13,-1
 296 961 l 1,14,-1
 201 915 l 1,15,-1
 319 749 l 1,12,-1
EndSplineSet
EndChar

StartChar: Aacute
Encoding: 193 193 128
Width: 662
Flags: W
LayerCount: 2
Fore
SplineSet
640 0 m 1,0,-1
 402 698 l 1,1,-1
 260 698 l 1,2,-1
 22 0 l 1,3,-1
 137 0 l 1,4,-1
 198 189 l 1,5,-1
 459 189 l 1,6,-1
 522 0 l 1,7,-1
 640 0 l 1,0,-1
431 286 m 1,8,-1
 225 286 l 1,9,-1
 326 594 l 1,10,-1
 331 594 l 1,11,-1
 431 286 l 1,8,-1
341 749 m 1,12,-1
 459 915 l 1,13,-1
 364 961 l 1,14,-1
 273 781 l 1,15,-1
 341 749 l 1,12,-1
EndSplineSet
EndChar

StartChar: Acircumflex
Encoding: 194 194 129
Width: 662
Flags: W
LayerCount: 2
Fore
SplineSet
640 0 m 1,0,-1
 402 698 l 1,1,-1
 260 698 l 1,2,-1
 22 0 l 1,3,-1
 137 0 l 1,4,-1
 198 189 l 1,5,-1
 459 189 l 1,6,-1
 522 0 l 1,7,-1
 640 0 l 1,0,-1
431 286 m 1,8,-1
 225 286 l 1,9,-1
 326 594 l 1,10,-1
 331 594 l 1,11,-1
 431 286 l 1,8,-1
449 752 m 1,12,-1
 505 794 l 1,13,-1
 385 944 l 1,14,-1
 275 944 l 1,15,-1
 155 794 l 1,16,-1
 211 752 l 1,17,-1
 330 868 l 1,18,-1
 449 752 l 1,12,-1
EndSplineSet
EndChar

StartChar: Atilde
Encoding: 195 195 130
Width: 662
Flags: W
LayerCount: 2
Fore
SplineSet
640 0 m 1,0,-1
 402 698 l 1,1,-1
 260 698 l 1,2,-1
 22 0 l 1,3,-1
 137 0 l 1,4,-1
 198 189 l 1,5,-1
 459 189 l 1,6,-1
 522 0 l 1,7,-1
 640 0 l 1,0,-1
431 286 m 1,8,-1
 225 286 l 1,9,-1
 326 594 l 1,10,-1
 331 594 l 1,11,-1
 431 286 l 1,8,-1
404 773 m 0,12,13
 471 773 471 773 507 831 c 1,14,-1
 466 883 l 1,15,16
 451 870 451 870 438 863.5 c 128,-1,17
 425 857 425 857 408 857 c 0,18,19
 377 857 377 857 334 880 c 2,20,-1
 326 884 l 2,21,22
 311 892 311 892 294.5 898 c 128,-1,23
 278 904 278 904 256 904 c 0,24,25
 189 904 189 904 153 846 c 1,26,-1
 194 794 l 1,27,28
 209 807 209 807 222 813.5 c 128,-1,29
 235 820 235 820 252 820 c 0,30,31
 284 820 284 820 326 797 c 2,32,-1
 334 793 l 2,33,34
 349 785 349 785 365.5 779 c 128,-1,35
 382 773 382 773 404 773 c 0,12,13
EndSplineSet
EndChar

StartChar: Adieresis
Encoding: 196 196 131
Width: 662
Flags: W
LayerCount: 2
Fore
SplineSet
640 0 m 1,0,-1
 402 698 l 1,1,-1
 260 698 l 1,2,-1
 22 0 l 1,3,-1
 137 0 l 1,4,-1
 198 189 l 1,5,-1
 459 189 l 1,6,-1
 522 0 l 1,7,-1
 640 0 l 1,0,-1
431 286 m 1,8,-1
 225 286 l 1,9,-1
 326 594 l 1,10,-1
 331 594 l 1,11,-1
 431 286 l 1,8,-1
230 776 m 256,12,13
 264 776 264 776 278.5 791.5 c 128,-1,14
 293 807 293 807 293 830 c 2,15,-1
 293 848 l 2,16,17
 293 871 293 871 278.5 886.5 c 128,-1,18
 264 902 264 902 230 902 c 256,19,20
 196 902 196 902 181.5 886.5 c 128,-1,21
 167 871 167 871 167 848 c 2,22,-1
 167 830 l 2,23,24
 167 807 167 807 181.5 791.5 c 128,-1,25
 196 776 196 776 230 776 c 256,12,13
430 776 m 256,26,27
 464 776 464 776 478.5 791.5 c 128,-1,28
 493 807 493 807 493 830 c 2,29,-1
 493 848 l 2,30,31
 493 871 493 871 478.5 886.5 c 128,-1,32
 464 902 464 902 430 902 c 256,33,34
 396 902 396 902 381.5 886.5 c 128,-1,35
 367 871 367 871 367 848 c 2,36,-1
 367 830 l 2,37,38
 367 807 367 807 381.5 791.5 c 128,-1,39
 396 776 396 776 430 776 c 256,26,27
EndSplineSet
EndChar

StartChar: Aring
Encoding: 197 197 132
Width: 662
Flags: W
LayerCount: 2
Fore
SplineSet
640 0 m 1,0,-1
 402 698 l 1,1,-1
 260 698 l 1,2,-1
 22 0 l 1,3,-1
 137 0 l 1,4,-1
 198 189 l 1,5,-1
 459 189 l 1,6,-1
 522 0 l 1,7,-1
 640 0 l 1,0,-1
431 286 m 1,8,-1
 225 286 l 1,9,-1
 326 594 l 1,10,-1
 331 594 l 1,11,-1
 431 286 l 1,8,-1
330 734 m 0,12,13
 386 734 386 734 423 770 c 128,-1,14
 460 806 460 806 460 861 c 256,15,16
 460 916 460 916 423 952 c 128,-1,17
 386 988 386 988 330 988 c 0,18,19
 273 988 273 988 236.5 951 c 128,-1,20
 200 914 200 914 200 861 c 256,21,22
 200 808 200 808 236.5 771 c 128,-1,23
 273 734 273 734 330 734 c 0,12,13
330 795 m 0,24,25
 278 795 278 795 275 848 c 2,26,-1
 275 875 l 2,27,28
 275 925 275 925 330 928 c 0,29,30
 383 928 383 928 385 875 c 2,31,-1
 385 848 l 2,32,33
 385 799 385 799 330 795 c 0,24,25
EndSplineSet
EndChar

StartChar: AE
Encoding: 198 198 133
Width: 933
Flags: W
LayerCount: 2
Fore
SplineSet
873 0 m 1,0,-1
 873 100 l 1,1,-1
 539 100 l 1,2,-1
 539 304 l 1,3,-1
 842 304 l 1,4,-1
 842 404 l 1,5,-1
 539 404 l 1,6,-1
 539 598 l 1,7,-1
 873 598 l 1,8,-1
 873 698 l 1,9,-1
 352 698 l 1,10,-1
 2 0 l 1,11,-1
 116 0 l 1,12,-1
 208 188 l 1,13,-1
 426 188 l 1,14,-1
 426 0 l 1,15,-1
 873 0 l 1,0,-1
426 286 m 1,16,-1
 254 286 l 1,17,-1
 409 598 l 1,18,-1
 426 598 l 1,19,-1
 426 286 l 1,16,-1
EndSplineSet
EndChar

StartChar: Ccedilla
Encoding: 199 199 134
Width: 634
Flags: W
LayerCount: 2
Fore
SplineSet
349 -209 m 0,0,1
 396 -209 396 -209 432.5 -188.5 c 128,-1,2
 469 -168 469 -168 469 -123 c 0,3,4
 469 -88 469 -88 448.5 -71.5 c 128,-1,5
 428 -55 428 -55 399 -55 c 0,6,7
 377 -55 377 -55 356 -62 c 1,8,-1
 353 -58 l 1,9,-1
 362 -12 l 1,10,11
 534 0 534 0 600 150 c 1,12,-1
 509 205 l 1,13,14
 490 153 490 153 450.5 121 c 128,-1,15
 411 89 411 89 348 89 c 0,16,17
 267 89 267 89 221 144 c 128,-1,18
 175 199 175 199 175 296 c 2,19,-1
 175 402 l 2,20,21
 175 499 175 499 221 554 c 128,-1,22
 267 609 267 609 348 609 c 0,23,24
 464 609 464 609 502 500 c 1,25,-1
 597 552 l 1,26,27
 526 710 526 710 348 710 c 0,28,29
 216 710 216 710 135.5 620 c 128,-1,30
 55 530 55 530 55 349 c 0,31,32
 55 187 55 187 120.5 96.5 c 128,-1,33
 186 6 186 6 305 -9 c 1,34,-1
 292 -76 l 1,35,36
 356 -81 356 -81 375 -95 c 0,37,38
 388 -107 388 -107 388 -119 c 0,39,40
 388 -134 388 -134 375.5 -141 c 128,-1,41
 363 -148 363 -148 344 -148 c 0,42,43
 302 -148 302 -148 281 -119 c 1,44,-1
 239 -167 l 1,45,46
 272 -209 272 -209 349 -209 c 0,0,1
EndSplineSet
EndChar

StartChar: Egrave
Encoding: 200 200 135
Width: 593
Flags: W
LayerCount: 2
Fore
SplineSet
533 0 m 1,0,-1
 533 100 l 1,1,-1
 199 100 l 1,2,-1
 199 304 l 1,3,-1
 502 304 l 1,4,-1
 502 404 l 1,5,-1
 199 404 l 1,6,-1
 199 598 l 1,7,-1
 533 598 l 1,8,-1
 533 698 l 1,9,-1
 86 698 l 1,10,-1
 86 0 l 1,11,-1
 533 0 l 1,0,-1
298 749 m 1,12,-1
 366 781 l 1,13,-1
 275 961 l 1,14,-1
 180 915 l 1,15,-1
 298 749 l 1,12,-1
EndSplineSet
EndChar

StartChar: Eacute
Encoding: 201 201 136
Width: 593
Flags: W
LayerCount: 2
Fore
SplineSet
533 0 m 1,0,-1
 533 100 l 1,1,-1
 199 100 l 1,2,-1
 199 304 l 1,3,-1
 502 304 l 1,4,-1
 502 404 l 1,5,-1
 199 404 l 1,6,-1
 199 598 l 1,7,-1
 533 598 l 1,8,-1
 533 698 l 1,9,-1
 86 698 l 1,10,-1
 86 0 l 1,11,-1
 533 0 l 1,0,-1
320 749 m 1,12,-1
 438 915 l 1,13,-1
 343 961 l 1,14,-1
 252 781 l 1,15,-1
 320 749 l 1,12,-1
EndSplineSet
EndChar

StartChar: Ecircumflex
Encoding: 202 202 137
Width: 593
Flags: W
LayerCount: 2
Fore
SplineSet
533 0 m 1,0,-1
 533 100 l 1,1,-1
 199 100 l 1,2,-1
 199 304 l 1,3,-1
 502 304 l 1,4,-1
 502 404 l 1,5,-1
 199 404 l 1,6,-1
 199 598 l 1,7,-1
 533 598 l 1,8,-1
 533 698 l 1,9,-1
 86 698 l 1,10,-1
 86 0 l 1,11,-1
 533 0 l 1,0,-1
428 752 m 1,12,-1
 484 794 l 1,13,-1
 364 944 l 1,14,-1
 254 944 l 1,15,-1
 134 794 l 1,16,-1
 190 752 l 1,17,-1
 309 868 l 1,18,-1
 428 752 l 1,12,-1
EndSplineSet
EndChar

StartChar: Edieresis
Encoding: 203 203 138
Width: 593
Flags: W
LayerCount: 2
Fore
SplineSet
533 0 m 1,0,-1
 533 100 l 1,1,-1
 199 100 l 1,2,-1
 199 304 l 1,3,-1
 502 304 l 1,4,-1
 502 404 l 1,5,-1
 199 404 l 1,6,-1
 199 598 l 1,7,-1
 533 598 l 1,8,-1
 533 698 l 1,9,-1
 86 698 l 1,10,-1
 86 0 l 1,11,-1
 533 0 l 1,0,-1
209 776 m 256,12,13
 243 776 243 776 257.5 791.5 c 128,-1,14
 272 807 272 807 272 830 c 2,15,-1
 272 848 l 2,16,17
 272 871 272 871 257.5 886.5 c 128,-1,18
 243 902 243 902 209 902 c 256,19,20
 175 902 175 902 160.5 886.5 c 128,-1,21
 146 871 146 871 146 848 c 2,22,-1
 146 830 l 2,23,24
 146 807 146 807 160.5 791.5 c 128,-1,25
 175 776 175 776 209 776 c 256,12,13
409 776 m 256,26,27
 443 776 443 776 457.5 791.5 c 128,-1,28
 472 807 472 807 472 830 c 2,29,-1
 472 848 l 2,30,31
 472 871 472 871 457.5 886.5 c 128,-1,32
 443 902 443 902 409 902 c 256,33,34
 375 902 375 902 360.5 886.5 c 128,-1,35
 346 871 346 871 346 848 c 2,36,-1
 346 830 l 2,37,38
 346 807 346 807 360.5 791.5 c 128,-1,39
 375 776 375 776 409 776 c 256,26,27
EndSplineSet
EndChar

StartChar: Igrave
Encoding: 204 204 139
Width: 285
Flags: W
LayerCount: 2
Fore
SplineSet
132 749 m 1,0,-1
 200 781 l 1,1,-1
 109 961 l 1,2,-1
 14 915 l 1,3,-1
 132 749 l 1,0,-1
199 0 m 1,4,-1
 199 698 l 1,5,-1
 86 698 l 1,6,-1
 86 0 l 1,7,-1
 199 0 l 1,4,-1
EndSplineSet
EndChar

StartChar: Iacute
Encoding: 205 205 140
Width: 285
Flags: W
LayerCount: 2
Fore
SplineSet
164 749 m 1,0,-1
 282 915 l 1,1,-1
 187 961 l 1,2,-1
 96 781 l 1,3,-1
 164 749 l 1,0,-1
209 0 m 1,4,-1
 209 698 l 1,5,-1
 96 698 l 1,6,-1
 96 0 l 1,7,-1
 209 0 l 1,4,-1
EndSplineSet
EndChar

StartChar: Icircumflex
Encoding: 206 206 141
Width: 285
Flags: W
LayerCount: 2
Fore
SplineSet
262 752 m 1,0,-1
 318 794 l 1,1,-1
 198 944 l 1,2,-1
 88 944 l 1,3,-1
 -32 794 l 1,4,-1
 24 752 l 1,5,-1
 143 868 l 1,6,-1
 262 752 l 1,0,-1
199 0 m 1,7,-1
 199 698 l 1,8,-1
 86 698 l 1,9,-1
 86 0 l 1,10,-1
 199 0 l 1,7,-1
EndSplineSet
EndChar

StartChar: Idieresis
Encoding: 207 207 142
Width: 285
Flags: W
LayerCount: 2
Fore
SplineSet
43 776 m 256,0,1
 77 776 77 776 91.5 791.5 c 128,-1,2
 106 807 106 807 106 830 c 2,3,-1
 106 848 l 2,4,5
 106 871 106 871 91.5 886.5 c 128,-1,6
 77 902 77 902 43 902 c 256,7,8
 9 902 9 902 -5.5 886.5 c 128,-1,9
 -20 871 -20 871 -20 848 c 2,10,-1
 -20 830 l 2,11,12
 -20 807 -20 807 -5.5 791.5 c 128,-1,13
 9 776 9 776 43 776 c 256,0,1
243 776 m 256,14,15
 277 776 277 776 291.5 791.5 c 128,-1,16
 306 807 306 807 306 830 c 2,17,-1
 306 848 l 2,18,19
 306 871 306 871 291.5 886.5 c 128,-1,20
 277 902 277 902 243 902 c 256,21,22
 209 902 209 902 194.5 886.5 c 128,-1,23
 180 871 180 871 180 848 c 2,24,-1
 180 830 l 2,25,26
 180 807 180 807 194.5 791.5 c 128,-1,27
 209 776 209 776 243 776 c 256,14,15
199 0 m 1,28,-1
 199 698 l 1,29,-1
 86 698 l 1,30,-1
 86 0 l 1,31,-1
 199 0 l 1,28,-1
EndSplineSet
EndChar

StartChar: Eth
Encoding: 208 208 143
Width: 687
Flags: W
LayerCount: 2
Fore
SplineSet
337 0 m 2,0,1
 425 0 425 0 491.5 38.5 c 128,-1,2
 558 77 558 77 595 154.5 c 128,-1,3
 632 232 632 232 632 349 c 0,4,5
 632 470 632 470 594 547.5 c 128,-1,6
 556 625 556 625 489 661.5 c 128,-1,7
 422 698 422 698 337 698 c 2,8,-1
 90 698 l 1,9,-1
 90 406 l 1,10,-1
 13 406 l 1,11,-1
 13 320 l 1,12,-1
 90 320 l 1,13,-1
 90 0 l 1,14,-1
 337 0 l 2,0,1
337 100 m 2,15,-1
 203 100 l 1,16,-1
 203 320 l 1,17,-1
 333 320 l 1,18,-1
 333 406 l 1,19,-1
 203 406 l 1,20,-1
 203 598 l 1,21,-1
 337 598 l 2,22,23
 415 598 415 598 463 549 c 128,-1,24
 511 500 511 500 511 405 c 2,25,-1
 511 293 l 2,26,27
 511 198 511 198 463 149 c 128,-1,28
 415 100 415 100 337 100 c 2,15,-1
EndSplineSet
EndChar

StartChar: Ntilde
Encoding: 209 209 144
Width: 714
Flags: W
LayerCount: 2
Fore
SplineSet
628 0 m 1,0,-1
 628 698 l 1,1,-1
 520 698 l 1,2,-1
 520 164 l 1,3,-1
 517 164 l 1,4,-1
 440 312 l 1,5,-1
 212 698 l 1,6,-1
 86 698 l 1,7,-1
 86 0 l 1,8,-1
 194 0 l 1,9,-1
 194 534 l 1,10,-1
 197 534 l 1,11,-1
 274 386 l 1,12,-1
 502 0 l 1,13,-1
 628 0 l 1,0,-1
431 773 m 0,14,15
 498 773 498 773 534 831 c 1,16,-1
 493 883 l 1,17,18
 478 870 478 870 465 863.5 c 128,-1,19
 452 857 452 857 435 857 c 0,20,21
 404 857 404 857 361 880 c 2,22,-1
 353 884 l 2,23,24
 338 892 338 892 321.5 898 c 128,-1,25
 305 904 305 904 283 904 c 0,26,27
 216 904 216 904 180 846 c 1,28,-1
 221 794 l 1,29,30
 236 807 236 807 249 813.5 c 128,-1,31
 262 820 262 820 279 820 c 0,32,33
 311 820 311 820 353 797 c 2,34,-1
 361 793 l 2,35,36
 376 785 376 785 392.5 779 c 128,-1,37
 409 773 409 773 431 773 c 0,14,15
EndSplineSet
EndChar

StartChar: Ograve
Encoding: 210 210 145
Width: 712
Flags: W
LayerCount: 2
Fore
SplineSet
356 -12 m 0,0,1
 496 -12 496 -12 576.5 82.5 c 128,-1,2
 657 177 657 177 657 349 c 0,3,4
 657 471 657 471 618 551 c 128,-1,5
 579 631 579 631 511 670.5 c 128,-1,6
 443 710 443 710 356 710 c 0,7,8
 214 710 214 710 134.5 614 c 128,-1,9
 55 518 55 518 55 349 c 256,10,11
 55 180 55 180 135 84 c 128,-1,12
 215 -12 215 -12 356 -12 c 0,0,1
356 89 m 0,13,14
 275 89 275 89 225.5 144 c 128,-1,15
 176 199 176 199 176 294 c 2,16,-1
 176 404 l 2,17,18
 176 496 176 496 223.5 552.5 c 128,-1,19
 271 609 271 609 356 609 c 0,20,21
 437 609 437 609 486.5 555.5 c 128,-1,22
 536 502 536 502 536 404 c 2,23,-1
 536 294 l 2,24,25
 536 194 536 194 484.5 141.5 c 128,-1,26
 433 89 433 89 356 89 c 0,13,14
345 749 m 1,27,-1
 413 781 l 1,28,-1
 322 961 l 1,29,-1
 227 915 l 1,30,-1
 345 749 l 1,27,-1
EndSplineSet
EndChar

StartChar: Oacute
Encoding: 211 211 146
Width: 712
Flags: W
LayerCount: 2
Fore
SplineSet
356 -12 m 0,0,1
 496 -12 496 -12 576.5 82.5 c 128,-1,2
 657 177 657 177 657 349 c 0,3,4
 657 471 657 471 618 551 c 128,-1,5
 579 631 579 631 511 670.5 c 128,-1,6
 443 710 443 710 356 710 c 0,7,8
 214 710 214 710 134.5 614 c 128,-1,9
 55 518 55 518 55 349 c 256,10,11
 55 180 55 180 135 84 c 128,-1,12
 215 -12 215 -12 356 -12 c 0,0,1
356 89 m 0,13,14
 275 89 275 89 225.5 144 c 128,-1,15
 176 199 176 199 176 294 c 2,16,-1
 176 404 l 2,17,18
 176 496 176 496 223.5 552.5 c 128,-1,19
 271 609 271 609 356 609 c 0,20,21
 437 609 437 609 486.5 555.5 c 128,-1,22
 536 502 536 502 536 404 c 2,23,-1
 536 294 l 2,24,25
 536 194 536 194 484.5 141.5 c 128,-1,26
 433 89 433 89 356 89 c 0,13,14
367 749 m 1,27,-1
 485 915 l 1,28,-1
 390 961 l 1,29,-1
 299 781 l 1,30,-1
 367 749 l 1,27,-1
EndSplineSet
EndChar

StartChar: Ocircumflex
Encoding: 212 212 147
Width: 712
Flags: W
LayerCount: 2
Fore
SplineSet
356 -12 m 0,0,1
 496 -12 496 -12 576.5 82.5 c 128,-1,2
 657 177 657 177 657 349 c 0,3,4
 657 471 657 471 618 551 c 128,-1,5
 579 631 579 631 511 670.5 c 128,-1,6
 443 710 443 710 356 710 c 0,7,8
 214 710 214 710 134.5 614 c 128,-1,9
 55 518 55 518 55 349 c 256,10,11
 55 180 55 180 135 84 c 128,-1,12
 215 -12 215 -12 356 -12 c 0,0,1
356 89 m 0,13,14
 275 89 275 89 225.5 144 c 128,-1,15
 176 199 176 199 176 294 c 2,16,-1
 176 404 l 2,17,18
 176 496 176 496 223.5 552.5 c 128,-1,19
 271 609 271 609 356 609 c 0,20,21
 437 609 437 609 486.5 555.5 c 128,-1,22
 536 502 536 502 536 404 c 2,23,-1
 536 294 l 2,24,25
 536 194 536 194 484.5 141.5 c 128,-1,26
 433 89 433 89 356 89 c 0,13,14
475 752 m 1,27,-1
 531 794 l 1,28,-1
 411 944 l 1,29,-1
 301 944 l 1,30,-1
 181 794 l 1,31,-1
 237 752 l 1,32,-1
 356 868 l 1,33,-1
 475 752 l 1,27,-1
EndSplineSet
EndChar

StartChar: Otilde
Encoding: 213 213 148
Width: 712
Flags: W
LayerCount: 2
Fore
SplineSet
356 -12 m 0,0,1
 496 -12 496 -12 576.5 82.5 c 128,-1,2
 657 177 657 177 657 349 c 0,3,4
 657 471 657 471 618 551 c 128,-1,5
 579 631 579 631 511 670.5 c 128,-1,6
 443 710 443 710 356 710 c 0,7,8
 214 710 214 710 134.5 614 c 128,-1,9
 55 518 55 518 55 349 c 256,10,11
 55 180 55 180 135 84 c 128,-1,12
 215 -12 215 -12 356 -12 c 0,0,1
356 89 m 0,13,14
 275 89 275 89 225.5 144 c 128,-1,15
 176 199 176 199 176 294 c 2,16,-1
 176 404 l 2,17,18
 176 496 176 496 223.5 552.5 c 128,-1,19
 271 609 271 609 356 609 c 0,20,21
 437 609 437 609 486.5 555.5 c 128,-1,22
 536 502 536 502 536 404 c 2,23,-1
 536 294 l 2,24,25
 536 194 536 194 484.5 141.5 c 128,-1,26
 433 89 433 89 356 89 c 0,13,14
430 773 m 0,27,28
 497 773 497 773 533 831 c 1,29,-1
 492 883 l 1,30,31
 477 870 477 870 464 863.5 c 128,-1,32
 451 857 451 857 434 857 c 0,33,34
 403 857 403 857 360 880 c 2,35,-1
 352 884 l 2,36,37
 337 892 337 892 320.5 898 c 128,-1,38
 304 904 304 904 282 904 c 0,39,40
 215 904 215 904 179 846 c 1,41,-1
 220 794 l 1,42,43
 235 807 235 807 248 813.5 c 128,-1,44
 261 820 261 820 278 820 c 0,45,46
 310 820 310 820 352 797 c 2,47,-1
 360 793 l 2,48,49
 375 785 375 785 391.5 779 c 128,-1,50
 408 773 408 773 430 773 c 0,27,28
EndSplineSet
EndChar

StartChar: Odieresis
Encoding: 214 214 149
Width: 712
Flags: W
LayerCount: 2
Fore
SplineSet
356 -12 m 0,0,1
 496 -12 496 -12 576.5 82.5 c 128,-1,2
 657 177 657 177 657 349 c 0,3,4
 657 471 657 471 618 551 c 128,-1,5
 579 631 579 631 511 670.5 c 128,-1,6
 443 710 443 710 356 710 c 0,7,8
 214 710 214 710 134.5 614 c 128,-1,9
 55 518 55 518 55 349 c 256,10,11
 55 180 55 180 135 84 c 128,-1,12
 215 -12 215 -12 356 -12 c 0,0,1
356 89 m 0,13,14
 275 89 275 89 225.5 144 c 128,-1,15
 176 199 176 199 176 294 c 2,16,-1
 176 404 l 2,17,18
 176 496 176 496 223.5 552.5 c 128,-1,19
 271 609 271 609 356 609 c 0,20,21
 437 609 437 609 486.5 555.5 c 128,-1,22
 536 502 536 502 536 404 c 2,23,-1
 536 294 l 2,24,25
 536 194 536 194 484.5 141.5 c 128,-1,26
 433 89 433 89 356 89 c 0,13,14
256 776 m 256,27,28
 290 776 290 776 304.5 791.5 c 128,-1,29
 319 807 319 807 319 830 c 2,30,-1
 319 848 l 2,31,32
 319 871 319 871 304.5 886.5 c 128,-1,33
 290 902 290 902 256 902 c 256,34,35
 222 902 222 902 207.5 886.5 c 128,-1,36
 193 871 193 871 193 848 c 2,37,-1
 193 830 l 2,38,39
 193 807 193 807 207.5 791.5 c 128,-1,40
 222 776 222 776 256 776 c 256,27,28
456 776 m 256,41,42
 490 776 490 776 504.5 791.5 c 128,-1,43
 519 807 519 807 519 830 c 2,44,-1
 519 848 l 2,45,46
 519 871 519 871 504.5 886.5 c 128,-1,47
 490 902 490 902 456 902 c 256,48,49
 422 902 422 902 407.5 886.5 c 128,-1,50
 393 871 393 871 393 848 c 2,51,-1
 393 830 l 2,52,53
 393 807 393 807 407.5 791.5 c 128,-1,54
 422 776 422 776 456 776 c 256,41,42
EndSplineSet
EndChar

StartChar: multiply
Encoding: 215 215 150
Width: 600
Flags: W
LayerCount: 2
Fore
SplineSet
450 83 m 1,0,-1
 514 146 l 1,1,-1
 363 302 l 1,2,-1
 514 458 l 1,3,-1
 450 521 l 1,4,-1
 300 366 l 1,5,-1
 150 521 l 1,6,-1
 86 458 l 1,7,-1
 237 302 l 1,8,-1
 86 146 l 1,9,-1
 150 83 l 1,10,-1
 300 238 l 1,11,-1
 450 83 l 1,0,-1
EndSplineSet
EndChar

StartChar: Oslash
Encoding: 216 216 151
Width: 712
Flags: W
LayerCount: 2
Fore
SplineSet
136 -50 m 1,0,-1
 193 32 l 1,1,2
 262 -12 262 -12 356 -12 c 0,3,4
 496 -12 496 -12 576.5 82.5 c 128,-1,5
 657 177 657 177 657 349 c 0,6,7
 657 517 657 517 583 607 c 1,8,-1
 648 701 l 1,9,-1
 576 748 l 1,10,-1
 519 666 l 1,11,12
 451 710 451 710 356 710 c 0,13,14
 214 710 214 710 134.5 614 c 128,-1,15
 55 518 55 518 55 349 c 0,16,17
 55 181 55 181 129 91 c 1,18,-1
 64 -3 l 1,19,-1
 136 -50 l 1,0,-1
196 181 m 1,20,21
 173 229 173 229 173 292 c 2,22,-1
 173 406 l 2,23,24
 173 506 173 506 225 560 c 128,-1,25
 277 614 277 614 356 614 c 0,26,27
 419 614 419 614 464 580 c 1,28,-1
 196 181 l 1,20,21
356 84 m 0,29,30
 293 84 293 84 248 118 c 1,31,-1
 516 517 l 1,32,33
 539 469 539 469 539 406 c 2,34,-1
 539 292 l 2,35,36
 539 192 539 192 487 138 c 128,-1,37
 435 84 435 84 356 84 c 0,29,30
EndSplineSet
EndChar

StartChar: Ugrave
Encoding: 217 217 152
Width: 686
Flags: W
LayerCount: 2
Fore
SplineSet
343 -12 m 256,0,1
 486 -12 486 -12 545 60.5 c 128,-1,2
 604 133 604 133 604 286 c 2,3,-1
 604 698 l 1,4,-1
 493 698 l 1,5,-1
 493 268 l 2,6,7
 493 179 493 179 459 134 c 128,-1,8
 425 89 425 89 343 89 c 256,9,10
 261 89 261 89 227 134 c 128,-1,11
 193 179 193 179 193 268 c 2,12,-1
 193 698 l 1,13,-1
 82 698 l 1,14,-1
 82 286 l 2,15,16
 82 133 82 133 141 60.5 c 128,-1,17
 200 -12 200 -12 343 -12 c 256,0,1
332 749 m 1,18,-1
 400 781 l 1,19,-1
 309 961 l 1,20,-1
 214 915 l 1,21,-1
 332 749 l 1,18,-1
EndSplineSet
EndChar

StartChar: Uacute
Encoding: 218 218 153
Width: 686
Flags: W
LayerCount: 2
Fore
SplineSet
343 -12 m 256,0,1
 486 -12 486 -12 545 60.5 c 128,-1,2
 604 133 604 133 604 286 c 2,3,-1
 604 698 l 1,4,-1
 493 698 l 1,5,-1
 493 268 l 2,6,7
 493 179 493 179 459 134 c 128,-1,8
 425 89 425 89 343 89 c 256,9,10
 261 89 261 89 227 134 c 128,-1,11
 193 179 193 179 193 268 c 2,12,-1
 193 698 l 1,13,-1
 82 698 l 1,14,-1
 82 286 l 2,15,16
 82 133 82 133 141 60.5 c 128,-1,17
 200 -12 200 -12 343 -12 c 256,0,1
354 749 m 1,18,-1
 472 915 l 1,19,-1
 377 961 l 1,20,-1
 286 781 l 1,21,-1
 354 749 l 1,18,-1
EndSplineSet
EndChar

StartChar: Ucircumflex
Encoding: 219 219 154
Width: 686
Flags: W
LayerCount: 2
Fore
SplineSet
343 -12 m 256,0,1
 486 -12 486 -12 545 60.5 c 128,-1,2
 604 133 604 133 604 286 c 2,3,-1
 604 698 l 1,4,-1
 493 698 l 1,5,-1
 493 268 l 2,6,7
 493 179 493 179 459 134 c 128,-1,8
 425 89 425 89 343 89 c 256,9,10
 261 89 261 89 227 134 c 128,-1,11
 193 179 193 179 193 268 c 2,12,-1
 193 698 l 1,13,-1
 82 698 l 1,14,-1
 82 286 l 2,15,16
 82 133 82 133 141 60.5 c 128,-1,17
 200 -12 200 -12 343 -12 c 256,0,1
462 752 m 1,18,-1
 518 794 l 1,19,-1
 398 944 l 1,20,-1
 288 944 l 1,21,-1
 168 794 l 1,22,-1
 224 752 l 1,23,-1
 343 868 l 1,24,-1
 462 752 l 1,18,-1
EndSplineSet
EndChar

StartChar: Udieresis
Encoding: 220 220 155
Width: 686
Flags: W
LayerCount: 2
Fore
SplineSet
343 -12 m 256,0,1
 486 -12 486 -12 545 60.5 c 128,-1,2
 604 133 604 133 604 286 c 2,3,-1
 604 698 l 1,4,-1
 493 698 l 1,5,-1
 493 268 l 2,6,7
 493 179 493 179 459 134 c 128,-1,8
 425 89 425 89 343 89 c 256,9,10
 261 89 261 89 227 134 c 128,-1,11
 193 179 193 179 193 268 c 2,12,-1
 193 698 l 1,13,-1
 82 698 l 1,14,-1
 82 286 l 2,15,16
 82 133 82 133 141 60.5 c 128,-1,17
 200 -12 200 -12 343 -12 c 256,0,1
243 776 m 256,18,19
 277 776 277 776 291.5 791.5 c 128,-1,20
 306 807 306 807 306 830 c 2,21,-1
 306 848 l 2,22,23
 306 871 306 871 291.5 886.5 c 128,-1,24
 277 902 277 902 243 902 c 256,25,26
 209 902 209 902 194.5 886.5 c 128,-1,27
 180 871 180 871 180 848 c 2,28,-1
 180 830 l 2,29,30
 180 807 180 807 194.5 791.5 c 128,-1,31
 209 776 209 776 243 776 c 256,18,19
443 776 m 256,32,33
 477 776 477 776 491.5 791.5 c 128,-1,34
 506 807 506 807 506 830 c 2,35,-1
 506 848 l 2,36,37
 506 871 506 871 491.5 886.5 c 128,-1,38
 477 902 477 902 443 902 c 256,39,40
 409 902 409 902 394.5 886.5 c 128,-1,41
 380 871 380 871 380 848 c 2,42,-1
 380 830 l 2,43,44
 380 807 380 807 394.5 791.5 c 128,-1,45
 409 776 409 776 443 776 c 256,32,33
EndSplineSet
EndChar

StartChar: Yacute
Encoding: 221 221 156
Width: 617
Flags: W
LayerCount: 2
Fore
SplineSet
364 0 m 1,0,-1
 364 277 l 1,1,-1
 606 698 l 1,2,-1
 482 698 l 1,3,-1
 313 387 l 1,4,-1
 310 387 l 1,5,-1
 140 698 l 1,6,-1
 11 698 l 1,7,-1
 251 275 l 1,8,-1
 251 0 l 1,9,-1
 364 0 l 1,0,-1
320 749 m 1,10,-1
 438 915 l 1,11,-1
 343 961 l 1,12,-1
 252 781 l 1,13,-1
 320 749 l 1,10,-1
EndSplineSet
EndChar

StartChar: Thorn
Encoding: 222 222 157
Width: 627
Flags: W
LayerCount: 2
Fore
SplineSet
199 0 m 1,0,-1
 199 144 l 1,1,-1
 386 144 l 2,2,3
 477 144 477 144 533 199 c 128,-1,4
 589 254 589 254 589 354 c 0,5,6
 589 446 589 446 537.5 505 c 128,-1,7
 486 564 486 564 386 564 c 2,8,-1
 199 564 l 1,9,-1
 199 698 l 1,10,-1
 86 698 l 1,11,-1
 86 0 l 1,12,-1
 199 0 l 1,0,-1
379 243 m 2,13,-1
 199 243 l 1,14,-1
 199 465 l 1,15,-1
 379 465 l 2,16,17
 422 465 422 465 446 442.5 c 128,-1,18
 470 420 470 420 470 378 c 2,19,-1
 470 330 l 2,20,21
 470 246 470 246 379 243 c 2,13,-1
EndSplineSet
EndChar

StartChar: germandbls
Encoding: 223 223 158
Width: 662
Flags: W
LayerCount: 2
Fore
SplineSet
450 -12 m 0,0,1
 533 -12 533 -12 584.5 33.5 c 128,-1,2
 636 79 636 79 636 159 c 0,3,4
 636 219 636 219 604.5 253 c 128,-1,5
 573 287 573 287 507 304 c 2,6,-1
 477 313 l 2,7,8
 442 322 442 322 423.5 336.5 c 128,-1,9
 405 351 405 351 405 383 c 0,10,11
 405 419 405 419 433 434 c 128,-1,12
 461 449 461 449 517 449 c 2,13,-1
 568 449 l 1,14,-1
 568 525 l 2,15,16
 568 625 568 625 508.5 688.5 c 128,-1,17
 449 752 449 752 338 752 c 256,18,19
 227 752 227 752 166 690 c 128,-1,20
 105 628 105 628 105 520 c 1,21,-1
 26 520 l 1,22,-1
 26 431 l 1,23,-1
 105 431 l 1,24,-1
 105 0 l 1,25,-1
 214 0 l 1,26,-1
 214 529 l 2,27,28
 214 666 214 666 339 666 c 0,29,30
 404 666 404 666 434.5 630.5 c 128,-1,31
 465 595 465 595 465 525 c 1,32,33
 389 517 389 517 346 478.5 c 128,-1,34
 303 440 303 440 303 375 c 256,35,36
 303 310 303 310 339 277 c 128,-1,37
 375 244 375 244 435 228 c 2,38,-1
 466 220 l 2,39,40
 534 205 534 205 534 146 c 0,41,42
 534 76 534 76 452 74 c 0,43,44
 383 74 383 74 335 132 c 1,45,-1
 269 68 l 1,46,47
 330 -12 330 -12 450 -12 c 0,0,1
EndSplineSet
EndChar

StartChar: agrave
Encoding: 224 224 159
Width: 538
Flags: W
LayerCount: 2
Fore
SplineSet
249 582 m 1,0,-1
 317 615 l 1,1,-1
 226 795 l 1,2,-1
 131 749 l 1,3,-1
 249 582 l 1,0,-1
208 -12 m 0,4,5
 127 -12 127 -12 83.5 30 c 128,-1,6
 40 72 40 72 40 143 c 0,7,8
 40 299 40 299 262 299 c 2,9,-1
 356 299 l 1,10,-1
 356 343 l 2,11,12
 356 443 356 443 249 443 c 0,13,14
 203 443 203 443 174 423 c 128,-1,15
 145 403 145 403 125 372 c 1,16,-1
 60 431 l 1,17,18
 118 532 118 532 256 532 c 0,19,20
 357 532 357 532 411 485 c 128,-1,21
 465 438 465 438 465 350 c 2,22,-1
 465 0 l 1,23,-1
 365 0 l 1,24,-1
 365 87 l 1,25,-1
 360 87 l 1,26,27
 345 38 345 38 305 13 c 128,-1,28
 265 -12 265 -12 208 -12 c 0,4,5
239 71 m 0,29,30
 290 71 290 71 323 93.5 c 128,-1,31
 356 116 356 116 356 154 c 2,32,-1
 356 229 l 1,33,-1
 264 229 l 2,34,35
 152 229 152 229 151 159 c 2,36,-1
 151 141 l 2,37,38
 151 71 151 71 239 71 c 0,29,30
EndSplineSet
EndChar

StartChar: aacute
Encoding: 225 225 160
Width: 538
Flags: W
LayerCount: 2
Fore
SplineSet
271 582 m 1,0,-1
 389 749 l 1,1,-1
 294 795 l 1,2,-1
 203 615 l 1,3,-1
 271 582 l 1,0,-1
208 -12 m 0,4,5
 127 -12 127 -12 83.5 30 c 128,-1,6
 40 72 40 72 40 143 c 0,7,8
 40 299 40 299 262 299 c 2,9,-1
 356 299 l 1,10,-1
 356 343 l 2,11,12
 356 443 356 443 249 443 c 0,13,14
 203 443 203 443 174 423 c 128,-1,15
 145 403 145 403 125 372 c 1,16,-1
 60 431 l 1,17,18
 118 532 118 532 256 532 c 0,19,20
 357 532 357 532 411 485 c 128,-1,21
 465 438 465 438 465 350 c 2,22,-1
 465 0 l 1,23,-1
 365 0 l 1,24,-1
 365 87 l 1,25,-1
 360 87 l 1,26,27
 345 38 345 38 305 13 c 128,-1,28
 265 -12 265 -12 208 -12 c 0,4,5
239 71 m 0,29,30
 290 71 290 71 323 93.5 c 128,-1,31
 356 116 356 116 356 154 c 2,32,-1
 356 229 l 1,33,-1
 264 229 l 2,34,35
 152 229 152 229 151 159 c 2,36,-1
 151 141 l 2,37,38
 151 71 151 71 239 71 c 0,29,30
EndSplineSet
EndChar

StartChar: acircumflex
Encoding: 226 226 161
Width: 538
Flags: W
LayerCount: 2
Fore
SplineSet
379 585 m 1,0,-1
 435 628 l 1,1,-1
 315 778 l 1,2,-1
 205 778 l 1,3,-1
 85 628 l 1,4,-1
 141 585 l 1,5,-1
 260 702 l 1,6,-1
 379 585 l 1,0,-1
208 -12 m 0,7,8
 127 -12 127 -12 83.5 30 c 128,-1,9
 40 72 40 72 40 143 c 0,10,11
 40 299 40 299 262 299 c 2,12,-1
 356 299 l 1,13,-1
 356 343 l 2,14,15
 356 443 356 443 249 443 c 0,16,17
 203 443 203 443 174 423 c 128,-1,18
 145 403 145 403 125 372 c 1,19,-1
 60 431 l 1,20,21
 118 532 118 532 256 532 c 0,22,23
 357 532 357 532 411 485 c 128,-1,24
 465 438 465 438 465 350 c 2,25,-1
 465 0 l 1,26,-1
 365 0 l 1,27,-1
 365 87 l 1,28,-1
 360 87 l 1,29,30
 345 38 345 38 305 13 c 128,-1,31
 265 -12 265 -12 208 -12 c 0,7,8
239 71 m 0,32,33
 290 71 290 71 323 93.5 c 128,-1,34
 356 116 356 116 356 154 c 2,35,-1
 356 229 l 1,36,-1
 264 229 l 2,37,38
 152 229 152 229 151 159 c 2,39,-1
 151 141 l 2,40,41
 151 71 151 71 239 71 c 0,32,33
EndSplineSet
EndChar

StartChar: atilde
Encoding: 227 227 162
Width: 538
Flags: W
LayerCount: 2
Fore
SplineSet
334 607 m 0,0,1
 401 607 401 607 437 665 c 1,2,-1
 396 717 l 1,3,4
 381 704 381 704 368 697 c 128,-1,5
 355 690 355 690 338 690 c 0,6,7
 307 690 307 690 264 714 c 2,8,-1
 256 718 l 2,9,10
 241 726 241 726 224.5 732 c 128,-1,11
 208 738 208 738 186 738 c 0,12,13
 119 738 119 738 83 680 c 1,14,-1
 124 628 l 1,15,16
 139 641 139 641 152 648 c 128,-1,17
 165 655 165 655 182 655 c 0,18,19
 214 655 214 655 256 631 c 2,20,-1
 264 627 l 2,21,22
 279 619 279 619 295.5 613 c 128,-1,23
 312 607 312 607 334 607 c 0,0,1
208 -12 m 0,24,25
 127 -12 127 -12 83.5 30 c 128,-1,26
 40 72 40 72 40 143 c 0,27,28
 40 299 40 299 262 299 c 2,29,-1
 356 299 l 1,30,-1
 356 343 l 2,31,32
 356 443 356 443 249 443 c 0,33,34
 203 443 203 443 174 423 c 128,-1,35
 145 403 145 403 125 372 c 1,36,-1
 60 431 l 1,37,38
 118 532 118 532 256 532 c 0,39,40
 357 532 357 532 411 485 c 128,-1,41
 465 438 465 438 465 350 c 2,42,-1
 465 0 l 1,43,-1
 365 0 l 1,44,-1
 365 87 l 1,45,-1
 360 87 l 1,46,47
 345 38 345 38 305 13 c 128,-1,48
 265 -12 265 -12 208 -12 c 0,24,25
239 71 m 0,49,50
 290 71 290 71 323 93.5 c 128,-1,51
 356 116 356 116 356 154 c 2,52,-1
 356 229 l 1,53,-1
 264 229 l 2,54,55
 152 229 152 229 151 159 c 2,56,-1
 151 141 l 2,57,58
 151 71 151 71 239 71 c 0,49,50
EndSplineSet
EndChar

StartChar: adieresis
Encoding: 228 228 163
Width: 538
Flags: W
LayerCount: 2
Fore
SplineSet
160 610 m 256,0,1
 222 610 222 610 222 663 c 2,2,-1
 222 681 l 2,3,4
 222 734 222 734 160 734 c 256,5,6
 98 734 98 734 98 681 c 2,7,-1
 98 663 l 2,8,9
 98 610 98 610 160 610 c 256,0,1
360 610 m 256,10,11
 422 610 422 610 422 663 c 2,12,-1
 422 681 l 2,13,14
 422 734 422 734 360 734 c 256,15,16
 298 734 298 734 298 681 c 2,17,-1
 298 663 l 2,18,19
 298 610 298 610 360 610 c 256,10,11
208 -12 m 0,20,21
 127 -12 127 -12 83.5 30 c 128,-1,22
 40 72 40 72 40 143 c 0,23,24
 40 299 40 299 262 299 c 2,25,-1
 356 299 l 1,26,-1
 356 343 l 2,27,28
 356 443 356 443 249 443 c 0,29,30
 203 443 203 443 174 423 c 128,-1,31
 145 403 145 403 125 372 c 1,32,-1
 60 431 l 1,33,34
 118 532 118 532 256 532 c 0,35,36
 357 532 357 532 411 485 c 128,-1,37
 465 438 465 438 465 350 c 2,38,-1
 465 0 l 1,39,-1
 365 0 l 1,40,-1
 365 87 l 1,41,-1
 360 87 l 1,42,43
 345 38 345 38 305 13 c 128,-1,44
 265 -12 265 -12 208 -12 c 0,20,21
239 71 m 0,45,46
 290 71 290 71 323 93.5 c 128,-1,47
 356 116 356 116 356 154 c 2,48,-1
 356 229 l 1,49,-1
 264 229 l 2,50,51
 152 229 152 229 151 159 c 2,52,-1
 151 141 l 2,53,54
 151 71 151 71 239 71 c 0,45,46
EndSplineSet
EndChar

StartChar: aring
Encoding: 229 229 164
Width: 538
Flags: W
LayerCount: 2
Fore
SplineSet
260 568 m 0,0,1
 316 568 316 568 353 604 c 128,-1,2
 390 640 390 640 390 695 c 256,3,4
 390 750 390 750 353 786 c 128,-1,5
 316 822 316 822 260 822 c 0,6,7
 203 822 203 822 166.5 785 c 128,-1,8
 130 748 130 748 130 695 c 256,9,10
 130 642 130 642 166.5 605 c 128,-1,11
 203 568 203 568 260 568 c 0,0,1
260 628 m 0,12,13
 205 628 205 628 205 681 c 2,14,-1
 205 709 l 2,15,16
 205 762 205 762 260 762 c 256,17,18
 315 762 315 762 315 711 c 2,19,-1
 315 681 l 2,20,21
 315 629 315 629 260 628 c 0,12,13
208 -12 m 0,22,23
 127 -12 127 -12 83.5 30 c 128,-1,24
 40 72 40 72 40 143 c 0,25,26
 40 299 40 299 262 299 c 2,27,-1
 356 299 l 1,28,-1
 356 343 l 2,29,30
 356 443 356 443 249 443 c 0,31,32
 203 443 203 443 174 423 c 128,-1,33
 145 403 145 403 125 372 c 1,34,-1
 60 431 l 1,35,36
 118 532 118 532 256 532 c 0,37,38
 357 532 357 532 411 485 c 128,-1,39
 465 438 465 438 465 350 c 2,40,-1
 465 0 l 1,41,-1
 365 0 l 1,42,-1
 365 87 l 1,43,-1
 360 87 l 1,44,45
 345 38 345 38 305 13 c 128,-1,46
 265 -12 265 -12 208 -12 c 0,22,23
239 71 m 0,47,48
 290 71 290 71 323 93.5 c 128,-1,49
 356 116 356 116 356 154 c 2,50,-1
 356 229 l 1,51,-1
 264 229 l 2,52,53
 152 229 152 229 151 159 c 2,54,-1
 151 141 l 2,55,56
 151 71 151 71 239 71 c 0,47,48
EndSplineSet
EndChar

StartChar: ae
Encoding: 230 230 165
Width: 865
Flags: W
LayerCount: 2
Fore
SplineSet
241 71 m 0,0,1
 156 71 156 71 151 143 c 1,2,-1
 151 161 l 2,3,4
 151 230 151 230 264 232 c 2,5,-1
 356 232 l 1,6,-1
 356 154 l 2,7,8
 356 116 356 116 322.5 93.5 c 128,-1,9
 289 71 289 71 241 71 c 0,0,1
707 304 m 1,10,-1
 465 304 l 1,11,12
 465 371 465 371 500.5 409 c 128,-1,13
 536 447 536 447 591 447 c 0,14,15
 645 447 645 447 676 410.5 c 128,-1,16
 707 374 707 374 707 314 c 2,17,-1
 707 304 l 1,10,-1
599 -12 m 0,18,19
 668 -12 668 -12 721 16 c 128,-1,20
 774 44 774 44 804 93 c 1,21,-1
 740 155 l 1,22,23
 695 78 695 78 604 78 c 0,24,25
 538 78 538 78 501.5 116.5 c 128,-1,26
 465 155 465 155 465 215 c 2,27,-1
 465 232 l 1,28,-1
 822 232 l 1,29,-1
 822 273 l 2,30,31
 822 342 822 342 798.5 401 c 128,-1,32
 775 460 775 460 725 496 c 128,-1,33
 675 532 675 532 597 532 c 0,34,35
 529 532 529 532 482.5 502.5 c 128,-1,36
 436 473 436 473 418 434 c 1,37,-1
 412 434 l 1,38,39
 401 459 401 459 382.5 481 c 128,-1,40
 364 503 364 503 334 517.5 c 128,-1,41
 304 532 304 532 256 532 c 0,42,43
 118 532 118 532 60 431 c 1,44,-1
 125 373 l 1,45,46
 145 404 145 404 173.5 423.5 c 128,-1,47
 202 443 202 443 250 443 c 0,48,49
 356 443 356 443 356 343 c 2,50,-1
 356 304 l 1,51,-1
 262 304 l 2,52,53
 156 304 156 304 98 263 c 128,-1,54
 40 222 40 222 40 143 c 0,55,56
 40 74 40 74 84.5 31 c 128,-1,57
 129 -12 129 -12 208 -12 c 0,58,59
 264 -12 264 -12 303.5 5.5 c 128,-1,60
 343 23 343 23 366 48 c 128,-1,61
 389 73 389 73 396 98 c 1,62,-1
 402 98 l 1,63,64
 411 73 411 73 437 48 c 128,-1,65
 463 23 463 23 504 5.5 c 128,-1,66
 545 -12 545 -12 599 -12 c 0,18,19
EndSplineSet
EndChar

StartChar: ccedilla
Encoding: 231 231 166
Width: 510
Flags: W
LayerCount: 2
Fore
SplineSet
283 -209 m 0,0,1
 330 -209 330 -209 366.5 -188.5 c 128,-1,2
 403 -168 403 -168 403 -123 c 0,3,4
 403 -88 403 -88 382.5 -71.5 c 128,-1,5
 362 -55 362 -55 333 -55 c 0,6,7
 311 -55 311 -55 290 -62 c 1,8,-1
 287 -58 l 1,9,-1
 296 -12 l 1,10,11
 435 -1 435 -1 484 120 c 1,12,-1
 401 164 l 1,13,14
 384 125 384 125 355.5 101.5 c 128,-1,15
 327 78 327 78 279 78 c 0,16,17
 219 78 219 78 188.5 115.5 c 128,-1,18
 158 153 158 153 158 213 c 2,19,-1
 158 306 l 2,20,21
 158 366 158 366 188.5 403.5 c 128,-1,22
 219 441 219 441 279 441 c 0,23,24
 366 441 366 441 390 362 c 1,25,-1
 480 404 l 1,26,27
 457 463 457 463 407 497.5 c 128,-1,28
 357 532 357 532 279 532 c 256,29,30
 201 532 201 532 148.5 497 c 128,-1,31
 96 462 96 462 69.5 401 c 128,-1,32
 43 340 43 340 43 260 c 0,33,34
 43 146 43 146 94 75.5 c 128,-1,35
 145 5 145 5 239 -9 c 1,36,-1
 226 -76 l 1,37,38
 260 -80 260 -80 279 -83.5 c 128,-1,39
 298 -87 298 -87 308 -95 c 0,40,41
 322 -107 322 -107 322 -119 c 0,42,43
 322 -134 322 -134 309.5 -141 c 128,-1,44
 297 -148 297 -148 278 -148 c 0,45,46
 236 -148 236 -148 215 -119 c 1,47,-1
 173 -167 l 1,48,49
 206 -209 206 -209 283 -209 c 0,0,1
EndSplineSet
EndChar

StartChar: egrave
Encoding: 232 232 167
Width: 556
Flags: W
LayerCount: 2
Fore
SplineSet
282 -12 m 0,0,1
 355 -12 355 -12 409.5 16 c 128,-1,2
 464 44 464 44 494 93 c 1,3,-1
 430 156 l 1,4,5
 381 78 381 78 293 78 c 0,6,7
 227 78 227 78 191.5 116.5 c 128,-1,8
 156 155 156 155 156 215 c 2,9,-1
 156 232 l 1,10,-1
 513 232 l 1,11,-1
 513 273 l 2,12,13
 513 341 513 341 488.5 400 c 128,-1,14
 464 459 464 459 413 495.5 c 128,-1,15
 362 532 362 532 282 532 c 0,16,17
 166 532 166 532 104.5 455.5 c 128,-1,18
 43 379 43 379 43 260 c 0,19,20
 43 133 43 133 108 60.5 c 128,-1,21
 173 -12 173 -12 282 -12 c 0,0,1
398 304 m 1,22,-1
 156 304 l 1,23,24
 156 371 156 371 191.5 409 c 128,-1,25
 227 447 227 447 282 447 c 0,26,27
 336 447 336 447 367 410.5 c 128,-1,28
 398 374 398 374 398 314 c 2,29,-1
 398 304 l 1,22,-1
273 582 m 1,30,-1
 341 615 l 1,31,-1
 250 795 l 1,32,-1
 155 749 l 1,33,-1
 273 582 l 1,30,-1
EndSplineSet
EndChar

StartChar: eacute
Encoding: 233 233 168
Width: 556
Flags: W
LayerCount: 2
Fore
SplineSet
282 -12 m 0,0,1
 355 -12 355 -12 409.5 16 c 128,-1,2
 464 44 464 44 494 93 c 1,3,-1
 430 156 l 1,4,5
 381 78 381 78 293 78 c 0,6,7
 227 78 227 78 191.5 116.5 c 128,-1,8
 156 155 156 155 156 215 c 2,9,-1
 156 232 l 1,10,-1
 513 232 l 1,11,-1
 513 273 l 2,12,13
 513 341 513 341 488.5 400 c 128,-1,14
 464 459 464 459 413 495.5 c 128,-1,15
 362 532 362 532 282 532 c 0,16,17
 166 532 166 532 104.5 455.5 c 128,-1,18
 43 379 43 379 43 260 c 0,19,20
 43 133 43 133 108 60.5 c 128,-1,21
 173 -12 173 -12 282 -12 c 0,0,1
398 304 m 1,22,-1
 156 304 l 1,23,24
 156 371 156 371 191.5 409 c 128,-1,25
 227 447 227 447 282 447 c 0,26,27
 336 447 336 447 367 410.5 c 128,-1,28
 398 374 398 374 398 314 c 2,29,-1
 398 304 l 1,22,-1
295 582 m 1,30,-1
 413 749 l 1,31,-1
 318 795 l 1,32,-1
 227 615 l 1,33,-1
 295 582 l 1,30,-1
EndSplineSet
EndChar

StartChar: ecircumflex
Encoding: 234 234 169
Width: 556
Flags: W
LayerCount: 2
Fore
SplineSet
282 -12 m 0,0,1
 355 -12 355 -12 409.5 16 c 128,-1,2
 464 44 464 44 494 93 c 1,3,-1
 430 156 l 1,4,5
 381 78 381 78 293 78 c 0,6,7
 227 78 227 78 191.5 116.5 c 128,-1,8
 156 155 156 155 156 215 c 2,9,-1
 156 232 l 1,10,-1
 513 232 l 1,11,-1
 513 273 l 2,12,13
 513 341 513 341 488.5 400 c 128,-1,14
 464 459 464 459 413 495.5 c 128,-1,15
 362 532 362 532 282 532 c 0,16,17
 166 532 166 532 104.5 455.5 c 128,-1,18
 43 379 43 379 43 260 c 0,19,20
 43 133 43 133 108 60.5 c 128,-1,21
 173 -12 173 -12 282 -12 c 0,0,1
398 304 m 1,22,-1
 156 304 l 1,23,24
 156 371 156 371 191.5 409 c 128,-1,25
 227 447 227 447 282 447 c 0,26,27
 336 447 336 447 367 410.5 c 128,-1,28
 398 374 398 374 398 314 c 2,29,-1
 398 304 l 1,22,-1
403 585 m 1,30,-1
 459 628 l 1,31,-1
 339 778 l 1,32,-1
 229 778 l 1,33,-1
 109 628 l 1,34,-1
 165 585 l 1,35,-1
 284 702 l 1,36,-1
 403 585 l 1,30,-1
EndSplineSet
EndChar

StartChar: edieresis
Encoding: 235 235 170
Width: 556
Flags: W
LayerCount: 2
Fore
SplineSet
282 -12 m 0,0,1
 355 -12 355 -12 409.5 16 c 128,-1,2
 464 44 464 44 494 93 c 1,3,-1
 430 156 l 1,4,5
 381 78 381 78 293 78 c 0,6,7
 227 78 227 78 191.5 116.5 c 128,-1,8
 156 155 156 155 156 215 c 2,9,-1
 156 232 l 1,10,-1
 513 232 l 1,11,-1
 513 273 l 2,12,13
 513 341 513 341 488.5 400 c 128,-1,14
 464 459 464 459 413 495.5 c 128,-1,15
 362 532 362 532 282 532 c 0,16,17
 166 532 166 532 104.5 455.5 c 128,-1,18
 43 379 43 379 43 260 c 0,19,20
 43 133 43 133 108 60.5 c 128,-1,21
 173 -12 173 -12 282 -12 c 0,0,1
398 304 m 1,22,-1
 156 304 l 1,23,24
 156 371 156 371 191.5 409 c 128,-1,25
 227 447 227 447 282 447 c 0,26,27
 336 447 336 447 367 410.5 c 128,-1,28
 398 374 398 374 398 314 c 2,29,-1
 398 304 l 1,22,-1
184 610 m 256,30,31
 246 610 246 610 246 663 c 2,32,-1
 246 681 l 2,33,34
 246 734 246 734 184 734 c 256,35,36
 122 734 122 734 122 681 c 2,37,-1
 122 663 l 2,38,39
 122 610 122 610 184 610 c 256,30,31
384 610 m 256,40,41
 446 610 446 610 446 663 c 2,42,-1
 446 681 l 2,43,44
 446 734 446 734 384 734 c 256,45,46
 322 734 322 734 322 681 c 2,47,-1
 322 663 l 2,48,49
 322 610 322 610 384 610 c 256,40,41
EndSplineSet
EndChar

StartChar: igrave
Encoding: 236 236 171
Width: 265
Flags: W
LayerCount: 2
Fore
SplineSet
187 0 m 1,0,-1
 187 520 l 1,1,-1
 78 520 l 1,2,-1
 78 0 l 1,3,-1
 187 0 l 1,0,-1
123 582 m 1,4,-1
 191 615 l 1,5,-1
 100 795 l 1,6,-1
 5 749 l 1,7,-1
 123 582 l 1,4,-1
EndSplineSet
EndChar

StartChar: iacute
Encoding: 237 237 172
Width: 265
Flags: W
LayerCount: 2
Fore
SplineSet
187 0 m 1,0,-1
 187 520 l 1,1,-1
 78 520 l 1,2,-1
 78 0 l 1,3,-1
 187 0 l 1,0,-1
145 582 m 1,4,-1
 263 749 l 1,5,-1
 168 795 l 1,6,-1
 77 615 l 1,7,-1
 145 582 l 1,4,-1
EndSplineSet
EndChar

StartChar: icircumflex
Encoding: 238 238 173
Width: 265
Flags: W
LayerCount: 2
Fore
SplineSet
187 0 m 1,0,-1
 187 520 l 1,1,-1
 78 520 l 1,2,-1
 78 0 l 1,3,-1
 187 0 l 1,0,-1
253 585 m 1,4,-1
 309 628 l 1,5,-1
 189 778 l 1,6,-1
 79 778 l 1,7,-1
 -41 628 l 1,8,-1
 15 585 l 1,9,-1
 134 702 l 1,10,-1
 253 585 l 1,4,-1
EndSplineSet
EndChar

StartChar: idieresis
Encoding: 239 239 174
Width: 265
Flags: W
LayerCount: 2
Fore
SplineSet
187 0 m 1,0,-1
 187 520 l 1,1,-1
 78 520 l 1,2,-1
 78 0 l 1,3,-1
 187 0 l 1,0,-1
34 610 m 256,4,5
 96 610 96 610 96 663 c 2,6,-1
 96 681 l 2,7,8
 96 734 96 734 34 734 c 256,9,10
 -28 734 -28 734 -28 681 c 2,11,-1
 -28 663 l 2,12,13
 -28 610 -28 610 34 610 c 256,4,5
234 610 m 256,14,15
 296 610 296 610 296 663 c 2,16,-1
 296 681 l 2,17,18
 296 734 296 734 234 734 c 256,19,20
 172 734 172 734 172 681 c 2,21,-1
 172 663 l 2,22,23
 172 610 172 610 234 610 c 256,14,15
EndSplineSet
EndChar

StartChar: eth
Encoding: 240 240 175
Width: 574
Flags: W
LayerCount: 2
Fore
SplineSet
286 -12 m 0,0,1
 395 -12 395 -12 460 60 c 128,-1,2
 525 132 525 132 525 274 c 0,3,4
 525 495 525 495 367 653 c 1,5,-1
 443 704 l 1,6,-1
 403 753 l 1,7,-1
 319 697 l 1,8,9
 289 722 289 722 260 740 c 1,10,-1
 93 740 l 1,11,12
 168 698 168 698 236 644 c 1,13,-1
 162 595 l 1,14,-1
 201 546 l 1,15,-1
 285 600 l 1,16,17
 379 514 379 514 406 407 c 1,18,-1
 400 404 l 1,19,20
 360 502 360 502 259 502 c 256,21,22
 158 502 158 502 101 430 c 128,-1,23
 44 358 44 358 44 249 c 0,24,25
 44 131 44 131 109.5 59.5 c 128,-1,26
 175 -12 175 -12 286 -12 c 0,0,1
285 75 m 256,27,28
 228 75 228 75 193.5 111.5 c 128,-1,29
 159 148 159 148 159 214 c 2,30,-1
 159 276 l 2,31,32
 159 342 159 342 193.5 378.5 c 128,-1,33
 228 415 228 415 285 415 c 256,34,35
 342 415 342 415 376.5 378.5 c 128,-1,36
 411 342 411 342 411 276 c 2,37,-1
 411 214 l 2,38,39
 411 148 411 148 376.5 111.5 c 128,-1,40
 342 75 342 75 285 75 c 256,27,28
EndSplineSet
EndChar

StartChar: ntilde
Encoding: 241 241 176
Width: 580
Flags: W
LayerCount: 2
Fore
SplineSet
507 0 m 1,0,-1
 507 330 l 2,1,2
 507 427 507 427 462.5 479.5 c 128,-1,3
 418 532 418 532 338 532 c 0,4,5
 230 532 230 532 192 434 c 1,6,-1
 187 434 l 1,7,-1
 187 520 l 1,8,-1
 78 520 l 1,9,-1
 78 0 l 1,10,-1
 187 0 l 1,11,-1
 187 348 l 2,12,13
 187 395 187 395 222.5 416.5 c 128,-1,14
 258 438 258 438 300 438 c 0,15,16
 398 438 398 438 398 316 c 2,17,-1
 398 0 l 1,18,-1
 507 0 l 1,0,-1
368 607 m 0,19,20
 435 607 435 607 471 665 c 1,21,-1
 430 717 l 1,22,23
 415 704 415 704 402 697 c 128,-1,24
 389 690 389 690 372 690 c 0,25,26
 341 690 341 690 298 714 c 2,27,-1
 290 718 l 2,28,29
 275 726 275 726 258.5 732 c 128,-1,30
 242 738 242 738 220 738 c 0,31,32
 153 738 153 738 117 680 c 1,33,-1
 158 628 l 1,34,35
 173 641 173 641 186 648 c 128,-1,36
 199 655 199 655 216 655 c 0,37,38
 248 655 248 655 290 631 c 2,39,-1
 298 627 l 2,40,41
 313 619 313 619 329.5 613 c 128,-1,42
 346 607 346 607 368 607 c 0,19,20
EndSplineSet
EndChar

StartChar: ograve
Encoding: 242 242 177
Width: 564
Flags: W
LayerCount: 2
Fore
SplineSet
282 -12 m 256,0,1
 394 -12 394 -12 457.5 64 c 128,-1,2
 521 140 521 140 521 260 c 0,3,4
 521 388 521 388 454.5 460 c 128,-1,5
 388 532 388 532 282 532 c 256,6,7
 176 532 176 532 109.5 460 c 128,-1,8
 43 388 43 388 43 260 c 0,9,10
 43 140 43 140 106.5 64 c 128,-1,11
 170 -12 170 -12 282 -12 c 256,0,1
282 78 m 256,12,13
 226 78 226 78 192 112.5 c 128,-1,14
 158 147 158 147 158 216 c 2,15,-1
 158 304 l 2,16,17
 158 373 158 373 192 407.5 c 128,-1,18
 226 442 226 442 282 442 c 256,19,20
 338 442 338 442 372 407.5 c 128,-1,21
 406 373 406 373 406 304 c 2,22,-1
 406 216 l 2,23,24
 406 147 406 147 372 112.5 c 128,-1,25
 338 78 338 78 282 78 c 256,12,13
271 582 m 1,26,-1
 339 615 l 1,27,-1
 248 795 l 1,28,-1
 153 749 l 1,29,-1
 271 582 l 1,26,-1
EndSplineSet
EndChar

StartChar: oacute
Encoding: 243 243 178
Width: 564
Flags: W
LayerCount: 2
Fore
SplineSet
282 -12 m 256,0,1
 394 -12 394 -12 457.5 64 c 128,-1,2
 521 140 521 140 521 260 c 0,3,4
 521 388 521 388 454.5 460 c 128,-1,5
 388 532 388 532 282 532 c 256,6,7
 176 532 176 532 109.5 460 c 128,-1,8
 43 388 43 388 43 260 c 0,9,10
 43 140 43 140 106.5 64 c 128,-1,11
 170 -12 170 -12 282 -12 c 256,0,1
282 78 m 256,12,13
 226 78 226 78 192 112.5 c 128,-1,14
 158 147 158 147 158 216 c 2,15,-1
 158 304 l 2,16,17
 158 373 158 373 192 407.5 c 128,-1,18
 226 442 226 442 282 442 c 256,19,20
 338 442 338 442 372 407.5 c 128,-1,21
 406 373 406 373 406 304 c 2,22,-1
 406 216 l 2,23,24
 406 147 406 147 372 112.5 c 128,-1,25
 338 78 338 78 282 78 c 256,12,13
293 582 m 1,26,-1
 411 749 l 1,27,-1
 316 795 l 1,28,-1
 225 615 l 1,29,-1
 293 582 l 1,26,-1
EndSplineSet
EndChar

StartChar: ocircumflex
Encoding: 244 244 179
Width: 564
Flags: W
LayerCount: 2
Fore
SplineSet
282 -12 m 256,0,1
 394 -12 394 -12 457.5 64 c 128,-1,2
 521 140 521 140 521 260 c 0,3,4
 521 388 521 388 454.5 460 c 128,-1,5
 388 532 388 532 282 532 c 256,6,7
 176 532 176 532 109.5 460 c 128,-1,8
 43 388 43 388 43 260 c 0,9,10
 43 140 43 140 106.5 64 c 128,-1,11
 170 -12 170 -12 282 -12 c 256,0,1
282 78 m 256,12,13
 226 78 226 78 192 112.5 c 128,-1,14
 158 147 158 147 158 216 c 2,15,-1
 158 304 l 2,16,17
 158 373 158 373 192 407.5 c 128,-1,18
 226 442 226 442 282 442 c 256,19,20
 338 442 338 442 372 407.5 c 128,-1,21
 406 373 406 373 406 304 c 2,22,-1
 406 216 l 2,23,24
 406 147 406 147 372 112.5 c 128,-1,25
 338 78 338 78 282 78 c 256,12,13
401 585 m 1,26,-1
 457 628 l 1,27,-1
 337 778 l 1,28,-1
 227 778 l 1,29,-1
 107 628 l 1,30,-1
 163 585 l 1,31,-1
 282 702 l 1,32,-1
 401 585 l 1,26,-1
EndSplineSet
EndChar

StartChar: otilde
Encoding: 245 245 180
Width: 564
Flags: W
LayerCount: 2
Fore
SplineSet
282 -12 m 256,0,1
 394 -12 394 -12 457.5 64 c 128,-1,2
 521 140 521 140 521 260 c 0,3,4
 521 388 521 388 454.5 460 c 128,-1,5
 388 532 388 532 282 532 c 256,6,7
 176 532 176 532 109.5 460 c 128,-1,8
 43 388 43 388 43 260 c 0,9,10
 43 140 43 140 106.5 64 c 128,-1,11
 170 -12 170 -12 282 -12 c 256,0,1
282 78 m 256,12,13
 226 78 226 78 192 112.5 c 128,-1,14
 158 147 158 147 158 216 c 2,15,-1
 158 304 l 2,16,17
 158 373 158 373 192 407.5 c 128,-1,18
 226 442 226 442 282 442 c 256,19,20
 338 442 338 442 372 407.5 c 128,-1,21
 406 373 406 373 406 304 c 2,22,-1
 406 216 l 2,23,24
 406 147 406 147 372 112.5 c 128,-1,25
 338 78 338 78 282 78 c 256,12,13
356 607 m 0,26,27
 423 607 423 607 459 665 c 1,28,-1
 418 717 l 1,29,30
 403 704 403 704 390 697 c 128,-1,31
 377 690 377 690 360 690 c 0,32,33
 329 690 329 690 286 714 c 2,34,-1
 278 718 l 2,35,36
 263 726 263 726 246.5 732 c 128,-1,37
 230 738 230 738 208 738 c 0,38,39
 141 738 141 738 105 680 c 1,40,-1
 146 628 l 1,41,42
 161 641 161 641 174 648 c 128,-1,43
 187 655 187 655 204 655 c 0,44,45
 236 655 236 655 278 631 c 2,46,-1
 286 627 l 2,47,48
 301 619 301 619 317.5 613 c 128,-1,49
 334 607 334 607 356 607 c 0,26,27
EndSplineSet
EndChar

StartChar: odieresis
Encoding: 246 246 181
Width: 564
Flags: W
LayerCount: 2
Fore
SplineSet
282 -12 m 256,0,1
 394 -12 394 -12 457.5 64 c 128,-1,2
 521 140 521 140 521 260 c 0,3,4
 521 388 521 388 454.5 460 c 128,-1,5
 388 532 388 532 282 532 c 256,6,7
 176 532 176 532 109.5 460 c 128,-1,8
 43 388 43 388 43 260 c 0,9,10
 43 140 43 140 106.5 64 c 128,-1,11
 170 -12 170 -12 282 -12 c 256,0,1
282 78 m 256,12,13
 226 78 226 78 192 112.5 c 128,-1,14
 158 147 158 147 158 216 c 2,15,-1
 158 304 l 2,16,17
 158 373 158 373 192 407.5 c 128,-1,18
 226 442 226 442 282 442 c 256,19,20
 338 442 338 442 372 407.5 c 128,-1,21
 406 373 406 373 406 304 c 2,22,-1
 406 216 l 2,23,24
 406 147 406 147 372 112.5 c 128,-1,25
 338 78 338 78 282 78 c 256,12,13
182 610 m 256,26,27
 244 610 244 610 244 663 c 2,28,-1
 244 681 l 2,29,30
 244 734 244 734 182 734 c 256,31,32
 120 734 120 734 120 681 c 2,33,-1
 120 663 l 2,34,35
 120 610 120 610 182 610 c 256,26,27
382 610 m 256,36,37
 444 610 444 610 444 663 c 2,38,-1
 444 681 l 2,39,40
 444 734 444 734 382 734 c 256,41,42
 320 734 320 734 320 681 c 2,43,-1
 320 663 l 2,44,45
 320 610 320 610 382 610 c 256,36,37
EndSplineSet
EndChar

StartChar: divide
Encoding: 247 247 182
Width: 600
Flags: W
LayerCount: 2
Fore
SplineSet
533 261 m 1,0,-1
 533 350 l 1,1,-1
 67 350 l 1,2,-1
 67 261 l 1,3,-1
 533 261 l 1,0,-1
300 42 m 256,4,5
 340 42 340 42 356.5 59 c 128,-1,6
 373 76 373 76 373 99 c 2,7,-1
 373 122 l 2,8,9
 373 145 373 145 356.5 162 c 128,-1,10
 340 179 340 179 300 179 c 256,11,12
 260 179 260 179 243.5 162 c 128,-1,13
 227 145 227 145 227 122 c 2,14,-1
 227 99 l 2,15,16
 227 76 227 76 243.5 59 c 128,-1,17
 260 42 260 42 300 42 c 256,4,5
300 431 m 256,18,19
 340 431 340 431 356.5 448 c 128,-1,20
 373 465 373 465 373 488 c 2,21,-1
 373 511 l 2,22,23
 373 534 373 534 356.5 551 c 128,-1,24
 340 568 340 568 300 568 c 256,25,26
 260 568 260 568 243.5 551 c 128,-1,27
 227 534 227 534 227 511 c 2,28,-1
 227 488 l 2,29,30
 227 465 227 465 243.5 448 c 128,-1,31
 260 431 260 431 300 431 c 256,18,19
EndSplineSet
EndChar

StartChar: oslash
Encoding: 248 248 183
Width: 570
Flags: W
LayerCount: 2
Fore
SplineSet
86 -44 m 1,0,-1
 147 29 l 1,1,2
 203 -12 203 -12 285 -12 c 0,3,4
 397 -12 397 -12 460.5 64 c 128,-1,5
 524 140 524 140 524 260 c 0,6,7
 524 367 524 367 476 435 c 1,8,-1
 544 519 l 1,9,-1
 484 564 l 1,10,-1
 423 490 l 1,11,12
 365 532 365 532 285 532 c 0,13,14
 179 532 179 532 112.5 460 c 128,-1,15
 46 388 46 388 46 260 c 0,16,17
 46 152 46 152 93 84 c 1,18,-1
 26 1 l 1,19,-1
 86 -44 l 1,0,-1
285 75 m 0,20,21
 233 75 233 75 202 103 c 1,22,-1
 405 352 l 1,23,24
 411 329 411 329 411 302 c 2,25,-1
 411 218 l 2,26,27
 411 148 411 148 376.5 111.5 c 128,-1,28
 342 75 342 75 285 75 c 0,20,21
165 168 m 1,29,30
 159 190 159 190 159 218 c 2,31,-1
 159 302 l 2,32,33
 159 372 159 372 193.5 408.5 c 128,-1,34
 228 445 228 445 285 445 c 0,35,36
 335 445 335 445 368 416 c 1,37,-1
 165 168 l 1,29,30
EndSplineSet
EndChar

StartChar: ugrave
Encoding: 249 249 184
Width: 580
Flags: W
LayerCount: 2
Fore
SplineSet
243 -12 m 0,0,1
 357 -12 357 -12 389 86 c 1,2,-1
 393 86 l 1,3,-1
 393 0 l 1,4,-1
 502 0 l 1,5,-1
 502 520 l 1,6,-1
 393 520 l 1,7,-1
 393 172 l 2,8,9
 393 126 393 126 358.5 104 c 128,-1,10
 324 82 324 82 282 82 c 0,11,12
 182 82 182 82 182 203 c 2,13,-1
 182 520 l 1,14,-1
 73 520 l 1,15,-1
 73 189 l 2,16,17
 73 92 73 92 117.5 40 c 128,-1,18
 162 -12 162 -12 243 -12 c 0,0,1
278 582 m 1,19,-1
 346 615 l 1,20,-1
 255 795 l 1,21,-1
 160 749 l 1,22,-1
 278 582 l 1,19,-1
EndSplineSet
EndChar

StartChar: uacute
Encoding: 250 250 185
Width: 580
Flags: W
LayerCount: 2
Fore
SplineSet
243 -12 m 0,0,1
 357 -12 357 -12 389 86 c 1,2,-1
 393 86 l 1,3,-1
 393 0 l 1,4,-1
 502 0 l 1,5,-1
 502 520 l 1,6,-1
 393 520 l 1,7,-1
 393 172 l 2,8,9
 393 126 393 126 358.5 104 c 128,-1,10
 324 82 324 82 282 82 c 0,11,12
 182 82 182 82 182 203 c 2,13,-1
 182 520 l 1,14,-1
 73 520 l 1,15,-1
 73 189 l 2,16,17
 73 92 73 92 117.5 40 c 128,-1,18
 162 -12 162 -12 243 -12 c 0,0,1
300 582 m 1,19,-1
 418 749 l 1,20,-1
 323 795 l 1,21,-1
 232 615 l 1,22,-1
 300 582 l 1,19,-1
EndSplineSet
EndChar

StartChar: ucircumflex
Encoding: 251 251 186
Width: 580
Flags: W
LayerCount: 2
Fore
SplineSet
243 -12 m 0,0,1
 357 -12 357 -12 389 86 c 1,2,-1
 393 86 l 1,3,-1
 393 0 l 1,4,-1
 502 0 l 1,5,-1
 502 520 l 1,6,-1
 393 520 l 1,7,-1
 393 172 l 2,8,9
 393 126 393 126 358.5 104 c 128,-1,10
 324 82 324 82 282 82 c 0,11,12
 182 82 182 82 182 203 c 2,13,-1
 182 520 l 1,14,-1
 73 520 l 1,15,-1
 73 189 l 2,16,17
 73 92 73 92 117.5 40 c 128,-1,18
 162 -12 162 -12 243 -12 c 0,0,1
408 585 m 1,19,-1
 464 628 l 1,20,-1
 344 778 l 1,21,-1
 234 778 l 1,22,-1
 114 628 l 1,23,-1
 170 585 l 1,24,-1
 289 702 l 1,25,-1
 408 585 l 1,19,-1
EndSplineSet
EndChar

StartChar: udieresis
Encoding: 252 252 187
Width: 580
Flags: W
LayerCount: 2
Fore
SplineSet
243 -12 m 0,0,1
 357 -12 357 -12 389 86 c 1,2,-1
 393 86 l 1,3,-1
 393 0 l 1,4,-1
 502 0 l 1,5,-1
 502 520 l 1,6,-1
 393 520 l 1,7,-1
 393 172 l 2,8,9
 393 126 393 126 358.5 104 c 128,-1,10
 324 82 324 82 282 82 c 0,11,12
 182 82 182 82 182 203 c 2,13,-1
 182 520 l 1,14,-1
 73 520 l 1,15,-1
 73 189 l 2,16,17
 73 92 73 92 117.5 40 c 128,-1,18
 162 -12 162 -12 243 -12 c 0,0,1
189 610 m 256,19,20
 251 610 251 610 251 663 c 2,21,-1
 251 681 l 2,22,23
 251 734 251 734 189 734 c 256,24,25
 127 734 127 734 127 681 c 2,26,-1
 127 663 l 2,27,28
 127 610 127 610 189 610 c 256,19,20
389 610 m 256,29,30
 451 610 451 610 451 663 c 2,31,-1
 451 681 l 2,32,33
 451 734 451 734 389 734 c 256,34,35
 327 734 327 734 327 681 c 2,36,-1
 327 663 l 2,37,38
 327 610 327 610 389 610 c 256,29,30
EndSplineSet
EndChar

StartChar: yacute
Encoding: 253 253 188
Width: 514
Flags: W
LayerCount: 2
Fore
SplineSet
146 -200 m 2,0,1
 203 -200 203 -200 234 -178.5 c 128,-1,2
 265 -157 265 -157 283 -103 c 2,3,-1
 502 520 l 1,4,-1
 397 520 l 1,5,-1
 293 214 l 1,6,-1
 260 101 l 1,7,-1
 255 101 l 1,8,-1
 225 214 l 1,9,-1
 121 520 l 1,10,-1
 12 520 l 1,11,-1
 201 -23 l 1,12,-1
 171 -111 l 1,13,-1
 83 -111 l 1,14,-1
 83 -200 l 1,15,-1
 146 -200 l 2,0,1
271 582 m 1,16,-1
 389 749 l 1,17,-1
 294 795 l 1,18,-1
 203 615 l 1,19,-1
 271 582 l 1,16,-1
EndSplineSet
EndChar

StartChar: thorn
Encoding: 254 254 189
Width: 592
Flags: W
LayerCount: 2
Fore
SplineSet
187 -200 m 1,0,-1
 187 86 l 1,1,-1
 192 86 l 1,2,3
 235 -12 235 -12 338 -12 c 0,4,5
 437 -12 437 -12 491 59.5 c 128,-1,6
 545 131 545 131 545 260 c 256,7,8
 545 389 545 389 491 460.5 c 128,-1,9
 437 532 437 532 338 532 c 0,10,11
 286 532 286 532 248 506.5 c 128,-1,12
 210 481 210 481 192 434 c 1,13,-1
 187 434 l 1,14,-1
 187 740 l 1,15,-1
 78 740 l 1,16,-1
 78 -200 l 1,17,-1
 187 -200 l 1,0,-1
305 82 m 0,18,19
 255 82 255 82 221 106.5 c 128,-1,20
 187 131 187 131 187 171 c 2,21,-1
 187 349 l 2,22,23
 187 389 187 389 221 413.5 c 128,-1,24
 255 438 255 438 305 438 c 0,25,26
 362 438 362 438 396 401.5 c 128,-1,27
 430 365 430 365 430 305 c 2,28,-1
 430 215 l 2,29,30
 430 155 430 155 396 118.5 c 128,-1,31
 362 82 362 82 305 82 c 0,18,19
EndSplineSet
EndChar

StartChar: ydieresis
Encoding: 255 255 190
Width: 514
Flags: W
LayerCount: 2
Fore
SplineSet
146 -200 m 2,0,1
 203 -200 203 -200 234 -178.5 c 128,-1,2
 265 -157 265 -157 283 -103 c 2,3,-1
 502 520 l 1,4,-1
 397 520 l 1,5,-1
 293 214 l 1,6,-1
 260 101 l 1,7,-1
 255 101 l 1,8,-1
 225 214 l 1,9,-1
 121 520 l 1,10,-1
 12 520 l 1,11,-1
 201 -23 l 1,12,-1
 171 -111 l 1,13,-1
 83 -111 l 1,14,-1
 83 -200 l 1,15,-1
 146 -200 l 2,0,1
160 610 m 256,16,17
 222 610 222 610 222 663 c 2,18,-1
 222 681 l 2,19,20
 222 734 222 734 160 734 c 256,21,22
 98 734 98 734 98 681 c 2,23,-1
 98 663 l 2,24,25
 98 610 98 610 160 610 c 256,16,17
360 610 m 256,26,27
 422 610 422 610 422 663 c 2,28,-1
 422 681 l 2,29,30
 422 734 422 734 360 734 c 256,31,32
 298 734 298 734 298 681 c 2,33,-1
 298 663 l 2,34,35
 298 610 298 610 360 610 c 256,26,27
EndSplineSet
EndChar

StartChar: Amacron
Encoding: 256 256 191
Width: 662
Flags: W
LayerCount: 2
Fore
SplineSet
640 0 m 1,0,-1
 402 698 l 1,1,-1
 260 698 l 1,2,-1
 22 0 l 1,3,-1
 137 0 l 1,4,-1
 198 189 l 1,5,-1
 459 189 l 1,6,-1
 522 0 l 1,7,-1
 640 0 l 1,0,-1
431 286 m 1,8,-1
 225 286 l 1,9,-1
 326 594 l 1,10,-1
 331 594 l 1,11,-1
 431 286 l 1,8,-1
476 798 m 1,12,-1
 476 881 l 1,13,-1
 184 881 l 1,14,-1
 184 798 l 1,15,-1
 476 798 l 1,12,-1
EndSplineSet
EndChar

StartChar: amacron
Encoding: 257 257 192
Width: 538
Flags: W
LayerCount: 2
Fore
SplineSet
406 631 m 1,0,-1
 406 714 l 1,1,-1
 114 714 l 1,2,-1
 114 631 l 1,3,-1
 406 631 l 1,0,-1
208 -12 m 0,4,5
 127 -12 127 -12 83.5 30 c 128,-1,6
 40 72 40 72 40 143 c 0,7,8
 40 299 40 299 262 299 c 2,9,-1
 356 299 l 1,10,-1
 356 343 l 2,11,12
 356 443 356 443 249 443 c 0,13,14
 203 443 203 443 174 423 c 128,-1,15
 145 403 145 403 125 372 c 1,16,-1
 60 431 l 1,17,18
 118 532 118 532 256 532 c 0,19,20
 357 532 357 532 411 485 c 128,-1,21
 465 438 465 438 465 350 c 2,22,-1
 465 0 l 1,23,-1
 365 0 l 1,24,-1
 365 87 l 1,25,-1
 360 87 l 1,26,27
 345 38 345 38 305 13 c 128,-1,28
 265 -12 265 -12 208 -12 c 0,4,5
239 71 m 0,29,30
 290 71 290 71 323 93.5 c 128,-1,31
 356 116 356 116 356 154 c 2,32,-1
 356 229 l 1,33,-1
 264 229 l 2,34,35
 152 229 152 229 151 159 c 2,36,-1
 151 141 l 2,37,38
 151 71 151 71 239 71 c 0,29,30
EndSplineSet
EndChar

StartChar: Abreve
Encoding: 258 258 193
Width: 662
Flags: W
LayerCount: 2
Fore
SplineSet
640 0 m 1,0,-1
 402 698 l 1,1,-1
 260 698 l 1,2,-1
 22 0 l 1,3,-1
 137 0 l 1,4,-1
 198 189 l 1,5,-1
 459 189 l 1,6,-1
 522 0 l 1,7,-1
 640 0 l 1,0,-1
431 286 m 1,8,-1
 225 286 l 1,9,-1
 326 594 l 1,10,-1
 331 594 l 1,11,-1
 431 286 l 1,8,-1
329 755 m 0,12,13
 385 755 385 755 417.5 778 c 128,-1,14
 450 801 450 801 468.5 834 c 128,-1,15
 487 867 487 867 497 899 c 1,16,-1
 437 930 l 1,17,-1
 417 897 l 2,18,19
 401 868 401 868 382 851.5 c 128,-1,20
 363 835 363 835 329 835 c 256,21,22
 295 835 295 835 276 851.5 c 128,-1,23
 257 868 257 868 241 897 c 2,24,-1
 221 930 l 1,25,-1
 161 899 l 1,26,27
 169 868 169 868 188 835 c 128,-1,28
 207 802 207 802 240.5 778.5 c 128,-1,29
 274 755 274 755 329 755 c 0,12,13
EndSplineSet
EndChar

StartChar: abreve
Encoding: 259 259 194
Width: 538
Flags: W
LayerCount: 2
Fore
SplineSet
259 589 m 256,0,1
 315 589 315 589 347.5 612 c 128,-1,2
 380 635 380 635 398.5 668 c 128,-1,3
 417 701 417 701 427 733 c 1,4,-1
 367 763 l 1,5,-1
 346 730 l 2,6,7
 330 702 330 702 311 685.5 c 128,-1,8
 292 669 292 669 259 669 c 256,9,10
 226 669 226 669 207 685.5 c 128,-1,11
 188 702 188 702 172 730 c 2,12,-1
 151 763 l 1,13,-1
 91 733 l 1,14,15
 101 701 101 701 119.5 668 c 128,-1,16
 138 635 138 635 170.5 612 c 128,-1,17
 203 589 203 589 259 589 c 256,0,1
208 -12 m 0,18,19
 127 -12 127 -12 83.5 30 c 128,-1,20
 40 72 40 72 40 143 c 0,21,22
 40 299 40 299 262 299 c 2,23,-1
 356 299 l 1,24,-1
 356 343 l 2,25,26
 356 443 356 443 249 443 c 0,27,28
 203 443 203 443 174 423 c 128,-1,29
 145 403 145 403 125 372 c 1,30,-1
 60 431 l 1,31,32
 118 532 118 532 256 532 c 0,33,34
 357 532 357 532 411 485 c 128,-1,35
 465 438 465 438 465 350 c 2,36,-1
 465 0 l 1,37,-1
 365 0 l 1,38,-1
 365 87 l 1,39,-1
 360 87 l 1,40,41
 345 38 345 38 305 13 c 128,-1,42
 265 -12 265 -12 208 -12 c 0,18,19
239 71 m 0,43,44
 290 71 290 71 323 93.5 c 128,-1,45
 356 116 356 116 356 154 c 2,46,-1
 356 229 l 1,47,-1
 264 229 l 2,48,49
 152 229 152 229 151 159 c 2,50,-1
 151 141 l 2,51,52
 151 71 151 71 239 71 c 0,43,44
EndSplineSet
EndChar

StartChar: Aogonek
Encoding: 260 260 195
Width: 662
Flags: W
LayerCount: 2
Fore
SplineSet
562 -209 m 0,0,1
 642 -209 642 -209 664 -165 c 1,2,-1
 619 -121 l 1,3,4
 600 -147 600 -147 568 -147 c 0,5,6
 534 -147 534 -147 534 -115 c 0,7,8
 534 -98 534 -98 554 -73.5 c 128,-1,9
 574 -49 574 -49 640 0 c 1,10,-1
 402 698 l 1,11,-1
 260 698 l 1,12,-1
 22 0 l 1,13,-1
 137 0 l 1,14,-1
 198 189 l 1,15,-1
 459 189 l 1,16,-1
 522 0 l 1,17,-1
 562 0 l 1,18,-1
 563 -4 l 1,19,20
 515 -31 515 -31 484.5 -60 c 128,-1,21
 454 -89 454 -89 454 -129 c 0,22,23
 454 -171 454 -171 485.5 -190 c 128,-1,24
 517 -209 517 -209 562 -209 c 0,0,1
431 286 m 1,25,-1
 225 286 l 1,26,-1
 326 594 l 1,27,-1
 331 594 l 1,28,-1
 431 286 l 1,25,-1
EndSplineSet
EndChar

StartChar: aogonek
Encoding: 261 261 196
Width: 538
Flags: W
LayerCount: 2
Fore
SplineSet
239 71 m 0,0,1
 290 71 290 71 323 93.5 c 128,-1,2
 356 116 356 116 356 154 c 2,3,-1
 356 229 l 1,4,-1
 264 229 l 2,5,6
 152 229 152 229 151 159 c 2,7,-1
 151 141 l 2,8,9
 151 71 151 71 239 71 c 0,0,1
388 -209 m 0,10,11
 344 -209 344 -209 312.5 -190 c 128,-1,12
 281 -171 281 -171 281 -129 c 0,13,14
 281 -89 281 -89 311.5 -60 c 128,-1,15
 342 -31 342 -31 390 -4 c 1,16,-1
 389 0 l 1,17,-1
 365 0 l 1,18,-1
 365 87 l 1,19,-1
 360 87 l 1,20,21
 345 38 345 38 305 13 c 128,-1,22
 265 -12 265 -12 208 -12 c 0,23,24
 127 -12 127 -12 83.5 30 c 128,-1,25
 40 72 40 72 40 143 c 0,26,27
 40 299 40 299 262 299 c 2,28,-1
 356 299 l 1,29,-1
 356 343 l 2,30,31
 356 443 356 443 249 443 c 0,32,33
 203 443 203 443 174 423 c 128,-1,34
 145 403 145 403 125 372 c 1,35,-1
 60 431 l 1,36,37
 118 532 118 532 256 532 c 0,38,39
 357 532 357 532 411 485 c 128,-1,40
 465 438 465 438 465 350 c 2,41,-1
 465 0 l 1,42,43
 401 -49 401 -49 380.5 -72.5 c 128,-1,44
 360 -96 360 -96 360 -115 c 0,45,46
 360 -147 360 -147 394 -147 c 0,47,48
 426 -147 426 -147 445 -121 c 1,49,-1
 491 -165 l 1,50,51
 467 -209 467 -209 388 -209 c 0,10,11
EndSplineSet
EndChar

StartChar: Cacute
Encoding: 262 262 197
Width: 634
Flags: W
LayerCount: 2
Fore
SplineSet
348 -12 m 0,0,1
 439 -12 439 -12 502 31 c 128,-1,2
 565 74 565 74 600 150 c 1,3,-1
 509 205 l 1,4,5
 490 153 490 153 450.5 121 c 128,-1,6
 411 89 411 89 348 89 c 0,7,8
 267 89 267 89 221 144 c 128,-1,9
 175 199 175 199 175 296 c 2,10,-1
 175 402 l 2,11,12
 175 499 175 499 221 554 c 128,-1,13
 267 609 267 609 348 609 c 0,14,15
 464 609 464 609 502 500 c 1,16,-1
 597 552 l 1,17,18
 526 710 526 710 348 710 c 0,19,20
 216 710 216 710 135.5 620 c 128,-1,21
 55 530 55 530 55 349 c 0,22,23
 55 173 55 173 133 80.5 c 128,-1,24
 211 -12 211 -12 348 -12 c 0,0,1
356 749 m 1,25,-1
 474 915 l 1,26,-1
 379 961 l 1,27,-1
 288 781 l 1,28,-1
 356 749 l 1,25,-1
EndSplineSet
EndChar

StartChar: cacute
Encoding: 263 263 198
Width: 510
Flags: W
LayerCount: 2
Fore
SplineSet
279 -12 m 0,0,1
 429 -12 429 -12 484 120 c 1,2,-1
 401 164 l 1,3,4
 384 125 384 125 355.5 101.5 c 128,-1,5
 327 78 327 78 279 78 c 0,6,7
 219 78 219 78 188.5 115.5 c 128,-1,8
 158 153 158 153 158 213 c 2,9,-1
 158 306 l 2,10,11
 158 366 158 366 188.5 403.5 c 128,-1,12
 219 441 219 441 279 441 c 0,13,14
 366 441 366 441 390 362 c 1,15,-1
 480 404 l 1,16,17
 457 463 457 463 407 497.5 c 128,-1,18
 357 532 357 532 279 532 c 256,19,20
 201 532 201 532 148.5 497 c 128,-1,21
 96 462 96 462 69.5 401 c 128,-1,22
 43 340 43 340 43 260 c 0,23,24
 43 129 43 129 107.5 58.5 c 128,-1,25
 172 -12 172 -12 279 -12 c 0,0,1
288 582 m 1,26,-1
 406 749 l 1,27,-1
 311 795 l 1,28,-1
 220 615 l 1,29,-1
 288 582 l 1,26,-1
EndSplineSet
EndChar

StartChar: Ccircumflex
Encoding: 264 264 199
Width: 634
Flags: W
LayerCount: 2
Fore
SplineSet
348 -12 m 0,0,1
 439 -12 439 -12 502 31 c 128,-1,2
 565 74 565 74 600 150 c 1,3,-1
 509 205 l 1,4,5
 490 153 490 153 450.5 121 c 128,-1,6
 411 89 411 89 348 89 c 0,7,8
 267 89 267 89 221 144 c 128,-1,9
 175 199 175 199 175 296 c 2,10,-1
 175 402 l 2,11,12
 175 499 175 499 221 554 c 128,-1,13
 267 609 267 609 348 609 c 0,14,15
 464 609 464 609 502 500 c 1,16,-1
 597 552 l 1,17,18
 526 710 526 710 348 710 c 0,19,20
 216 710 216 710 135.5 620 c 128,-1,21
 55 530 55 530 55 349 c 0,22,23
 55 173 55 173 133 80.5 c 128,-1,24
 211 -12 211 -12 348 -12 c 0,0,1
464 752 m 1,25,-1
 520 794 l 1,26,-1
 400 944 l 1,27,-1
 290 944 l 1,28,-1
 170 794 l 1,29,-1
 226 752 l 1,30,-1
 345 868 l 1,31,-1
 464 752 l 1,25,-1
EndSplineSet
EndChar

StartChar: ccircumflex
Encoding: 265 265 200
Width: 510
Flags: W
LayerCount: 2
Fore
SplineSet
279 -12 m 0,0,1
 429 -12 429 -12 484 120 c 1,2,-1
 401 164 l 1,3,4
 384 125 384 125 355.5 101.5 c 128,-1,5
 327 78 327 78 279 78 c 0,6,7
 219 78 219 78 188.5 115.5 c 128,-1,8
 158 153 158 153 158 213 c 2,9,-1
 158 306 l 2,10,11
 158 366 158 366 188.5 403.5 c 128,-1,12
 219 441 219 441 279 441 c 0,13,14
 366 441 366 441 390 362 c 1,15,-1
 480 404 l 1,16,17
 457 463 457 463 407 497.5 c 128,-1,18
 357 532 357 532 279 532 c 256,19,20
 201 532 201 532 148.5 497 c 128,-1,21
 96 462 96 462 69.5 401 c 128,-1,22
 43 340 43 340 43 260 c 0,23,24
 43 129 43 129 107.5 58.5 c 128,-1,25
 172 -12 172 -12 279 -12 c 0,0,1
396 585 m 1,26,-1
 452 628 l 1,27,-1
 332 778 l 1,28,-1
 222 778 l 1,29,-1
 102 628 l 1,30,-1
 158 585 l 1,31,-1
 277 702 l 1,32,-1
 396 585 l 1,26,-1
EndSplineSet
EndChar

StartChar: Cdotaccent
Encoding: 266 266 201
Width: 634
Flags: W
LayerCount: 2
Fore
SplineSet
348 -12 m 0,0,1
 439 -12 439 -12 502 31 c 128,-1,2
 565 74 565 74 600 150 c 1,3,-1
 509 205 l 1,4,5
 490 153 490 153 450.5 121 c 128,-1,6
 411 89 411 89 348 89 c 0,7,8
 267 89 267 89 221 144 c 128,-1,9
 175 199 175 199 175 296 c 2,10,-1
 175 402 l 2,11,12
 175 499 175 499 221 554 c 128,-1,13
 267 609 267 609 348 609 c 0,14,15
 464 609 464 609 502 500 c 1,16,-1
 597 552 l 1,17,18
 526 710 526 710 348 710 c 0,19,20
 216 710 216 710 135.5 620 c 128,-1,21
 55 530 55 530 55 349 c 0,22,23
 55 173 55 173 133 80.5 c 128,-1,24
 211 -12 211 -12 348 -12 c 0,0,1
345 768 m 256,25,26
 415 768 415 768 415 828 c 2,27,-1
 415 849 l 2,28,29
 415 909 415 909 345 909 c 256,30,31
 275 909 275 909 275 849 c 2,32,-1
 275 828 l 2,33,34
 275 768 275 768 345 768 c 256,25,26
EndSplineSet
EndChar

StartChar: cdotaccent
Encoding: 267 267 202
Width: 510
Flags: W
LayerCount: 2
Fore
SplineSet
279 -12 m 0,0,1
 429 -12 429 -12 484 120 c 1,2,-1
 401 164 l 1,3,4
 384 125 384 125 355.5 101.5 c 128,-1,5
 327 78 327 78 279 78 c 0,6,7
 219 78 219 78 188.5 115.5 c 128,-1,8
 158 153 158 153 158 213 c 2,9,-1
 158 306 l 2,10,11
 158 366 158 366 188.5 403.5 c 128,-1,12
 219 441 219 441 279 441 c 0,13,14
 366 441 366 441 390 362 c 1,15,-1
 480 404 l 1,16,17
 457 463 457 463 407 497.5 c 128,-1,18
 357 532 357 532 279 532 c 256,19,20
 201 532 201 532 148.5 497 c 128,-1,21
 96 462 96 462 69.5 401 c 128,-1,22
 43 340 43 340 43 260 c 0,23,24
 43 129 43 129 107.5 58.5 c 128,-1,25
 172 -12 172 -12 279 -12 c 0,0,1
277 605 m 256,26,27
 344 605 344 605 344 662 c 2,28,-1
 344 680 l 2,29,30
 344 737 344 737 277 737 c 256,31,32
 210 737 210 737 210 680 c 2,33,-1
 210 662 l 2,34,35
 210 605 210 605 277 605 c 256,26,27
EndSplineSet
EndChar

StartChar: Ccaron
Encoding: 268 268 203
Width: 634
Flags: W
LayerCount: 2
Fore
SplineSet
348 -12 m 0,0,1
 439 -12 439 -12 502 31 c 128,-1,2
 565 74 565 74 600 150 c 1,3,-1
 509 205 l 1,4,5
 490 153 490 153 450.5 121 c 128,-1,6
 411 89 411 89 348 89 c 0,7,8
 267 89 267 89 221 144 c 128,-1,9
 175 199 175 199 175 296 c 2,10,-1
 175 402 l 2,11,12
 175 499 175 499 221 554 c 128,-1,13
 267 609 267 609 348 609 c 0,14,15
 464 609 464 609 502 500 c 1,16,-1
 597 552 l 1,17,18
 526 710 526 710 348 710 c 0,19,20
 216 710 216 710 135.5 620 c 128,-1,21
 55 530 55 530 55 349 c 0,22,23
 55 173 55 173 133 80.5 c 128,-1,24
 211 -12 211 -12 348 -12 c 0,0,1
400 760 m 1,25,-1
 520 910 l 1,26,-1
 464 952 l 1,27,-1
 345 836 l 1,28,-1
 226 952 l 1,29,-1
 170 910 l 1,30,-1
 290 760 l 1,31,-1
 400 760 l 1,25,-1
EndSplineSet
EndChar

StartChar: ccaron
Encoding: 269 269 204
Width: 510
Flags: W
LayerCount: 2
Fore
SplineSet
279 -12 m 0,0,1
 429 -12 429 -12 484 120 c 1,2,-1
 401 164 l 1,3,4
 384 125 384 125 355.5 101.5 c 128,-1,5
 327 78 327 78 279 78 c 0,6,7
 219 78 219 78 188.5 115.5 c 128,-1,8
 158 153 158 153 158 213 c 2,9,-1
 158 306 l 2,10,11
 158 366 158 366 188.5 403.5 c 128,-1,12
 219 441 219 441 279 441 c 0,13,14
 366 441 366 441 390 362 c 1,15,-1
 480 404 l 1,16,17
 457 463 457 463 407 497.5 c 128,-1,18
 357 532 357 532 279 532 c 256,19,20
 201 532 201 532 148.5 497 c 128,-1,21
 96 462 96 462 69.5 401 c 128,-1,22
 43 340 43 340 43 260 c 0,23,24
 43 129 43 129 107.5 58.5 c 128,-1,25
 172 -12 172 -12 279 -12 c 0,0,1
332 594 m 1,26,-1
 452 744 l 1,27,-1
 396 786 l 1,28,-1
 277 670 l 1,29,-1
 158 786 l 1,30,-1
 102 744 l 1,31,-1
 222 594 l 1,32,-1
 332 594 l 1,26,-1
EndSplineSet
EndChar

StartChar: Dcaron
Encoding: 270 270 205
Width: 683
Flags: W
LayerCount: 2
Fore
SplineSet
333 0 m 2,0,1
 421 0 421 0 487.5 38.5 c 128,-1,2
 554 77 554 77 591 154.5 c 128,-1,3
 628 232 628 232 628 349 c 0,4,5
 628 470 628 470 590 547.5 c 128,-1,6
 552 625 552 625 485 661.5 c 128,-1,7
 418 698 418 698 333 698 c 2,8,-1
 86 698 l 1,9,-1
 86 0 l 1,10,-1
 333 0 l 2,0,1
333 100 m 2,11,-1
 199 100 l 1,12,-1
 199 598 l 1,13,-1
 333 598 l 2,14,15
 411 598 411 598 459 549 c 128,-1,16
 507 500 507 500 507 405 c 2,17,-1
 507 293 l 2,18,19
 507 198 507 198 459 149 c 128,-1,20
 411 100 411 100 333 100 c 2,11,-1
369 760 m 1,21,-1
 489 910 l 1,22,-1
 433 952 l 1,23,-1
 314 836 l 1,24,-1
 195 952 l 1,25,-1
 139 910 l 1,26,-1
 259 760 l 1,27,-1
 369 760 l 1,21,-1
EndSplineSet
EndChar

StartChar: dcaron
Encoding: 271 271 206
Width: 636
Flags: W
LayerCount: 2
Fore
SplineSet
642 542 m 1,0,-1
 700 740 l 1,1,-1
 580 740 l 1,2,-1
 570 542 l 1,3,-1
 642 542 l 1,0,-1
254 -12 m 0,4,5
 358 -12 358 -12 400 86 c 1,6,-1
 405 86 l 1,7,-1
 405 0 l 1,8,-1
 514 0 l 1,9,-1
 514 740 l 1,10,-1
 405 740 l 1,11,-1
 405 434 l 1,12,-1
 400 434 l 1,13,14
 382 481 382 481 344 506.5 c 128,-1,15
 306 532 306 532 254 532 c 0,16,17
 155 532 155 532 101 460.5 c 128,-1,18
 47 389 47 389 47 260 c 256,19,20
 47 131 47 131 101 59.5 c 128,-1,21
 155 -12 155 -12 254 -12 c 0,4,5
287 82 m 0,22,23
 230 82 230 82 196 118.5 c 128,-1,24
 162 155 162 155 162 215 c 2,25,-1
 162 305 l 2,26,27
 162 365 162 365 196 401.5 c 128,-1,28
 230 438 230 438 287 438 c 0,29,30
 337 438 337 438 371 413.5 c 128,-1,31
 405 389 405 389 405 349 c 2,32,-1
 405 171 l 2,33,34
 405 131 405 131 371 106.5 c 128,-1,35
 337 82 337 82 287 82 c 0,22,23
EndSplineSet
EndChar

StartChar: Dcroat
Encoding: 272 272 207
Width: 687
Flags: W
LayerCount: 2
Fore
SplineSet
337 0 m 2,0,1
 425 0 425 0 491.5 38.5 c 128,-1,2
 558 77 558 77 595 154.5 c 128,-1,3
 632 232 632 232 632 349 c 0,4,5
 632 470 632 470 594 547.5 c 128,-1,6
 556 625 556 625 489 661.5 c 128,-1,7
 422 698 422 698 337 698 c 2,8,-1
 90 698 l 1,9,-1
 90 406 l 1,10,-1
 13 406 l 1,11,-1
 13 320 l 1,12,-1
 90 320 l 1,13,-1
 90 0 l 1,14,-1
 337 0 l 2,0,1
337 100 m 2,15,-1
 203 100 l 1,16,-1
 203 320 l 1,17,-1
 333 320 l 1,18,-1
 333 406 l 1,19,-1
 203 406 l 1,20,-1
 203 598 l 1,21,-1
 337 598 l 2,22,23
 415 598 415 598 463 549 c 128,-1,24
 511 500 511 500 511 405 c 2,25,-1
 511 293 l 2,26,27
 511 198 511 198 463 149 c 128,-1,28
 415 100 415 100 337 100 c 2,15,-1
EndSplineSet
EndChar

StartChar: dcroat
Encoding: 273 273 208
Width: 592
Flags: W
LayerCount: 2
Fore
SplineSet
254 -12 m 0,0,1
 358 -12 358 -12 400 86 c 1,2,-1
 405 86 l 1,3,-1
 405 0 l 1,4,-1
 514 0 l 1,5,-1
 514 600 l 1,6,-1
 577 600 l 1,7,-1
 577 679 l 1,8,-1
 514 679 l 1,9,-1
 514 740 l 1,10,-1
 405 740 l 1,11,-1
 405 679 l 1,12,-1
 259 679 l 1,13,-1
 259 600 l 1,14,-1
 405 600 l 1,15,-1
 405 434 l 1,16,-1
 400 434 l 1,17,18
 382 481 382 481 344 506.5 c 128,-1,19
 306 532 306 532 254 532 c 0,20,21
 155 532 155 532 101 460.5 c 128,-1,22
 47 389 47 389 47 260 c 256,23,24
 47 131 47 131 101 59.5 c 128,-1,25
 155 -12 155 -12 254 -12 c 0,0,1
287 82 m 0,26,27
 230 82 230 82 196 118.5 c 128,-1,28
 162 155 162 155 162 215 c 2,29,-1
 162 305 l 2,30,31
 162 365 162 365 196 401.5 c 128,-1,32
 230 438 230 438 287 438 c 0,33,34
 337 438 337 438 371 413.5 c 128,-1,35
 405 389 405 389 405 349 c 2,36,-1
 405 171 l 2,37,38
 405 131 405 131 371 106.5 c 128,-1,39
 337 82 337 82 287 82 c 0,26,27
EndSplineSet
EndChar

StartChar: Emacron
Encoding: 274 274 209
Width: 593
Flags: W
LayerCount: 2
Fore
SplineSet
533 0 m 1,0,-1
 533 100 l 1,1,-1
 199 100 l 1,2,-1
 199 304 l 1,3,-1
 502 304 l 1,4,-1
 502 404 l 1,5,-1
 199 404 l 1,6,-1
 199 598 l 1,7,-1
 533 598 l 1,8,-1
 533 698 l 1,9,-1
 86 698 l 1,10,-1
 86 0 l 1,11,-1
 533 0 l 1,0,-1
455 798 m 1,12,-1
 455 881 l 1,13,-1
 163 881 l 1,14,-1
 163 798 l 1,15,-1
 455 798 l 1,12,-1
EndSplineSet
EndChar

StartChar: emacron
Encoding: 275 275 210
Width: 556
Flags: W
LayerCount: 2
Fore
SplineSet
282 -12 m 0,0,1
 355 -12 355 -12 409.5 16 c 128,-1,2
 464 44 464 44 494 93 c 1,3,-1
 430 156 l 1,4,5
 381 78 381 78 293 78 c 0,6,7
 227 78 227 78 191.5 116.5 c 128,-1,8
 156 155 156 155 156 215 c 2,9,-1
 156 232 l 1,10,-1
 513 232 l 1,11,-1
 513 273 l 2,12,13
 513 341 513 341 488.5 400 c 128,-1,14
 464 459 464 459 413 495.5 c 128,-1,15
 362 532 362 532 282 532 c 0,16,17
 166 532 166 532 104.5 455.5 c 128,-1,18
 43 379 43 379 43 260 c 0,19,20
 43 133 43 133 108 60.5 c 128,-1,21
 173 -12 173 -12 282 -12 c 0,0,1
398 304 m 1,22,-1
 156 304 l 1,23,24
 156 371 156 371 191.5 409 c 128,-1,25
 227 447 227 447 282 447 c 0,26,27
 336 447 336 447 367 410.5 c 128,-1,28
 398 374 398 374 398 314 c 2,29,-1
 398 304 l 1,22,-1
430 631 m 1,30,-1
 430 714 l 1,31,-1
 138 714 l 1,32,-1
 138 631 l 1,33,-1
 430 631 l 1,30,-1
EndSplineSet
EndChar

StartChar: Ebreve
Encoding: 276 276 211
Width: 593
Flags: W
LayerCount: 2
Fore
SplineSet
533 0 m 1,0,-1
 533 100 l 1,1,-1
 199 100 l 1,2,-1
 199 304 l 1,3,-1
 502 304 l 1,4,-1
 502 404 l 1,5,-1
 199 404 l 1,6,-1
 199 598 l 1,7,-1
 533 598 l 1,8,-1
 533 698 l 1,9,-1
 86 698 l 1,10,-1
 86 0 l 1,11,-1
 533 0 l 1,0,-1
308 755 m 0,12,13
 364 755 364 755 396.5 778 c 128,-1,14
 429 801 429 801 447.5 834 c 128,-1,15
 466 867 466 867 476 899 c 1,16,-1
 416 930 l 1,17,-1
 396 897 l 2,18,19
 380 868 380 868 361 851.5 c 128,-1,20
 342 835 342 835 308 835 c 256,21,22
 274 835 274 835 255 851.5 c 128,-1,23
 236 868 236 868 220 897 c 2,24,-1
 200 930 l 1,25,-1
 140 899 l 1,26,27
 148 868 148 868 167 835 c 128,-1,28
 186 802 186 802 219.5 778.5 c 128,-1,29
 253 755 253 755 308 755 c 0,12,13
EndSplineSet
EndChar

StartChar: ebreve
Encoding: 277 277 212
Width: 556
Flags: W
LayerCount: 2
Fore
SplineSet
282 -12 m 0,0,1
 355 -12 355 -12 409.5 16 c 128,-1,2
 464 44 464 44 494 93 c 1,3,-1
 430 156 l 1,4,5
 381 78 381 78 293 78 c 0,6,7
 227 78 227 78 191.5 116.5 c 128,-1,8
 156 155 156 155 156 215 c 2,9,-1
 156 232 l 1,10,-1
 513 232 l 1,11,-1
 513 273 l 2,12,13
 513 341 513 341 488.5 400 c 128,-1,14
 464 459 464 459 413 495.5 c 128,-1,15
 362 532 362 532 282 532 c 0,16,17
 166 532 166 532 104.5 455.5 c 128,-1,18
 43 379 43 379 43 260 c 0,19,20
 43 133 43 133 108 60.5 c 128,-1,21
 173 -12 173 -12 282 -12 c 0,0,1
398 304 m 1,22,-1
 156 304 l 1,23,24
 156 371 156 371 191.5 409 c 128,-1,25
 227 447 227 447 282 447 c 0,26,27
 336 447 336 447 367 410.5 c 128,-1,28
 398 374 398 374 398 314 c 2,29,-1
 398 304 l 1,22,-1
283 589 m 256,30,31
 339 589 339 589 371.5 612 c 128,-1,32
 404 635 404 635 422.5 668 c 128,-1,33
 441 701 441 701 451 733 c 1,34,-1
 391 763 l 1,35,-1
 370 730 l 2,36,37
 354 702 354 702 335 685.5 c 128,-1,38
 316 669 316 669 283 669 c 256,39,40
 250 669 250 669 231 685.5 c 128,-1,41
 212 702 212 702 196 730 c 2,42,-1
 175 763 l 1,43,-1
 115 733 l 1,44,45
 125 701 125 701 143.5 668 c 128,-1,46
 162 635 162 635 194.5 612 c 128,-1,47
 227 589 227 589 283 589 c 256,30,31
EndSplineSet
EndChar

StartChar: Edotaccent
Encoding: 278 278 213
Width: 593
Flags: W
LayerCount: 2
Fore
SplineSet
533 0 m 1,0,-1
 533 100 l 1,1,-1
 199 100 l 1,2,-1
 199 304 l 1,3,-1
 502 304 l 1,4,-1
 502 404 l 1,5,-1
 199 404 l 1,6,-1
 199 598 l 1,7,-1
 533 598 l 1,8,-1
 533 698 l 1,9,-1
 86 698 l 1,10,-1
 86 0 l 1,11,-1
 533 0 l 1,0,-1
309 768 m 256,12,13
 379 768 379 768 379 828 c 2,14,-1
 379 849 l 2,15,16
 379 909 379 909 309 909 c 256,17,18
 239 909 239 909 239 849 c 2,19,-1
 239 828 l 2,20,21
 239 768 239 768 309 768 c 256,12,13
EndSplineSet
EndChar

StartChar: edotaccent
Encoding: 279 279 214
Width: 556
Flags: W
LayerCount: 2
Fore
SplineSet
282 -12 m 0,0,1
 355 -12 355 -12 409.5 16 c 128,-1,2
 464 44 464 44 494 93 c 1,3,-1
 430 156 l 1,4,5
 381 78 381 78 293 78 c 0,6,7
 227 78 227 78 191.5 116.5 c 128,-1,8
 156 155 156 155 156 215 c 2,9,-1
 156 232 l 1,10,-1
 513 232 l 1,11,-1
 513 273 l 2,12,13
 513 341 513 341 488.5 400 c 128,-1,14
 464 459 464 459 413 495.5 c 128,-1,15
 362 532 362 532 282 532 c 0,16,17
 166 532 166 532 104.5 455.5 c 128,-1,18
 43 379 43 379 43 260 c 0,19,20
 43 133 43 133 108 60.5 c 128,-1,21
 173 -12 173 -12 282 -12 c 0,0,1
398 304 m 1,22,-1
 156 304 l 1,23,24
 156 371 156 371 191.5 409 c 128,-1,25
 227 447 227 447 282 447 c 0,26,27
 336 447 336 447 367 410.5 c 128,-1,28
 398 374 398 374 398 314 c 2,29,-1
 398 304 l 1,22,-1
284 605 m 256,30,31
 351 605 351 605 351 662 c 2,32,-1
 351 680 l 2,33,34
 351 737 351 737 284 737 c 256,35,36
 217 737 217 737 217 680 c 2,37,-1
 217 662 l 2,38,39
 217 605 217 605 284 605 c 256,30,31
EndSplineSet
EndChar

StartChar: Eogonek
Encoding: 280 280 215
Width: 593
Flags: W
LayerCount: 2
Fore
SplineSet
457 -209 m 0,0,1
 537 -209 537 -209 559 -165 c 1,2,-1
 514 -121 l 1,3,4
 495 -147 495 -147 463 -147 c 0,5,6
 429 -147 429 -147 429 -115 c 0,7,8
 429 -103 429 -103 435.5 -90.5 c 128,-1,9
 442 -78 442 -78 464.5 -57 c 128,-1,10
 487 -36 487 -36 533 0 c 1,11,-1
 533 100 l 1,12,-1
 199 100 l 1,13,-1
 199 304 l 1,14,-1
 502 304 l 1,15,-1
 502 404 l 1,16,-1
 199 404 l 1,17,-1
 199 598 l 1,18,-1
 533 598 l 1,19,-1
 533 698 l 1,20,-1
 86 698 l 1,21,-1
 86 0 l 1,22,-1
 457 0 l 1,23,-1
 458 -5 l 1,24,25
 409 -31 409 -31 379 -60 c 128,-1,26
 349 -89 349 -89 349 -129 c 0,27,28
 349 -171 349 -171 380.5 -190 c 128,-1,29
 412 -209 412 -209 457 -209 c 0,0,1
EndSplineSet
EndChar

StartChar: eogonek
Encoding: 281 281 216
Width: 555
Flags: W
LayerCount: 2
Fore
SplineSet
347 -209 m 0,0,1
 425 -209 425 -209 449 -165 c 1,2,-1
 405 -121 l 1,3,4
 384 -147 384 -147 354 -147 c 0,5,6
 320 -147 320 -147 320 -115 c 0,7,8
 320 -87 320 -87 344 -59 c 128,-1,9
 368 -31 368 -31 400 -2 c 2,10,-1
 429 26 l 1,11,12
 477 66 477 66 494 93 c 1,13,-1
 430 155 l 1,14,15
 385 78 385 78 294 78 c 0,16,17
 226 78 226 78 191 116.5 c 128,-1,18
 156 155 156 155 156 215 c 2,19,-1
 156 232 l 1,20,-1
 512 232 l 1,21,-1
 512 273 l 2,22,23
 512 342 512 342 487.5 401 c 128,-1,24
 463 460 463 460 411.5 496 c 128,-1,25
 360 532 360 532 280 532 c 0,26,27
 171 532 171 532 107 459 c 128,-1,28
 43 386 43 386 43 260 c 0,29,30
 43 137 43 137 106 62.5 c 128,-1,31
 169 -12 169 -12 281 -12 c 0,32,33
 322 -12 322 -12 346 -1 c 1,34,-1
 348 -5 l 1,35,36
 305 -28 305 -28 273 -56.5 c 128,-1,37
 241 -85 241 -85 241 -129 c 0,38,39
 241 -171 241 -171 272 -190 c 128,-1,40
 303 -209 303 -209 347 -209 c 0,0,1
397 304 m 1,41,-1
 156 304 l 1,42,-1
 156 311 l 2,43,44
 156 371 156 371 190 409 c 128,-1,45
 224 447 224 447 281 447 c 0,46,47
 336 447 336 447 366.5 410.5 c 128,-1,48
 397 374 397 374 397 314 c 2,49,-1
 397 304 l 1,41,-1
EndSplineSet
EndChar

StartChar: Ecaron
Encoding: 282 282 217
Width: 593
Flags: W
LayerCount: 2
Fore
SplineSet
533 0 m 1,0,-1
 533 100 l 1,1,-1
 199 100 l 1,2,-1
 199 304 l 1,3,-1
 502 304 l 1,4,-1
 502 404 l 1,5,-1
 199 404 l 1,6,-1
 199 598 l 1,7,-1
 533 598 l 1,8,-1
 533 698 l 1,9,-1
 86 698 l 1,10,-1
 86 0 l 1,11,-1
 533 0 l 1,0,-1
364 760 m 1,12,-1
 484 910 l 1,13,-1
 428 952 l 1,14,-1
 309 836 l 1,15,-1
 190 952 l 1,16,-1
 134 910 l 1,17,-1
 254 760 l 1,18,-1
 364 760 l 1,12,-1
EndSplineSet
EndChar

StartChar: ecaron
Encoding: 283 283 218
Width: 556
Flags: W
LayerCount: 2
Fore
SplineSet
282 -12 m 0,0,1
 355 -12 355 -12 409.5 16 c 128,-1,2
 464 44 464 44 494 93 c 1,3,-1
 430 156 l 1,4,5
 381 78 381 78 293 78 c 0,6,7
 227 78 227 78 191.5 116.5 c 128,-1,8
 156 155 156 155 156 215 c 2,9,-1
 156 232 l 1,10,-1
 513 232 l 1,11,-1
 513 273 l 2,12,13
 513 341 513 341 488.5 400 c 128,-1,14
 464 459 464 459 413 495.5 c 128,-1,15
 362 532 362 532 282 532 c 0,16,17
 166 532 166 532 104.5 455.5 c 128,-1,18
 43 379 43 379 43 260 c 0,19,20
 43 133 43 133 108 60.5 c 128,-1,21
 173 -12 173 -12 282 -12 c 0,0,1
398 304 m 1,22,-1
 156 304 l 1,23,24
 156 371 156 371 191.5 409 c 128,-1,25
 227 447 227 447 282 447 c 0,26,27
 336 447 336 447 367 410.5 c 128,-1,28
 398 374 398 374 398 314 c 2,29,-1
 398 304 l 1,22,-1
339 594 m 1,30,-1
 459 744 l 1,31,-1
 403 786 l 1,32,-1
 284 670 l 1,33,-1
 165 786 l 1,34,-1
 109 744 l 1,35,-1
 229 594 l 1,36,-1
 339 594 l 1,30,-1
EndSplineSet
EndChar

StartChar: Gcircumflex
Encoding: 284 284 219
Width: 705
Flags: W
LayerCount: 2
Fore
SplineSet
343 -12 m 0,0,1
 423 -12 423 -12 471 21 c 128,-1,2
 519 54 519 54 531 106 c 1,3,-1
 535 106 l 1,4,-1
 535 0 l 1,5,-1
 634 0 l 1,6,-1
 634 372 l 1,7,-1
 381 372 l 1,8,-1
 381 275 l 1,9,-1
 525 275 l 1,10,-1
 525 221 l 2,11,12
 525 158 525 158 476.5 123.5 c 128,-1,13
 428 89 428 89 360 89 c 0,14,15
 277 89 277 89 226.5 142 c 128,-1,16
 176 195 176 195 176 292 c 2,17,-1
 176 406 l 2,18,19
 176 503 176 503 226.5 556 c 128,-1,20
 277 609 277 609 360 609 c 0,21,22
 424 609 424 609 466 579 c 128,-1,23
 508 549 508 549 528 499 c 1,24,-1
 620 553 l 1,25,26
 584 628 584 628 519 669 c 128,-1,27
 454 710 454 710 360 710 c 0,28,29
 218 710 218 710 136.5 614 c 128,-1,30
 55 518 55 518 55 349 c 0,31,32
 55 233 55 233 92 152.5 c 128,-1,33
 129 72 129 72 194 30 c 128,-1,34
 259 -12 259 -12 343 -12 c 0,0,1
476 752 m 1,35,-1
 532 794 l 1,36,-1
 412 944 l 1,37,-1
 302 944 l 1,38,-1
 182 794 l 1,39,-1
 238 752 l 1,40,-1
 357 868 l 1,41,-1
 476 752 l 1,35,-1
EndSplineSet
EndChar

StartChar: Gbreve
Encoding: 286 286 221
Width: 705
Flags: W
LayerCount: 2
Fore
SplineSet
343 -12 m 0,0,1
 423 -12 423 -12 471 21 c 128,-1,2
 519 54 519 54 531 106 c 1,3,-1
 535 106 l 1,4,-1
 535 0 l 1,5,-1
 634 0 l 1,6,-1
 634 372 l 1,7,-1
 381 372 l 1,8,-1
 381 275 l 1,9,-1
 525 275 l 1,10,-1
 525 221 l 2,11,12
 525 158 525 158 476.5 123.5 c 128,-1,13
 428 89 428 89 360 89 c 0,14,15
 277 89 277 89 226.5 142 c 128,-1,16
 176 195 176 195 176 292 c 2,17,-1
 176 406 l 2,18,19
 176 503 176 503 226.5 556 c 128,-1,20
 277 609 277 609 360 609 c 0,21,22
 424 609 424 609 466 579 c 128,-1,23
 508 549 508 549 528 499 c 1,24,-1
 620 553 l 1,25,26
 584 628 584 628 519 669 c 128,-1,27
 454 710 454 710 360 710 c 0,28,29
 218 710 218 710 136.5 614 c 128,-1,30
 55 518 55 518 55 349 c 0,31,32
 55 233 55 233 92 152.5 c 128,-1,33
 129 72 129 72 194 30 c 128,-1,34
 259 -12 259 -12 343 -12 c 0,0,1
356 755 m 0,35,36
 412 755 412 755 444.5 778 c 128,-1,37
 477 801 477 801 495.5 834 c 128,-1,38
 514 867 514 867 524 899 c 1,39,-1
 464 930 l 1,40,-1
 444 897 l 2,41,42
 428 868 428 868 409 851.5 c 128,-1,43
 390 835 390 835 356 835 c 256,44,45
 322 835 322 835 303 851.5 c 128,-1,46
 284 868 284 868 268 897 c 2,47,-1
 248 930 l 1,48,-1
 188 899 l 1,49,50
 196 868 196 868 215 835 c 128,-1,51
 234 802 234 802 267.5 778.5 c 128,-1,52
 301 755 301 755 356 755 c 0,35,36
EndSplineSet
EndChar

StartChar: Gdotaccent
Encoding: 288 288 223
Width: 705
Flags: W
LayerCount: 2
Fore
SplineSet
343 -12 m 0,0,1
 423 -12 423 -12 471 21 c 128,-1,2
 519 54 519 54 531 106 c 1,3,-1
 535 106 l 1,4,-1
 535 0 l 1,5,-1
 634 0 l 1,6,-1
 634 372 l 1,7,-1
 381 372 l 1,8,-1
 381 275 l 1,9,-1
 525 275 l 1,10,-1
 525 221 l 2,11,12
 525 158 525 158 476.5 123.5 c 128,-1,13
 428 89 428 89 360 89 c 0,14,15
 277 89 277 89 226.5 142 c 128,-1,16
 176 195 176 195 176 292 c 2,17,-1
 176 406 l 2,18,19
 176 503 176 503 226.5 556 c 128,-1,20
 277 609 277 609 360 609 c 0,21,22
 424 609 424 609 466 579 c 128,-1,23
 508 549 508 549 528 499 c 1,24,-1
 620 553 l 1,25,26
 584 628 584 628 519 669 c 128,-1,27
 454 710 454 710 360 710 c 0,28,29
 218 710 218 710 136.5 614 c 128,-1,30
 55 518 55 518 55 349 c 0,31,32
 55 233 55 233 92 152.5 c 128,-1,33
 129 72 129 72 194 30 c 128,-1,34
 259 -12 259 -12 343 -12 c 0,0,1
357 768 m 256,35,36
 427 768 427 768 427 828 c 2,37,-1
 427 849 l 2,38,39
 427 909 427 909 357 909 c 256,40,41
 287 909 287 909 287 849 c 2,42,-1
 287 828 l 2,43,44
 287 768 287 768 357 768 c 256,35,36
EndSplineSet
EndChar

StartChar: u0122
Encoding: 290 290 225
Width: 705
Flags: W
LayerCount: 2
Fore
SplineSet
343 -12 m 0,0,1
 423 -12 423 -12 471 21 c 128,-1,2
 519 54 519 54 531 106 c 1,3,-1
 535 106 l 1,4,-1
 535 0 l 1,5,-1
 634 0 l 1,6,-1
 634 372 l 1,7,-1
 381 372 l 1,8,-1
 381 275 l 1,9,-1
 525 275 l 1,10,-1
 525 221 l 2,11,12
 525 158 525 158 476.5 123.5 c 128,-1,13
 428 89 428 89 360 89 c 0,14,15
 277 89 277 89 226.5 142 c 128,-1,16
 176 195 176 195 176 292 c 2,17,-1
 176 406 l 2,18,19
 176 503 176 503 226.5 556 c 128,-1,20
 277 609 277 609 360 609 c 0,21,22
 424 609 424 609 466 579 c 128,-1,23
 508 549 508 549 528 499 c 1,24,-1
 620 553 l 1,25,26
 584 628 584 628 519 669 c 128,-1,27
 454 710 454 710 360 710 c 0,28,29
 218 710 218 710 136.5 614 c 128,-1,30
 55 518 55 518 55 349 c 0,31,32
 55 233 55 233 92 152.5 c 128,-1,33
 129 72 129 72 194 30 c 128,-1,34
 259 -12 259 -12 343 -12 c 0,0,1
344 -258 m 1,35,36
 371 -234 371 -234 389 -197.5 c 128,-1,37
 407 -161 407 -161 407 -121 c 2,38,-1
 407 -109 l 2,39,40
 407 -56 407 -56 348 -56 c 0,41,42
 290 -56 290 -56 289 -109 c 2,43,-1
 289 -120 l 2,44,45
 289 -139 289 -139 298.5 -153.5 c 128,-1,46
 308 -168 308 -168 330 -171 c 1,47,48
 319 -219 319 -219 275 -258 c 1,49,-1
 344 -258 l 1,35,36
EndSplineSet
EndChar

StartChar: Hcircumflex
Encoding: 292 292 227
Width: 714
Flags: W
LayerCount: 2
Fore
SplineSet
628 0 m 1,0,-1
 628 698 l 1,1,-1
 515 698 l 1,2,-1
 515 404 l 1,3,-1
 199 404 l 1,4,-1
 199 698 l 1,5,-1
 86 698 l 1,6,-1
 86 0 l 1,7,-1
 199 0 l 1,8,-1
 199 304 l 1,9,-1
 515 304 l 1,10,-1
 515 0 l 1,11,-1
 628 0 l 1,0,-1
476 752 m 1,12,-1
 532 794 l 1,13,-1
 412 944 l 1,14,-1
 302 944 l 1,15,-1
 182 794 l 1,16,-1
 238 752 l 1,17,-1
 357 868 l 1,18,-1
 476 752 l 1,12,-1
EndSplineSet
EndChar

StartChar: hcircumflex
Encoding: 293 293 228
Width: 580
Flags: W
LayerCount: 2
Fore
SplineSet
507 0 m 1,0,-1
 507 330 l 2,1,2
 507 427 507 427 462.5 479.5 c 128,-1,3
 418 532 418 532 338 532 c 0,4,5
 230 532 230 532 192 434 c 1,6,-1
 187 434 l 1,7,-1
 187 740 l 1,8,-1
 78 740 l 1,9,-1
 78 0 l 1,10,-1
 187 0 l 1,11,-1
 187 349 l 2,12,13
 187 394 187 394 222 416 c 128,-1,14
 257 438 257 438 300 438 c 0,15,16
 398 438 398 438 398 317 c 2,17,-1
 398 0 l 1,18,-1
 507 0 l 1,0,-1
254 743 m 1,19,-1
 310 786 l 1,20,-1
 190 936 l 1,21,-1
 80 936 l 1,22,-1
 -40 786 l 1,23,-1
 16 743 l 1,24,-1
 135 860 l 1,25,-1
 254 743 l 1,19,-1
EndSplineSet
EndChar

StartChar: Hbar
Encoding: 294 294 229
Width: 722
Flags: W
LayerCount: 2
Fore
SplineSet
632 0 m 1,0,-1
 632 513 l 1,1,-1
 703 513 l 1,2,-1
 703 598 l 1,3,-1
 632 598 l 1,4,-1
 632 698 l 1,5,-1
 519 698 l 1,6,-1
 519 598 l 1,7,-1
 203 598 l 1,8,-1
 203 698 l 1,9,-1
 90 698 l 1,10,-1
 90 598 l 1,11,-1
 19 598 l 1,12,-1
 19 513 l 1,13,-1
 90 513 l 1,14,-1
 90 0 l 1,15,-1
 203 0 l 1,16,-1
 203 304 l 1,17,-1
 519 304 l 1,18,-1
 519 0 l 1,19,-1
 632 0 l 1,0,-1
519 404 m 1,20,-1
 203 404 l 1,21,-1
 203 513 l 1,22,-1
 519 513 l 1,23,-1
 519 404 l 1,20,-1
EndSplineSet
EndChar

StartChar: hbar
Encoding: 295 295 230
Width: 580
Flags: W
LayerCount: 2
Fore
SplineSet
507 0 m 1,0,-1
 507 330 l 2,1,2
 507 427 507 427 463 479.5 c 128,-1,3
 419 532 419 532 338 532 c 0,4,5
 230 532 230 532 192 434 c 1,6,-1
 187 434 l 1,7,-1
 187 600 l 1,8,-1
 333 600 l 1,9,-1
 333 679 l 1,10,-1
 187 679 l 1,11,-1
 187 740 l 1,12,-1
 78 740 l 1,13,-1
 78 679 l 1,14,-1
 15 679 l 1,15,-1
 15 600 l 1,16,-1
 78 600 l 1,17,-1
 78 0 l 1,18,-1
 187 0 l 1,19,-1
 187 349 l 2,20,21
 187 394 187 394 222 416 c 128,-1,22
 257 438 257 438 300 438 c 0,23,24
 398 438 398 438 398 317 c 2,25,-1
 398 0 l 1,26,-1
 507 0 l 1,0,-1
EndSplineSet
EndChar

StartChar: Itilde
Encoding: 296 296 231
Width: 285
Flags: W
LayerCount: 2
Fore
SplineSet
217 773 m 0,0,1
 284 773 284 773 320 831 c 1,2,-1
 279 883 l 1,3,4
 264 870 264 870 251 863.5 c 128,-1,5
 238 857 238 857 221 857 c 0,6,7
 190 857 190 857 147 880 c 2,8,-1
 139 884 l 2,9,10
 124 892 124 892 107.5 898 c 128,-1,11
 91 904 91 904 69 904 c 0,12,13
 2 904 2 904 -34 846 c 1,14,-1
 7 794 l 1,15,16
 22 807 22 807 35 813.5 c 128,-1,17
 48 820 48 820 65 820 c 0,18,19
 97 820 97 820 139 797 c 2,20,-1
 147 793 l 2,21,22
 162 785 162 785 178.5 779 c 128,-1,23
 195 773 195 773 217 773 c 0,0,1
199 0 m 1,24,-1
 199 698 l 1,25,-1
 86 698 l 1,26,-1
 86 0 l 1,27,-1
 199 0 l 1,24,-1
EndSplineSet
EndChar

StartChar: itilde
Encoding: 297 297 232
Width: 265
Flags: W
LayerCount: 2
Fore
SplineSet
187 0 m 1,0,-1
 187 520 l 1,1,-1
 78 520 l 1,2,-1
 78 0 l 1,3,-1
 187 0 l 1,0,-1
208 607 m 0,4,5
 275 607 275 607 311 665 c 1,6,-1
 270 717 l 1,7,8
 255 704 255 704 242 697 c 128,-1,9
 229 690 229 690 212 690 c 0,10,11
 181 690 181 690 138 714 c 2,12,-1
 130 718 l 2,13,14
 115 726 115 726 98.5 732 c 128,-1,15
 82 738 82 738 60 738 c 0,16,17
 -7 738 -7 738 -43 680 c 1,18,-1
 -2 628 l 1,19,20
 13 641 13 641 26 648 c 128,-1,21
 39 655 39 655 56 655 c 0,22,23
 88 655 88 655 130 631 c 2,24,-1
 138 627 l 2,25,26
 153 619 153 619 169.5 613 c 128,-1,27
 186 607 186 607 208 607 c 0,4,5
EndSplineSet
EndChar

StartChar: Imacron
Encoding: 298 298 233
Width: 285
Flags: W
LayerCount: 2
Fore
SplineSet
289 798 m 1,0,-1
 289 881 l 1,1,-1
 -3 881 l 1,2,-1
 -3 798 l 1,3,-1
 289 798 l 1,0,-1
199 0 m 1,4,-1
 199 698 l 1,5,-1
 86 698 l 1,6,-1
 86 0 l 1,7,-1
 199 0 l 1,4,-1
EndSplineSet
EndChar

StartChar: imacron
Encoding: 299 299 234
Width: 265
Flags: W
LayerCount: 2
Fore
SplineSet
187 0 m 1,0,-1
 187 520 l 1,1,-1
 78 520 l 1,2,-1
 78 0 l 1,3,-1
 187 0 l 1,0,-1
280 631 m 1,4,-1
 280 714 l 1,5,-1
 -12 714 l 1,6,-1
 -12 631 l 1,7,-1
 280 631 l 1,4,-1
EndSplineSet
EndChar

StartChar: Ibreve
Encoding: 300 300 235
Width: 285
Flags: W
LayerCount: 2
Fore
SplineSet
142 755 m 0,0,1
 198 755 198 755 230.5 778 c 128,-1,2
 263 801 263 801 281.5 834 c 128,-1,3
 300 867 300 867 310 899 c 1,4,-1
 250 930 l 1,5,-1
 230 897 l 2,6,7
 214 868 214 868 195 851.5 c 128,-1,8
 176 835 176 835 142 835 c 256,9,10
 108 835 108 835 89 851.5 c 128,-1,11
 70 868 70 868 54 897 c 2,12,-1
 34 930 l 1,13,-1
 -26 899 l 1,14,15
 -18 868 -18 868 1 835 c 128,-1,16
 20 802 20 802 53.5 778.5 c 128,-1,17
 87 755 87 755 142 755 c 0,0,1
199 0 m 1,18,-1
 199 698 l 1,19,-1
 86 698 l 1,20,-1
 86 0 l 1,21,-1
 199 0 l 1,18,-1
EndSplineSet
EndChar

StartChar: ibreve
Encoding: 301 301 236
Width: 265
Flags: W
LayerCount: 2
Fore
SplineSet
187 0 m 1,0,-1
 187 520 l 1,1,-1
 78 520 l 1,2,-1
 78 0 l 1,3,-1
 187 0 l 1,0,-1
133 589 m 256,4,5
 189 589 189 589 221.5 612 c 128,-1,6
 254 635 254 635 272.5 668 c 128,-1,7
 291 701 291 701 301 733 c 1,8,-1
 241 763 l 1,9,-1
 220 730 l 2,10,11
 204 702 204 702 185 685.5 c 128,-1,12
 166 669 166 669 133 669 c 256,13,14
 100 669 100 669 81 685.5 c 128,-1,15
 62 702 62 702 46 730 c 2,16,-1
 25 763 l 1,17,-1
 -35 733 l 1,18,19
 -25 701 -25 701 -6.5 668 c 128,-1,20
 12 635 12 635 44.5 612 c 128,-1,21
 77 589 77 589 133 589 c 256,4,5
EndSplineSet
EndChar

StartChar: Iogonek
Encoding: 302 302 237
Width: 285
Flags: W
LayerCount: 2
Fore
SplineSet
122 -209 m 0,0,1
 202 -209 202 -209 225 -165 c 1,2,-1
 179 -121 l 1,3,4
 160 -147 160 -147 128 -147 c 0,5,6
 94 -147 94 -147 94 -115 c 0,7,8
 94 -96 94 -96 114.5 -72.5 c 128,-1,9
 135 -49 135 -49 199 0 c 1,10,-1
 199 698 l 1,11,-1
 86 698 l 1,12,-1
 86 0 l 1,13,-1
 122 0 l 1,14,-1
 123 -5 l 1,15,16
 72 -33 72 -33 43.5 -61.5 c 128,-1,17
 15 -90 15 -90 15 -129 c 0,18,19
 15 -171 15 -171 46.5 -190 c 128,-1,20
 78 -209 78 -209 122 -209 c 0,0,1
EndSplineSet
EndChar

StartChar: iogonek
Encoding: 303 303 238
Width: 265
Flags: W
LayerCount: 2
Fore
SplineSet
110 -209 m 0,0,1
 189 -209 189 -209 213 -165 c 1,2,-1
 167 -121 l 1,3,4
 148 -147 148 -147 116 -147 c 0,5,6
 82 -147 82 -147 82 -115 c 0,7,8
 82 -96 82 -96 102.5 -72.5 c 128,-1,9
 123 -49 123 -49 187 0 c 1,10,-1
 187 520 l 1,11,-1
 78 520 l 1,12,-1
 78 0 l 1,13,-1
 111 0 l 1,14,-1
 112 -4 l 1,15,16
 64 -31 64 -31 33.5 -60 c 128,-1,17
 3 -89 3 -89 3 -129 c 0,18,19
 3 -171 3 -171 34.5 -190 c 128,-1,20
 66 -209 66 -209 110 -209 c 0,0,1
133 613 m 256,21,22
 167 613 167 613 182 629 c 128,-1,23
 197 645 197 645 197 670 c 2,24,-1
 197 687 l 2,25,26
 197 712 197 712 182 728 c 128,-1,27
 167 744 167 744 133 744 c 256,28,29
 99 744 99 744 83.5 728 c 128,-1,30
 68 712 68 712 68 687 c 2,31,-1
 68 670 l 2,32,33
 68 645 68 645 83.5 629 c 128,-1,34
 99 613 99 613 133 613 c 256,21,22
EndSplineSet
EndChar

StartChar: Idotaccent
Encoding: 304 304 239
Width: 285
Flags: W
LayerCount: 2
Fore
SplineSet
143 768 m 256,0,1
 213 768 213 768 213 828 c 2,2,-1
 213 849 l 2,3,4
 213 909 213 909 143 909 c 256,5,6
 73 909 73 909 73 849 c 2,7,-1
 73 828 l 2,8,9
 73 768 73 768 143 768 c 256,0,1
199 0 m 1,10,-1
 199 698 l 1,11,-1
 86 698 l 1,12,-1
 86 0 l 1,13,-1
 199 0 l 1,10,-1
EndSplineSet
EndChar

StartChar: dotlessi
Encoding: 305 305 240
Width: 265
Flags: W
LayerCount: 2
Fore
SplineSet
187 0 m 1,0,-1
 187 520 l 1,1,-1
 78 520 l 1,2,-1
 78 0 l 1,3,-1
 187 0 l 1,0,-1
EndSplineSet
EndChar

StartChar: ij
Encoding: 307 307 242
Width: 526
Flags: W
LayerCount: 2
Fore
SplineSet
133 613 m 256,0,1
 167 613 167 613 182 629 c 128,-1,2
 197 645 197 645 197 670 c 2,3,-1
 197 687 l 2,4,5
 197 712 197 712 182 728 c 128,-1,6
 167 744 167 744 133 744 c 256,7,8
 99 744 99 744 83.5 728 c 128,-1,9
 68 712 68 712 68 687 c 2,10,-1
 68 670 l 2,11,12
 68 645 68 645 83.5 629 c 128,-1,13
 99 613 99 613 133 613 c 256,0,1
187 0 m 1,14,-1
 187 520 l 1,15,-1
 78 520 l 1,16,-1
 78 0 l 1,17,-1
 187 0 l 1,14,-1
321 -200 m 2,18,19
 387 -200 387 -200 417.5 -165 c 128,-1,20
 448 -130 448 -130 448 -70 c 2,21,-1
 448 520 l 1,22,-1
 339 520 l 1,23,-1
 339 -111 l 1,24,-1
 258 -111 l 1,25,-1
 258 -200 l 1,26,-1
 321 -200 l 2,18,19
394 613 m 256,27,28
 428 613 428 613 443 629 c 128,-1,29
 458 645 458 645 458 670 c 2,30,-1
 458 687 l 2,31,32
 458 712 458 712 443 728 c 128,-1,33
 428 744 428 744 394 744 c 256,34,35
 360 744 360 744 344.5 728 c 128,-1,36
 329 712 329 712 329 687 c 2,37,-1
 329 670 l 2,38,39
 329 645 329 645 344.5 629 c 128,-1,40
 360 613 360 613 394 613 c 256,27,28
EndSplineSet
EndChar

StartChar: Jcircumflex
Encoding: 308 308 243
Width: 531
Flags: W
LayerCount: 2
Fore
SplineSet
237 -12 m 0,0,1
 146 -12 146 -12 93.5 36 c 128,-1,2
 41 84 41 84 27 163 c 1,3,-1
 131 186 l 1,4,5
 150 89 150 89 237 89 c 0,6,7
 282 89 282 89 309 117 c 128,-1,8
 336 145 336 145 336 202 c 2,9,-1
 336 698 l 1,10,-1
 449 698 l 1,11,-1
 449 190 l 2,12,13
 449 101 449 101 392.5 44.5 c 128,-1,14
 336 -12 336 -12 237 -12 c 0,0,1
400 752 m 1,15,-1
 281 868 l 1,16,-1
 162 752 l 1,17,-1
 106 794 l 1,18,-1
 226 944 l 1,19,-1
 336 944 l 1,20,-1
 456 794 l 1,21,-1
 400 752 l 1,15,-1
EndSplineSet
EndChar

StartChar: jcircumflex
Encoding: 309 309 244
Width: 265
Flags: W
LayerCount: 2
Fore
SplineSet
60 -200 m 2,0,1
 126 -200 126 -200 156.5 -165 c 128,-1,2
 187 -130 187 -130 187 -70 c 2,3,-1
 187 520 l 1,4,-1
 78 520 l 1,5,-1
 78 -111 l 1,6,-1
 -3 -111 l 1,7,-1
 -3 -200 l 1,8,-1
 60 -200 l 2,0,1
253 585 m 1,9,-1
 309 628 l 1,10,-1
 189 778 l 1,11,-1
 79 778 l 1,12,-1
 -41 628 l 1,13,-1
 15 585 l 1,14,-1
 134 702 l 1,15,-1
 253 585 l 1,9,-1
EndSplineSet
EndChar

StartChar: u0136
Encoding: 310 310 245
Width: 660
Flags: W
LayerCount: 2
Fore
SplineSet
643 0 m 1,0,-1
 374 404 l 1,1,-1
 623 698 l 1,2,-1
 491 698 l 1,3,-1
 372 555 l 2,4,5
 333 509 333 509 300 467 c 2,6,-1
 203 344 l 1,7,-1
 199 344 l 1,8,-1
 199 698 l 1,9,-1
 86 698 l 1,10,-1
 86 0 l 1,11,-1
 199 0 l 1,12,-1
 199 216 l 1,13,-1
 295 326 l 1,14,-1
 507 0 l 1,15,-1
 643 0 l 1,0,-1
343 -258 m 1,16,17
 370 -234 370 -234 388 -197.5 c 128,-1,18
 406 -161 406 -161 406 -121 c 2,19,-1
 406 -109 l 2,20,21
 406 -56 406 -56 347 -56 c 0,22,23
 289 -56 289 -56 288 -109 c 2,24,-1
 288 -120 l 2,25,26
 288 -139 288 -139 297.5 -153.5 c 128,-1,27
 307 -168 307 -168 329 -171 c 1,28,29
 318 -219 318 -219 274 -258 c 1,30,-1
 343 -258 l 1,16,17
EndSplineSet
EndChar

StartChar: u0137
Encoding: 311 311 246
Width: 547
Flags: W
LayerCount: 2
Fore
SplineSet
538 0 m 1,0,-1
 334 319 l 1,1,-1
 516 520 l 1,2,-1
 389 520 l 1,3,-1
 264 379 l 1,4,-1
 192 286 l 1,5,-1
 187 286 l 1,6,-1
 187 740 l 1,7,-1
 78 740 l 1,8,-1
 78 0 l 1,9,-1
 187 0 l 1,10,-1
 187 170 l 1,11,-1
 259 248 l 1,12,-1
 408 0 l 1,13,-1
 538 0 l 1,0,-1
301 -258 m 1,14,15
 328 -234 328 -234 346 -197.5 c 128,-1,16
 364 -161 364 -161 364 -121 c 2,17,-1
 364 -109 l 2,18,19
 364 -56 364 -56 305 -56 c 0,20,21
 247 -56 247 -56 246 -109 c 2,22,-1
 246 -120 l 2,23,24
 246 -139 246 -139 255.5 -153.5 c 128,-1,25
 265 -168 265 -168 287 -171 c 1,26,27
 276 -219 276 -219 232 -258 c 1,28,-1
 301 -258 l 1,14,15
EndSplineSet
EndChar

StartChar: kgreenlandic
Encoding: 312 312 247
Width: 547
Flags: W
LayerCount: 2
Fore
SplineSet
538 0 m 1,0,-1
 336 317 l 1,1,-1
 527 520 l 1,2,-1
 400 520 l 1,3,-1
 267 376 l 1,4,-1
 192 286 l 1,5,-1
 187 286 l 1,6,-1
 187 520 l 1,7,-1
 78 520 l 1,8,-1
 78 0 l 1,9,-1
 187 0 l 1,10,-1
 187 170 l 1,11,-1
 259 245 l 1,12,-1
 409 0 l 1,13,-1
 538 0 l 1,0,-1
EndSplineSet
EndChar

StartChar: Lacute
Encoding: 313 313 248
Width: 513
Flags: W
LayerCount: 2
Fore
SplineSet
483 0 m 1,0,-1
 483 100 l 1,1,-1
 199 100 l 1,2,-1
 199 698 l 1,3,-1
 86 698 l 1,4,-1
 86 0 l 1,5,-1
 483 0 l 1,0,-1
155 749 m 1,6,-1
 273 915 l 1,7,-1
 178 961 l 1,8,-1
 87 781 l 1,9,-1
 155 749 l 1,6,-1
EndSplineSet
EndChar

StartChar: lacute
Encoding: 314 314 249
Width: 285
Flags: W
LayerCount: 2
Fore
SplineSet
145 782 m 1,0,-1
 263 949 l 1,1,-1
 168 995 l 1,2,-1
 77 815 l 1,3,-1
 145 782 l 1,0,-1
259 0 m 1,4,-1
 259 89 l 1,5,-1
 187 89 l 1,6,-1
 187 740 l 1,7,-1
 78 740 l 1,8,-1
 78 108 l 2,9,10
 78 57 78 57 105.5 28.5 c 128,-1,11
 133 0 133 0 189 0 c 2,12,-1
 259 0 l 1,4,-1
EndSplineSet
EndChar

StartChar: u013B
Encoding: 315 315 250
Width: 513
Flags: W
LayerCount: 2
Fore
SplineSet
483 0 m 1,0,-1
 483 100 l 1,1,-1
 199 100 l 1,2,-1
 199 698 l 1,3,-1
 86 698 l 1,4,-1
 86 0 l 1,5,-1
 483 0 l 1,0,-1
288 -258 m 1,6,7
 315 -234 315 -234 333 -197.5 c 128,-1,8
 351 -161 351 -161 351 -121 c 2,9,-1
 351 -109 l 2,10,11
 351 -56 351 -56 292 -56 c 0,12,13
 234 -56 234 -56 233 -109 c 2,14,-1
 233 -120 l 2,15,16
 233 -139 233 -139 242.5 -153.5 c 128,-1,17
 252 -168 252 -168 274 -171 c 1,18,19
 263 -219 263 -219 219 -258 c 1,20,-1
 288 -258 l 1,6,7
EndSplineSet
EndChar

StartChar: u013C
Encoding: 316 316 251
Width: 285
Flags: W
LayerCount: 2
Fore
SplineSet
259 0 m 1,0,-1
 259 89 l 1,1,-1
 187 89 l 1,2,-1
 187 740 l 1,3,-1
 78 740 l 1,4,-1
 78 108 l 2,5,6
 78 57 78 57 105.5 28.5 c 128,-1,7
 133 0 133 0 189 0 c 2,8,-1
 259 0 l 1,0,-1
164 -258 m 1,9,10
 191 -234 191 -234 209 -197.5 c 128,-1,11
 227 -161 227 -161 227 -121 c 2,12,-1
 227 -109 l 2,13,14
 227 -56 227 -56 168 -56 c 0,15,16
 110 -56 110 -56 109 -109 c 2,17,-1
 109 -120 l 2,18,19
 109 -139 109 -139 118.5 -153.5 c 128,-1,20
 128 -168 128 -168 150 -171 c 1,21,22
 139 -219 139 -219 95 -258 c 1,23,-1
 164 -258 l 1,9,10
EndSplineSet
EndChar

StartChar: Lcaron
Encoding: 317 317 252
Width: 513
Flags: W
LayerCount: 2
Fore
SplineSet
483 0 m 1,0,-1
 483 100 l 1,1,-1
 199 100 l 1,2,-1
 199 698 l 1,3,-1
 86 698 l 1,4,-1
 86 0 l 1,5,-1
 483 0 l 1,0,-1
347 542 m 1,6,-1
 405 740 l 1,7,-1
 285 740 l 1,8,-1
 275 542 l 1,9,-1
 347 542 l 1,6,-1
EndSplineSet
EndChar

StartChar: lcaron
Encoding: 318 318 253
Width: 310
Flags: W
LayerCount: 2
Fore
SplineSet
315 542 m 1,0,-1
 373 740 l 1,1,-1
 253 740 l 1,2,-1
 243 542 l 1,3,-1
 315 542 l 1,0,-1
259 0 m 1,4,-1
 259 89 l 1,5,-1
 187 89 l 1,6,-1
 187 740 l 1,7,-1
 78 740 l 1,8,-1
 78 108 l 2,9,10
 78 57 78 57 105.5 28.5 c 128,-1,11
 133 0 133 0 189 0 c 2,12,-1
 259 0 l 1,4,-1
EndSplineSet
EndChar

StartChar: Ldot
Encoding: 319 319 254
Width: 513
Flags: W
LayerCount: 2
Fore
SplineSet
483 0 m 1,0,-1
 483 100 l 1,1,-1
 199 100 l 1,2,-1
 199 698 l 1,3,-1
 86 698 l 1,4,-1
 86 0 l 1,5,-1
 483 0 l 1,0,-1
398 306 m 256,6,7
 465 306 465 306 465 363 c 2,8,-1
 465 381 l 2,9,10
 465 438 465 438 398 438 c 256,11,12
 331 438 331 438 331 381 c 2,13,-1
 331 363 l 2,14,15
 331 306 331 306 398 306 c 256,6,7
EndSplineSet
EndChar

StartChar: ldot
Encoding: 320 320 255
Width: 396
Flags: W
LayerCount: 2
Fore
SplineSet
330 263 m 256,0,1
 397 263 397 263 397 320 c 2,2,-1
 397 338 l 2,3,4
 397 395 397 395 330 395 c 256,5,6
 263 395 263 395 263 338 c 2,7,-1
 263 320 l 2,8,9
 263 263 263 263 330 263 c 256,0,1
259 0 m 1,10,-1
 259 89 l 1,11,-1
 187 89 l 1,12,-1
 187 740 l 1,13,-1
 78 740 l 1,14,-1
 78 108 l 2,15,16
 78 57 78 57 105.5 28.5 c 128,-1,17
 133 0 133 0 189 0 c 2,18,-1
 259 0 l 1,10,-1
EndSplineSet
EndChar

StartChar: Lslash
Encoding: 321 321 256
Width: 522
Flags: W
LayerCount: 2
Fore
SplineSet
487 0 m 1,0,-1
 487 100 l 1,1,-1
 203 100 l 1,2,-1
 203 295 l 1,3,-1
 374 351 l 1,4,-1
 374 440 l 1,5,-1
 203 383 l 1,6,-1
 203 698 l 1,7,-1
 90 698 l 1,8,-1
 90 346 l 1,9,-1
 -7 314 l 1,10,-1
 -7 227 l 1,11,-1
 90 259 l 1,12,-1
 90 0 l 1,13,-1
 487 0 l 1,0,-1
EndSplineSet
EndChar

StartChar: lslash
Encoding: 322 322 257
Width: 292
Flags: W
LayerCount: 2
Fore
SplineSet
263 0 m 1,0,-1
 263 89 l 1,1,-1
 191 89 l 1,2,-1
 191 348 l 1,3,-1
 294 382 l 1,4,-1
 294 468 l 1,5,-1
 191 434 l 1,6,-1
 191 740 l 1,7,-1
 82 740 l 1,8,-1
 82 398 l 1,9,-1
 9 374 l 1,10,-1
 9 288 l 1,11,-1
 82 312 l 1,12,-1
 82 108 l 2,13,14
 82 57 82 57 109.5 28.5 c 128,-1,15
 137 0 137 0 193 0 c 2,16,-1
 263 0 l 1,0,-1
EndSplineSet
EndChar

StartChar: Nacute
Encoding: 323 323 258
Width: 714
Flags: W
LayerCount: 2
Fore
SplineSet
628 0 m 1,0,-1
 628 698 l 1,1,-1
 520 698 l 1,2,-1
 520 164 l 1,3,-1
 517 164 l 1,4,-1
 440 312 l 1,5,-1
 212 698 l 1,6,-1
 86 698 l 1,7,-1
 86 0 l 1,8,-1
 194 0 l 1,9,-1
 194 534 l 1,10,-1
 197 534 l 1,11,-1
 274 386 l 1,12,-1
 502 0 l 1,13,-1
 628 0 l 1,0,-1
368 749 m 1,14,-1
 486 915 l 1,15,-1
 391 961 l 1,16,-1
 300 781 l 1,17,-1
 368 749 l 1,14,-1
EndSplineSet
EndChar

StartChar: nacute
Encoding: 324 324 259
Width: 580
Flags: W
LayerCount: 2
Fore
SplineSet
507 0 m 1,0,-1
 507 330 l 2,1,2
 507 427 507 427 462.5 479.5 c 128,-1,3
 418 532 418 532 338 532 c 0,4,5
 230 532 230 532 192 434 c 1,6,-1
 187 434 l 1,7,-1
 187 520 l 1,8,-1
 78 520 l 1,9,-1
 78 0 l 1,10,-1
 187 0 l 1,11,-1
 187 348 l 2,12,13
 187 395 187 395 222.5 416.5 c 128,-1,14
 258 438 258 438 300 438 c 0,15,16
 398 438 398 438 398 316 c 2,17,-1
 398 0 l 1,18,-1
 507 0 l 1,0,-1
305 582 m 1,19,-1
 423 749 l 1,20,-1
 328 795 l 1,21,-1
 237 615 l 1,22,-1
 305 582 l 1,19,-1
EndSplineSet
EndChar

StartChar: u0145
Encoding: 325 325 260
Width: 714
Flags: W
LayerCount: 2
Fore
SplineSet
628 0 m 1,0,-1
 628 698 l 1,1,-1
 520 698 l 1,2,-1
 520 164 l 1,3,-1
 517 164 l 1,4,-1
 440 312 l 1,5,-1
 212 698 l 1,6,-1
 86 698 l 1,7,-1
 86 0 l 1,8,-1
 194 0 l 1,9,-1
 194 534 l 1,10,-1
 197 534 l 1,11,-1
 274 386 l 1,12,-1
 502 0 l 1,13,-1
 628 0 l 1,0,-1
352 -258 m 1,14,15
 379 -234 379 -234 397 -197.5 c 128,-1,16
 415 -161 415 -161 415 -121 c 2,17,-1
 415 -109 l 2,18,19
 415 -56 415 -56 356 -56 c 0,20,21
 298 -56 298 -56 297 -109 c 2,22,-1
 297 -120 l 2,23,24
 297 -139 297 -139 306.5 -153.5 c 128,-1,25
 316 -168 316 -168 338 -171 c 1,26,27
 327 -219 327 -219 283 -258 c 1,28,-1
 352 -258 l 1,14,15
EndSplineSet
EndChar

StartChar: u0146
Encoding: 326 326 261
Width: 580
Flags: W
LayerCount: 2
Fore
SplineSet
507 0 m 1,0,-1
 507 330 l 2,1,2
 507 427 507 427 462.5 479.5 c 128,-1,3
 418 532 418 532 338 532 c 0,4,5
 230 532 230 532 192 434 c 1,6,-1
 187 434 l 1,7,-1
 187 520 l 1,8,-1
 78 520 l 1,9,-1
 78 0 l 1,10,-1
 187 0 l 1,11,-1
 187 348 l 2,12,13
 187 395 187 395 222.5 416.5 c 128,-1,14
 258 438 258 438 300 438 c 0,15,16
 398 438 398 438 398 316 c 2,17,-1
 398 0 l 1,18,-1
 507 0 l 1,0,-1
288 -258 m 1,19,20
 315 -234 315 -234 333 -197.5 c 128,-1,21
 351 -161 351 -161 351 -121 c 2,22,-1
 351 -109 l 2,23,24
 351 -56 351 -56 292 -56 c 0,25,26
 234 -56 234 -56 233 -109 c 2,27,-1
 233 -120 l 2,28,29
 233 -139 233 -139 242.5 -153.5 c 128,-1,30
 252 -168 252 -168 274 -171 c 1,31,32
 263 -219 263 -219 219 -258 c 1,33,-1
 288 -258 l 1,19,20
EndSplineSet
EndChar

StartChar: Ncaron
Encoding: 327 327 262
Width: 714
Flags: W
LayerCount: 2
Fore
SplineSet
628 0 m 1,0,-1
 628 698 l 1,1,-1
 520 698 l 1,2,-1
 520 164 l 1,3,-1
 517 164 l 1,4,-1
 440 312 l 1,5,-1
 212 698 l 1,6,-1
 86 698 l 1,7,-1
 86 0 l 1,8,-1
 194 0 l 1,9,-1
 194 534 l 1,10,-1
 197 534 l 1,11,-1
 274 386 l 1,12,-1
 502 0 l 1,13,-1
 628 0 l 1,0,-1
412 760 m 1,14,-1
 532 910 l 1,15,-1
 476 952 l 1,16,-1
 357 836 l 1,17,-1
 238 952 l 1,18,-1
 182 910 l 1,19,-1
 302 760 l 1,20,-1
 412 760 l 1,14,-1
EndSplineSet
EndChar

StartChar: ncaron
Encoding: 328 328 263
Width: 580
Flags: W
LayerCount: 2
Fore
SplineSet
507 0 m 1,0,-1
 507 330 l 2,1,2
 507 427 507 427 462.5 479.5 c 128,-1,3
 418 532 418 532 338 532 c 0,4,5
 230 532 230 532 192 434 c 1,6,-1
 187 434 l 1,7,-1
 187 520 l 1,8,-1
 78 520 l 1,9,-1
 78 0 l 1,10,-1
 187 0 l 1,11,-1
 187 348 l 2,12,13
 187 395 187 395 222.5 416.5 c 128,-1,14
 258 438 258 438 300 438 c 0,15,16
 398 438 398 438 398 316 c 2,17,-1
 398 0 l 1,18,-1
 507 0 l 1,0,-1
349 594 m 1,19,-1
 469 744 l 1,20,-1
 413 786 l 1,21,-1
 294 670 l 1,22,-1
 175 786 l 1,23,-1
 119 744 l 1,24,-1
 239 594 l 1,25,-1
 349 594 l 1,19,-1
EndSplineSet
EndChar

StartChar: napostrophe
Encoding: 329 329 264
Width: 844
Flags: W
LayerCount: 2
Fore
SplineSet
119 479 m 1,0,1
 162 515 162 515 189.5 567 c 128,-1,2
 217 619 217 619 217 668 c 2,3,-1
 217 685 l 2,4,5
 217 750 217 750 145 750 c 256,6,7
 73 750 73 750 73 685 c 2,8,-1
 73 667 l 2,9,10
 73 616 73 616 124 605 c 1,11,12
 104 538 104 538 41 479 c 1,13,-1
 119 479 l 1,0,1
771 0 m 1,14,-1
 771 330 l 2,15,16
 771 427 771 427 726.5 479.5 c 128,-1,17
 682 532 682 532 602 532 c 0,18,19
 494 532 494 532 456 434 c 1,20,-1
 451 434 l 1,21,-1
 451 520 l 1,22,-1
 342 520 l 1,23,-1
 342 0 l 1,24,-1
 451 0 l 1,25,-1
 451 348 l 2,26,27
 451 395 451 395 486.5 416.5 c 128,-1,28
 522 438 522 438 564 438 c 0,29,30
 662 438 662 438 662 316 c 2,31,-1
 662 0 l 1,32,-1
 771 0 l 1,14,-1
EndSplineSet
EndChar

StartChar: Eng
Encoding: 330 330 265
Width: 714
Flags: W
LayerCount: 2
Fore
SplineSet
500 -200 m 2,0,1
 566 -200 566 -200 597 -164.5 c 128,-1,2
 628 -129 628 -129 628 -67 c 2,3,-1
 628 698 l 1,4,-1
 520 698 l 1,5,-1
 520 164 l 1,6,-1
 517 164 l 1,7,-1
 440 312 l 1,8,-1
 212 698 l 1,9,-1
 86 698 l 1,10,-1
 86 0 l 1,11,-1
 194 0 l 1,12,-1
 194 534 l 1,13,-1
 197 534 l 1,14,-1
 274 386 l 1,15,-1
 502 0 l 1,16,-1
 520 0 l 1,17,-1
 520 -108 l 1,18,-1
 435 -108 l 1,19,-1
 435 -200 l 1,20,-1
 500 -200 l 2,0,1
EndSplineSet
EndChar

StartChar: eng
Encoding: 331 331 266
Width: 580
Flags: W
LayerCount: 2
Fore
SplineSet
381 -200 m 2,0,1
 507 -200 507 -200 507 -71 c 2,2,-1
 507 330 l 2,3,4
 507 427 507 427 462.5 479.5 c 128,-1,5
 418 532 418 532 338 532 c 0,6,7
 230 532 230 532 192 434 c 1,8,-1
 187 434 l 1,9,-1
 187 520 l 1,10,-1
 78 520 l 1,11,-1
 78 0 l 1,12,-1
 187 0 l 1,13,-1
 187 349 l 2,14,15
 187 394 187 394 221.5 416 c 128,-1,16
 256 438 256 438 300 438 c 0,17,18
 398 438 398 438 398 317 c 2,19,-1
 398 -111 l 1,20,-1
 317 -111 l 1,21,-1
 317 -200 l 1,22,-1
 381 -200 l 2,0,1
EndSplineSet
EndChar

StartChar: Omacron
Encoding: 332 332 267
Width: 712
GlyphClass: 2
Flags: W
LayerCount: 2
Fore
SplineSet
356 -12 m 0,0,1
 496 -12 496 -12 576.5 82.5 c 128,-1,2
 657 177 657 177 657 349 c 0,3,4
 657 471 657 471 618 551 c 128,-1,5
 579 631 579 631 511 670.5 c 128,-1,6
 443 710 443 710 356 710 c 0,7,8
 214 710 214 710 134.5 614 c 128,-1,9
 55 518 55 518 55 349 c 256,10,11
 55 180 55 180 135 84 c 128,-1,12
 215 -12 215 -12 356 -12 c 0,0,1
356 89 m 0,13,14
 275 89 275 89 225.5 144 c 128,-1,15
 176 199 176 199 176 294 c 2,16,-1
 176 404 l 2,17,18
 176 496 176 496 223.5 552.5 c 128,-1,19
 271 609 271 609 356 609 c 0,20,21
 437 609 437 609 486.5 555.5 c 128,-1,22
 536 502 536 502 536 404 c 2,23,-1
 536 294 l 2,24,25
 536 194 536 194 484.5 141.5 c 128,-1,26
 433 89 433 89 356 89 c 0,13,14
502 798 m 1,27,-1
 502 881 l 1,28,-1
 210 881 l 1,29,-1
 210 798 l 1,30,-1
 502 798 l 1,27,-1
EndSplineSet
EndChar

StartChar: omacron
Encoding: 333 333 268
Width: 564
GlyphClass: 6
Flags: W
LayerCount: 2
Fore
SplineSet
282 -12 m 256,0,1
 394 -12 394 -12 457.5 64 c 128,-1,2
 521 140 521 140 521 260 c 0,3,4
 521 388 521 388 454.5 460 c 128,-1,5
 388 532 388 532 282 532 c 256,6,7
 176 532 176 532 109.5 460 c 128,-1,8
 43 388 43 388 43 260 c 0,9,10
 43 140 43 140 106.5 64 c 128,-1,11
 170 -12 170 -12 282 -12 c 256,0,1
282 78 m 256,12,13
 226 78 226 78 192 112.5 c 128,-1,14
 158 147 158 147 158 216 c 2,15,-1
 158 304 l 2,16,17
 158 373 158 373 192 407.5 c 128,-1,18
 226 442 226 442 282 442 c 256,19,20
 338 442 338 442 372 407.5 c 128,-1,21
 406 373 406 373 406 304 c 2,22,-1
 406 216 l 2,23,24
 406 147 406 147 372 112.5 c 128,-1,25
 338 78 338 78 282 78 c 256,12,13
428 631 m 1,26,-1
 428 714 l 1,27,-1
 136 714 l 1,28,-1
 136 631 l 1,29,-1
 428 631 l 1,26,-1
EndSplineSet
EndChar

StartChar: Obreve
Encoding: 334 334 269
Width: 712
GlyphClass: 7
Flags: W
LayerCount: 2
Fore
SplineSet
356 -12 m 0,0,1
 496 -12 496 -12 576.5 82.5 c 128,-1,2
 657 177 657 177 657 349 c 0,3,4
 657 471 657 471 618 551 c 128,-1,5
 579 631 579 631 511 670.5 c 128,-1,6
 443 710 443 710 356 710 c 0,7,8
 214 710 214 710 134.5 614 c 128,-1,9
 55 518 55 518 55 349 c 256,10,11
 55 180 55 180 135 84 c 128,-1,12
 215 -12 215 -12 356 -12 c 0,0,1
356 89 m 0,13,14
 275 89 275 89 225.5 144 c 128,-1,15
 176 199 176 199 176 294 c 2,16,-1
 176 404 l 2,17,18
 176 496 176 496 223.5 552.5 c 128,-1,19
 271 609 271 609 356 609 c 0,20,21
 437 609 437 609 486.5 555.5 c 128,-1,22
 536 502 536 502 536 404 c 2,23,-1
 536 294 l 2,24,25
 536 194 536 194 484.5 141.5 c 128,-1,26
 433 89 433 89 356 89 c 0,13,14
355 755 m 0,27,28
 411 755 411 755 443.5 778 c 128,-1,29
 476 801 476 801 494.5 834 c 128,-1,30
 513 867 513 867 523 899 c 1,31,-1
 463 930 l 1,32,-1
 443 897 l 2,33,34
 427 868 427 868 408 851.5 c 128,-1,35
 389 835 389 835 355 835 c 256,36,37
 321 835 321 835 302 851.5 c 128,-1,38
 283 868 283 868 267 897 c 2,39,-1
 247 930 l 1,40,-1
 187 899 l 1,41,42
 195 868 195 868 214 835 c 128,-1,43
 233 802 233 802 266.5 778.5 c 128,-1,44
 300 755 300 755 355 755 c 0,27,28
EndSplineSet
EndChar

StartChar: obreve
Encoding: 335 335 270
Width: 564
GlyphClass: 3
Flags: W
LayerCount: 2
Fore
SplineSet
282 -12 m 256,0,1
 394 -12 394 -12 457.5 64 c 128,-1,2
 521 140 521 140 521 260 c 0,3,4
 521 388 521 388 454.5 460 c 128,-1,5
 388 532 388 532 282 532 c 256,6,7
 176 532 176 532 109.5 460 c 128,-1,8
 43 388 43 388 43 260 c 0,9,10
 43 140 43 140 106.5 64 c 128,-1,11
 170 -12 170 -12 282 -12 c 256,0,1
282 78 m 256,12,13
 226 78 226 78 192 112.5 c 128,-1,14
 158 147 158 147 158 216 c 2,15,-1
 158 304 l 2,16,17
 158 373 158 373 192 407.5 c 128,-1,18
 226 442 226 442 282 442 c 256,19,20
 338 442 338 442 372 407.5 c 128,-1,21
 406 373 406 373 406 304 c 2,22,-1
 406 216 l 2,23,24
 406 147 406 147 372 112.5 c 128,-1,25
 338 78 338 78 282 78 c 256,12,13
281 589 m 256,26,27
 337 589 337 589 369.5 612 c 128,-1,28
 402 635 402 635 420.5 668 c 128,-1,29
 439 701 439 701 449 733 c 1,30,-1
 389 763 l 1,31,-1
 368 730 l 2,32,33
 352 702 352 702 333 685.5 c 128,-1,34
 314 669 314 669 281 669 c 256,35,36
 248 669 248 669 229 685.5 c 128,-1,37
 210 702 210 702 194 730 c 2,38,-1
 173 763 l 1,39,-1
 113 733 l 1,40,41
 123 701 123 701 141.5 668 c 128,-1,42
 160 635 160 635 192.5 612 c 128,-1,43
 225 589 225 589 281 589 c 256,26,27
EndSplineSet
EndChar

StartChar: Ohungarumlaut
Encoding: 336 336 271
Width: 712
Flags: W
LayerCount: 2
Fore
SplineSet
356 -12 m 0,0,1
 496 -12 496 -12 576.5 82.5 c 128,-1,2
 657 177 657 177 657 349 c 0,3,4
 657 471 657 471 618 551 c 128,-1,5
 579 631 579 631 511 670.5 c 128,-1,6
 443 710 443 710 356 710 c 0,7,8
 214 710 214 710 134.5 614 c 128,-1,9
 55 518 55 518 55 349 c 256,10,11
 55 180 55 180 135 84 c 128,-1,12
 215 -12 215 -12 356 -12 c 0,0,1
356 89 m 0,13,14
 275 89 275 89 225.5 144 c 128,-1,15
 176 199 176 199 176 294 c 2,16,-1
 176 404 l 2,17,18
 176 496 176 496 223.5 552.5 c 128,-1,19
 271 609 271 609 356 609 c 0,20,21
 437 609 437 609 486.5 555.5 c 128,-1,22
 536 502 536 502 536 404 c 2,23,-1
 536 294 l 2,24,25
 536 194 536 194 484.5 141.5 c 128,-1,26
 433 89 433 89 356 89 c 0,13,14
276 749 m 1,27,-1
 394 915 l 1,28,-1
 305 959 l 1,29,-1
 214 778 l 1,30,-1
 276 749 l 1,27,-1
455 749 m 1,31,-1
 573 915 l 1,32,-1
 484 959 l 1,33,-1
 393 778 l 1,34,-1
 455 749 l 1,31,-1
EndSplineSet
EndChar

StartChar: ohungarumlaut
Encoding: 337 337 272
Width: 564
Flags: W
LayerCount: 2
Fore
SplineSet
282 -12 m 256,0,1
 394 -12 394 -12 457.5 64 c 128,-1,2
 521 140 521 140 521 260 c 0,3,4
 521 388 521 388 454.5 460 c 128,-1,5
 388 532 388 532 282 532 c 256,6,7
 176 532 176 532 109.5 460 c 128,-1,8
 43 388 43 388 43 260 c 0,9,10
 43 140 43 140 106.5 64 c 128,-1,11
 170 -12 170 -12 282 -12 c 256,0,1
282 78 m 256,12,13
 226 78 226 78 192 112.5 c 128,-1,14
 158 147 158 147 158 216 c 2,15,-1
 158 304 l 2,16,17
 158 373 158 373 192 407.5 c 128,-1,18
 226 442 226 442 282 442 c 256,19,20
 338 442 338 442 372 407.5 c 128,-1,21
 406 373 406 373 406 304 c 2,22,-1
 406 216 l 2,23,24
 406 147 406 147 372 112.5 c 128,-1,25
 338 78 338 78 282 78 c 256,12,13
202 583 m 1,26,-1
 320 749 l 1,27,-1
 231 793 l 1,28,-1
 140 612 l 1,29,-1
 202 583 l 1,26,-1
381 583 m 1,30,-1
 499 749 l 1,31,-1
 410 793 l 1,32,-1
 319 612 l 1,33,-1
 381 583 l 1,30,-1
EndSplineSet
EndChar

StartChar: OE
Encoding: 338 338 273
Width: 990
Flags: W
LayerCount: 2
Fore
SplineSet
363 -12 m 0,0,1
 428 -12 428 -12 486 0 c 1,2,-1
 930 0 l 1,3,-1
 930 100 l 1,4,-1
 596 100 l 1,5,-1
 596 304 l 1,6,-1
 899 304 l 1,7,-1
 899 404 l 1,8,-1
 596 404 l 1,9,-1
 596 598 l 1,10,-1
 930 598 l 1,11,-1
 930 698 l 1,12,-1
 489 698 l 1,13,14
 428 710 428 710 363 710 c 0,15,16
 272 710 272 710 202.5 670.5 c 128,-1,17
 133 631 133 631 94 551 c 128,-1,18
 55 471 55 471 55 349 c 0,19,20
 55 178 55 178 135.5 83 c 128,-1,21
 216 -12 216 -12 363 -12 c 0,0,1
369 89 m 0,22,23
 272 89 272 89 224 143.5 c 128,-1,24
 176 198 176 198 176 294 c 2,25,-1
 176 404 l 2,26,27
 176 500 176 500 224 554.5 c 128,-1,28
 272 609 272 609 369 609 c 0,29,30
 428 609 428 609 483 595 c 1,31,-1
 483 103 l 1,32,33
 428 89 428 89 369 89 c 0,22,23
EndSplineSet
EndChar

StartChar: oe
Encoding: 339 339 274
Width: 921
Flags: W
LayerCount: 2
Fore
SplineSet
282 78 m 256,0,1
 226 78 226 78 192 112.5 c 128,-1,2
 158 147 158 147 158 216 c 2,3,-1
 158 304 l 2,4,5
 158 373 158 373 192 407.5 c 128,-1,6
 226 442 226 442 282 442 c 256,7,8
 338 442 338 442 372 407.5 c 128,-1,9
 406 373 406 373 406 304 c 2,10,-1
 406 216 l 2,11,12
 406 147 406 147 372 112.5 c 128,-1,13
 338 78 338 78 282 78 c 256,0,1
763 304 m 1,14,-1
 521 304 l 1,15,16
 521 371 521 371 556.5 409 c 128,-1,17
 592 447 592 447 647 447 c 0,18,19
 701 447 701 447 732 410.5 c 128,-1,20
 763 374 763 374 763 314 c 2,21,-1
 763 304 l 1,14,-1
653 -12 m 256,22,23
 725 -12 725 -12 778 16 c 128,-1,24
 831 44 831 44 861 93 c 1,25,-1
 797 156 l 1,26,27
 748 78 748 78 660 78 c 0,28,29
 592 78 592 78 556.5 116.5 c 128,-1,30
 521 155 521 155 521 215 c 2,31,-1
 521 232 l 1,32,-1
 878 232 l 1,33,-1
 878 273 l 2,34,35
 878 394 878 394 814.5 463 c 128,-1,36
 751 532 751 532 648 532 c 0,37,38
 516 532 516 532 466 434 c 1,39,-1
 460 434 l 1,40,41
 407 532 407 532 282 532 c 0,42,43
 176 532 176 532 109.5 460 c 128,-1,44
 43 388 43 388 43 260 c 0,45,46
 43 140 43 140 106.5 64 c 128,-1,47
 170 -12 170 -12 282 -12 c 0,48,49
 346 -12 346 -12 392 15 c 128,-1,50
 438 42 438 42 460 85 c 1,51,-1
 466 85 l 1,52,53
 486 43 486 43 533.5 15.5 c 128,-1,54
 581 -12 581 -12 653 -12 c 256,22,23
EndSplineSet
EndChar

StartChar: Racute
Encoding: 340 340 275
Width: 655
GlyphClass: 4
Flags: W
LayerCount: 2
Fore
SplineSet
604 0 m 1,0,-1
 453 294 l 1,1,2
 589 338 589 338 589 488 c 0,3,4
 589 585 589 585 535 641.5 c 128,-1,5
 481 698 481 698 387 698 c 2,6,-1
 86 698 l 1,7,-1
 86 0 l 1,8,-1
 199 0 l 1,9,-1
 199 282 l 1,10,-1
 338 282 l 1,11,-1
 478 0 l 1,12,-1
 604 0 l 1,0,-1
379 377 m 2,13,-1
 199 377 l 1,14,-1
 199 599 l 1,15,-1
 379 599 l 2,16,17
 422 599 422 599 446 576.5 c 128,-1,18
 470 554 470 554 470 512 c 2,19,-1
 470 464 l 2,20,21
 470 380 470 380 379 377 c 2,13,-1
325 749 m 1,22,-1
 443 915 l 1,23,-1
 348 961 l 1,24,-1
 257 781 l 1,25,-1
 325 749 l 1,22,-1
EndSplineSet
EndChar

StartChar: racute
Encoding: 341 341 276
Width: 383
Flags: W
LayerCount: 2
Fore
SplineSet
187 0 m 1,0,-1
 187 332 l 2,1,2
 187 415 187 415 321 415 c 2,3,-1
 364 415 l 1,4,-1
 364 520 l 1,5,-1
 335 520 l 2,6,7
 273 520 273 520 238 490.5 c 128,-1,8
 203 461 203 461 192 420 c 1,9,-1
 187 420 l 1,10,-1
 187 520 l 1,11,-1
 78 520 l 1,12,-1
 78 0 l 1,13,-1
 187 0 l 1,0,-1
233 582 m 1,14,-1
 351 749 l 1,15,-1
 256 795 l 1,16,-1
 165 615 l 1,17,-1
 233 582 l 1,14,-1
EndSplineSet
EndChar

StartChar: u0156
Encoding: 342 342 277
Width: 655
GlyphClass: 3
Flags: W
LayerCount: 2
Fore
SplineSet
604 0 m 1,0,-1
 453 294 l 1,1,2
 589 338 589 338 589 488 c 0,3,4
 589 585 589 585 535 641.5 c 128,-1,5
 481 698 481 698 387 698 c 2,6,-1
 86 698 l 1,7,-1
 86 0 l 1,8,-1
 199 0 l 1,9,-1
 199 282 l 1,10,-1
 338 282 l 1,11,-1
 478 0 l 1,12,-1
 604 0 l 1,0,-1
379 377 m 2,13,-1
 199 377 l 1,14,-1
 199 599 l 1,15,-1
 379 599 l 2,16,17
 422 599 422 599 446 576.5 c 128,-1,18
 470 554 470 554 470 512 c 2,19,-1
 470 464 l 2,20,21
 470 380 470 380 379 377 c 2,13,-1
332 -258 m 1,22,23
 359 -234 359 -234 377 -197.5 c 128,-1,24
 395 -161 395 -161 395 -121 c 2,25,-1
 395 -109 l 2,26,27
 395 -56 395 -56 336 -56 c 0,28,29
 278 -56 278 -56 277 -109 c 2,30,-1
 277 -120 l 2,31,32
 277 -139 277 -139 286.5 -153.5 c 128,-1,33
 296 -168 296 -168 318 -171 c 1,34,35
 307 -219 307 -219 263 -258 c 1,36,-1
 332 -258 l 1,22,23
EndSplineSet
EndChar

StartChar: u0157
Encoding: 343 343 278
Width: 383
GlyphClass: 6
Flags: W
LayerCount: 2
Fore
SplineSet
187 0 m 1,0,-1
 187 332 l 2,1,2
 187 415 187 415 321 415 c 2,3,-1
 364 415 l 1,4,-1
 364 520 l 1,5,-1
 335 520 l 2,6,7
 273 520 273 520 238 490.5 c 128,-1,8
 203 461 203 461 192 420 c 1,9,-1
 187 420 l 1,10,-1
 187 520 l 1,11,-1
 78 520 l 1,12,-1
 78 0 l 1,13,-1
 187 0 l 1,0,-1
129 -258 m 1,14,15
 156 -234 156 -234 174 -197.5 c 128,-1,16
 192 -161 192 -161 192 -121 c 2,17,-1
 192 -109 l 2,18,19
 192 -56 192 -56 133 -56 c 0,20,21
 75 -56 75 -56 74 -109 c 2,22,-1
 74 -120 l 2,23,24
 74 -139 74 -139 83.5 -153.5 c 128,-1,25
 93 -168 93 -168 115 -171 c 1,26,27
 104 -219 104 -219 60 -258 c 1,28,-1
 129 -258 l 1,14,15
EndSplineSet
EndChar

StartChar: Rcaron
Encoding: 344 344 279
Width: 655
GlyphClass: 3
Flags: W
LayerCount: 2
Fore
SplineSet
604 0 m 1,0,-1
 453 294 l 1,1,2
 589 338 589 338 589 488 c 0,3,4
 589 585 589 585 535 641.5 c 128,-1,5
 481 698 481 698 387 698 c 2,6,-1
 86 698 l 1,7,-1
 86 0 l 1,8,-1
 199 0 l 1,9,-1
 199 282 l 1,10,-1
 338 282 l 1,11,-1
 478 0 l 1,12,-1
 604 0 l 1,0,-1
379 377 m 2,13,-1
 199 377 l 1,14,-1
 199 599 l 1,15,-1
 379 599 l 2,16,17
 422 599 422 599 446 576.5 c 128,-1,18
 470 554 470 554 470 512 c 2,19,-1
 470 464 l 2,20,21
 470 380 470 380 379 377 c 2,13,-1
369 760 m 1,22,-1
 489 910 l 1,23,-1
 433 952 l 1,24,-1
 314 836 l 1,25,-1
 195 952 l 1,26,-1
 139 910 l 1,27,-1
 259 760 l 1,28,-1
 369 760 l 1,22,-1
EndSplineSet
EndChar

StartChar: rcaron
Encoding: 345 345 280
Width: 383
GlyphClass: 3
Flags: W
LayerCount: 2
Fore
SplineSet
187 0 m 1,0,-1
 187 332 l 2,1,2
 187 415 187 415 321 415 c 2,3,-1
 364 415 l 1,4,-1
 364 520 l 1,5,-1
 335 520 l 2,6,7
 273 520 273 520 238 490.5 c 128,-1,8
 203 461 203 461 192 420 c 1,9,-1
 187 420 l 1,10,-1
 187 520 l 1,11,-1
 78 520 l 1,12,-1
 78 0 l 1,13,-1
 187 0 l 1,0,-1
277 594 m 1,14,-1
 397 744 l 1,15,-1
 341 786 l 1,16,-1
 222 670 l 1,17,-1
 103 786 l 1,18,-1
 47 744 l 1,19,-1
 167 594 l 1,20,-1
 277 594 l 1,14,-1
EndSplineSet
EndChar

StartChar: Sacute
Encoding: 346 346 281
Width: 598
GlyphClass: 4
Flags: W
LayerCount: 2
Fore
SplineSet
295 -12 m 0,0,1
 415 -12 415 -12 481.5 48 c 128,-1,2
 548 108 548 108 548 205 c 0,3,4
 548 289 548 289 499.5 337 c 128,-1,5
 451 385 451 385 346 405 c 2,6,-1
 284 418 l 2,7,8
 227 428 227 428 200 450 c 128,-1,9
 173 472 173 472 173 516 c 0,10,11
 173 608 173 608 299 610 c 0,12,13
 405 610 405 610 462 533 c 1,14,-1
 541 603 l 1,15,16
 457 710 457 710 305 710 c 0,17,18
 187 710 187 710 124 653.5 c 128,-1,19
 61 597 61 597 61 510 c 0,20,21
 61 426 61 426 112 377.5 c 128,-1,22
 163 329 163 329 265 311 c 2,23,-1
 327 300 l 2,24,25
 387 288 387 288 411.5 264 c 128,-1,26
 436 240 436 240 436 199 c 0,27,28
 436 148 436 148 402 118 c 128,-1,29
 368 88 368 88 301 88 c 0,30,31
 192 88 192 88 118 179 c 1,32,-1
 40 106 l 1,33,34
 134 -12 134 -12 295 -12 c 0,0,1
307 749 m 1,35,-1
 425 915 l 1,36,-1
 330 961 l 1,37,-1
 239 781 l 1,38,-1
 307 749 l 1,35,-1
EndSplineSet
EndChar

StartChar: sacute
Encoding: 347 347 282
Width: 494
Flags: W
LayerCount: 2
Fore
SplineSet
243 -12 m 0,0,1
 336 -12 336 -12 392.5 33.5 c 128,-1,2
 449 79 449 79 449 155 c 0,3,4
 449 218 449 218 409.5 255.5 c 128,-1,5
 370 293 370 293 284 306 c 2,6,-1
 236 312 l 2,7,8
 194 318 194 318 175 333.5 c 128,-1,9
 156 349 156 349 156 379 c 0,10,11
 156 408 156 408 177.5 426 c 128,-1,12
 199 444 199 444 244 444 c 0,13,14
 286 444 286 444 318.5 427 c 128,-1,15
 351 410 351 410 371 385 c 1,16,-1
 438 449 l 1,17,18
 404 488 404 488 359 510 c 128,-1,19
 314 532 314 532 244 532 c 0,20,21
 156 532 156 532 103.5 489 c 128,-1,22
 51 446 51 446 51 372 c 0,23,24
 51 236 51 236 222 217 c 2,25,-1
 270 211 l 2,26,27
 344 201 344 201 344 146 c 0,28,29
 344 113 344 113 320.5 94.5 c 128,-1,30
 297 76 297 76 249 76 c 0,31,32
 202 76 202 76 166.5 95.5 c 128,-1,33
 131 115 131 115 102 150 c 1,34,-1
 32 86 l 1,35,36
 68 40 68 40 118.5 14 c 128,-1,37
 169 -12 169 -12 243 -12 c 0,0,1
255 582 m 1,38,-1
 373 749 l 1,39,-1
 278 795 l 1,40,-1
 187 615 l 1,41,-1
 255 582 l 1,38,-1
EndSplineSet
EndChar

StartChar: Scircumflex
Encoding: 348 348 283
Width: 598
Flags: W
LayerCount: 2
Fore
SplineSet
295 -12 m 0,0,1
 415 -12 415 -12 481.5 48 c 128,-1,2
 548 108 548 108 548 205 c 0,3,4
 548 289 548 289 499.5 337 c 128,-1,5
 451 385 451 385 346 405 c 2,6,-1
 284 418 l 2,7,8
 227 428 227 428 200 450 c 128,-1,9
 173 472 173 472 173 516 c 0,10,11
 173 608 173 608 299 610 c 0,12,13
 405 610 405 610 462 533 c 1,14,-1
 541 603 l 1,15,16
 457 710 457 710 305 710 c 0,17,18
 187 710 187 710 124 653.5 c 128,-1,19
 61 597 61 597 61 510 c 0,20,21
 61 426 61 426 112 377.5 c 128,-1,22
 163 329 163 329 265 311 c 2,23,-1
 327 300 l 2,24,25
 387 288 387 288 411.5 264 c 128,-1,26
 436 240 436 240 436 199 c 0,27,28
 436 148 436 148 402 118 c 128,-1,29
 368 88 368 88 301 88 c 0,30,31
 192 88 192 88 118 179 c 1,32,-1
 40 106 l 1,33,34
 134 -12 134 -12 295 -12 c 0,0,1
415 752 m 1,35,-1
 471 794 l 1,36,-1
 351 944 l 1,37,-1
 241 944 l 1,38,-1
 121 794 l 1,39,-1
 177 752 l 1,40,-1
 296 868 l 1,41,-1
 415 752 l 1,35,-1
EndSplineSet
EndChar

StartChar: scircumflex
Encoding: 349 349 284
Width: 494
GlyphClass: 7
Flags: W
LayerCount: 2
Fore
SplineSet
243 -12 m 0,0,1
 336 -12 336 -12 392.5 33.5 c 128,-1,2
 449 79 449 79 449 155 c 0,3,4
 449 218 449 218 409.5 255.5 c 128,-1,5
 370 293 370 293 284 306 c 2,6,-1
 236 312 l 2,7,8
 194 318 194 318 175 333.5 c 128,-1,9
 156 349 156 349 156 379 c 0,10,11
 156 408 156 408 177.5 426 c 128,-1,12
 199 444 199 444 244 444 c 0,13,14
 286 444 286 444 318.5 427 c 128,-1,15
 351 410 351 410 371 385 c 1,16,-1
 438 449 l 1,17,18
 404 488 404 488 359 510 c 128,-1,19
 314 532 314 532 244 532 c 0,20,21
 156 532 156 532 103.5 489 c 128,-1,22
 51 446 51 446 51 372 c 0,23,24
 51 236 51 236 222 217 c 2,25,-1
 270 211 l 2,26,27
 344 201 344 201 344 146 c 0,28,29
 344 113 344 113 320.5 94.5 c 128,-1,30
 297 76 297 76 249 76 c 0,31,32
 202 76 202 76 166.5 95.5 c 128,-1,33
 131 115 131 115 102 150 c 1,34,-1
 32 86 l 1,35,36
 68 40 68 40 118.5 14 c 128,-1,37
 169 -12 169 -12 243 -12 c 0,0,1
363 585 m 1,38,-1
 419 628 l 1,39,-1
 299 778 l 1,40,-1
 189 778 l 1,41,-1
 69 628 l 1,42,-1
 125 585 l 1,43,-1
 244 702 l 1,44,-1
 363 585 l 1,38,-1
EndSplineSet
EndChar

StartChar: Scedilla
Encoding: 350 350 285
Width: 598
GlyphClass: 3
Flags: W
LayerCount: 2
Fore
SplineSet
307 -209 m 0,0,1
 354 -209 354 -209 390.5 -188.5 c 128,-1,2
 427 -168 427 -168 427 -123 c 0,3,4
 427 -88 427 -88 407 -71.5 c 128,-1,5
 387 -55 387 -55 357 -55 c 0,6,7
 335 -55 335 -55 314 -62 c 1,8,-1
 311 -58 l 1,9,-1
 320 -11 l 1,10,11
 429 -3 429 -3 488.5 54.5 c 128,-1,12
 548 112 548 112 548 205 c 0,13,14
 548 289 548 289 499.5 337 c 128,-1,15
 451 385 451 385 346 405 c 2,16,-1
 284 418 l 2,17,18
 227 428 227 428 200 450 c 128,-1,19
 173 472 173 472 173 516 c 0,20,21
 173 608 173 608 299 610 c 0,22,23
 405 610 405 610 462 533 c 1,24,-1
 541 603 l 1,25,26
 457 710 457 710 305 710 c 0,27,28
 187 710 187 710 124 653.5 c 128,-1,29
 61 597 61 597 61 510 c 0,30,31
 61 426 61 426 112 377.5 c 128,-1,32
 163 329 163 329 265 311 c 2,33,-1
 327 300 l 2,34,35
 387 288 387 288 411.5 264 c 128,-1,36
 436 240 436 240 436 199 c 0,37,38
 436 148 436 148 402 118 c 128,-1,39
 368 88 368 88 301 88 c 0,40,41
 187 88 187 88 118 179 c 1,42,-1
 40 106 l 1,43,44
 116 4 116 4 263 -11 c 1,45,-1
 250 -76 l 1,46,47
 314 -81 314 -81 333 -95 c 0,48,49
 346 -107 346 -107 346 -119 c 0,50,51
 346 -134 346 -134 333.5 -141 c 128,-1,52
 321 -148 321 -148 302 -148 c 0,53,54
 260 -148 260 -148 239 -119 c 1,55,-1
 198 -167 l 1,56,57
 209 -182 209 -182 235.5 -195.5 c 128,-1,58
 262 -209 262 -209 307 -209 c 0,0,1
EndSplineSet
EndChar

StartChar: scedilla
Encoding: 351 351 286
Width: 494
GlyphClass: 6
Flags: W
LayerCount: 2
Fore
SplineSet
256 -209 m 0,0,1
 303 -209 303 -209 339.5 -188.5 c 128,-1,2
 376 -168 376 -168 376 -123 c 0,3,4
 376 -88 376 -88 356 -71.5 c 128,-1,5
 336 -55 336 -55 306 -55 c 0,6,7
 284 -55 284 -55 263 -62 c 1,8,-1
 260 -58 l 1,9,-1
 269 -11 l 1,10,11
 353 -3 353 -3 401 41 c 128,-1,12
 449 85 449 85 449 155 c 0,13,14
 449 218 449 218 409.5 255.5 c 128,-1,15
 370 293 370 293 284 306 c 2,16,-1
 236 312 l 2,17,18
 194 318 194 318 175 333.5 c 128,-1,19
 156 349 156 349 156 379 c 0,20,21
 156 408 156 408 177.5 426 c 128,-1,22
 199 444 199 444 244 444 c 0,23,24
 286 444 286 444 318.5 427 c 128,-1,25
 351 410 351 410 371 385 c 1,26,-1
 438 449 l 1,27,28
 404 488 404 488 359 510 c 128,-1,29
 314 532 314 532 244 532 c 0,30,31
 156 532 156 532 103.5 489 c 128,-1,32
 51 446 51 446 51 372 c 0,33,34
 51 300 51 300 96 264 c 128,-1,35
 141 228 141 228 222 217 c 2,36,-1
 270 211 l 2,37,38
 311 205 311 205 327.5 188.5 c 128,-1,39
 344 172 344 172 344 146 c 0,40,41
 344 113 344 113 320.5 94.5 c 128,-1,42
 297 76 297 76 249 76 c 0,43,44
 202 76 202 76 166.5 95.5 c 128,-1,45
 131 115 131 115 102 150 c 1,46,-1
 32 86 l 1,47,48
 94 2 94 2 212 -11 c 1,49,-1
 199 -76 l 1,50,51
 263 -81 263 -81 282 -95 c 0,52,53
 295 -107 295 -107 295 -119 c 0,54,55
 295 -134 295 -134 282.5 -141 c 128,-1,56
 270 -148 270 -148 251 -148 c 0,57,58
 209 -148 209 -148 188 -119 c 1,59,-1
 147 -167 l 1,60,61
 158 -182 158 -182 184.5 -195.5 c 128,-1,62
 211 -209 211 -209 256 -209 c 0,0,1
EndSplineSet
EndChar

